<?xml version="1.0" encoding="UTF-8"?>
<svg version="1.1" xmlns="http://www.w3.org/2000/svg" width="110" height="110">
<path d="M0 0 C3.59764814 2.78358177 7.04461524 5.53506615 10 9 C10 9.66 10 10.32 10 11 C10.66 11 11.32 11 12 11 C20.94201796 26.17211244 25.63443351 40.98307968 21.375 58.5 C17.22464315 73.39631464 8.53786999 85.33978175 -5 93 C-17.32365338 99.81637971 -31.05503385 102.23658449 -44.86328125 98.6171875 C-45.56839844 98.41351563 -46.27351563 98.20984375 -47 98 C-48.07314453 97.72542969 -48.07314453 97.72542969 -49.16796875 97.4453125 C-61.91393042 93.79071818 -73.30998697 84.5633789 -79.94140625 73.11328125 C-84.68702883 63.63954762 -86.19916183 55.88579181 -86.25 45.375 C-86.270625 44.33214844 -86.29125 43.28929687 -86.3125 42.21484375 C-86.38050913 28.59601463 -81.60220974 15.86893779 -72 6 C-71.34 6 -70.68 6 -70 6 C-69.67 5.01 -69.34 4.02 -69 3 C-50.40378876 -14.09717024 -20.02167074 -13.92811878 0 0 Z " fill="#D3D3D3" transform="translate(86,9)"/>
<path d="M0 0 C0.33 0.66 0.66 1.32 1 2 C0.67 2.99 0.34 3.98 0 5 C1.65 4.67 3.3 4.34 5 4 C5 5.32 5 6.64 5 8 C3.68 8 2.36 8 1 8 C0.67 10.97 0.34 13.94 0 17 C1.65 16.67 3.3 16.34 5 16 C5.226875 14.88625 5.45375 13.7725 5.6875 12.625 C7 9 7 9 9.375 7.6875 C10.24125 7.460625 11.1075 7.23375 12 7 C12.680625 6.649375 13.36125 6.29875 14.0625 5.9375 C16.02808497 4.9864105 17.8703909 4.45634481 20 4 C20 4.99 20 5.98 20 7 C21.98 7 23.96 7 26 7 C27.00690961 13.00063699 26.99704786 17.24380322 25 23 C25 23.66 25 24.32 25 25 C26.32 25 27.64 25 29 25 C28.505 27.475 28.505 27.475 28 30 C27.01 30.33 26.02 30.66 25 31 C25 30.34 25 29.68 25 29 C24.41992188 29.30035156 23.83984375 29.60070312 23.2421875 29.91015625 C18.43815428 32.24875328 15.3573651 33.64842003 10 32 C10 32.66 10 33.32 10 34 C9.34 34 8.68 34 8 34 C8 35.65 8 37.3 8 39 C9.32 39 10.64 39 12 39 C12.66 39.66 13.32 40.32 14 41 C16.13278501 40.76029089 16.13278501 40.76029089 18.4375 40.0625 C22.683213 38.89440433 22.683213 38.89440433 26 40 C26 37.36 26 34.72 26 32 C28.31 32.33 30.62 32.66 33 33 C33 32.01 33 31.02 33 30 C35.31 30 37.62 30 40 30 C40.66 31.98 41.32 33.96 42 36 C39.03 35.67 36.06 35.34 33 35 C33 35.66 33 36.32 33 37 C32.34 37 31.68 37 31 37 C31.54226981 40.79588866 33.20127563 42.47211993 36 45 C35.505 45.99 35.505 45.99 35 47 C32.69 46.67 30.38 46.34 28 46 C28 46.66 28 47.32 28 48 C28.99 48.495 28.99 48.495 30 49 C29.01 49.33 28.02 49.66 27 50 C27 50.66 27 51.32 27 52 C27.99 52.495 27.99 52.495 29 53 C29 54.65 29 56.3 29 58 C30.32 58 31.64 58 33 58 C32.57910004 63.60461531 32.08386889 68.72086547 30 74 C27.36 74 24.72 74 22 74 C22 75.32 22 76.64 22 78 C21.030625 78.12375 20.06125 78.2475 19.0625 78.375 C17.5465625 78.684375 17.5465625 78.684375 16 79 C15.67 79.66 15.34 80.32 15 81 C14.01 80.67 13.02 80.34 12 80 C12 80.66 12 81.32 12 82 C11.01 82.495 11.01 82.495 10 83 C11.2375 83.391875 12.475 83.78375 13.75 84.1875 C17.70538366 85.64622305 19.67149343 87.41021904 22 91 C19.01266946 92.65962808 16.40843984 93.63301459 13 94 C0.86771302 89.3102084 -9.81703201 77.86330107 -15.28125 66.28515625 C-18.52381376 58.39877796 -19.20887142 51.87833413 -19.25 43.375 C-19.270625 42.33214844 -19.29125 41.28929687 -19.3125 40.21484375 C-19.38050913 26.59601463 -14.60220974 13.86893779 -5 4 C-4.34 4 -3.68 4 -3 4 C-2.67 3.01 -2.34 2.02 -2 1 C-1.34 0.67 -0.68 0.34 0 0 Z " fill="#949494" transform="translate(19,11)"/>
<path d="M0 0 C1.15508057 0.00644531 2.31016113 0.01289062 3.50024414 0.01953125 C18.64441691 0.34468335 29.41406046 5.93824212 40.4375 16.375 C42.25 18.5 42.25 18.5 42.25 20.5 C42.91 20.5 43.57 20.5 44.25 20.5 C52.72789757 34.88462949 58.10598217 49.82523659 53.86376953 66.51879883 C51.66512646 74.66974708 51.66512646 74.66974708 50.25 77.5 C49.26 77.5 48.27 77.5 47.25 77.5 C46.755 78.985 46.755 78.985 46.25 80.5 C45.26 80.5 44.27 80.5 43.25 80.5 C42.755 81.985 42.755 81.985 42.25 83.5 C39.6875 84.6875 39.6875 84.6875 37.25 85.5 C37.25 84.51 37.25 83.52 37.25 82.5 C36.528125 82.850625 35.80625 83.20125 35.0625 83.5625 C31.87493482 84.62502173 30.45587119 84.23981643 27.25 83.5 C25.01832815 83.86856864 25.01832815 83.86856864 23.25 84.5 C23.25 83.84 23.25 83.18 23.25 82.5 C20.94 83.49 18.63 84.48 16.25 85.5 C15.92 84.84 15.59 84.18 15.25 83.5 C16.24 83.5 17.23 83.5 18.25 83.5 C18.58 81.85 18.91 80.2 19.25 78.5 C20.24 78.5 21.23 78.5 22.25 78.5 C22.58 76.85 22.91 75.2 23.25 73.5 C22.46625 73.995 21.6825 74.49 20.875 75 C18.25 76.5 18.25 76.5 16.25 76.5 C16.25 77.16 16.25 77.82 16.25 78.5 C13.775 79.49 13.775 79.49 11.25 80.5 C11.25 79.18 11.25 77.86 11.25 76.5 C10.9518576 75.15835921 10.62756808 73.82148827 10.25 72.5 C9.59 73.16 8.93 73.82 8.25 74.5 C6.93 73.84 5.61 73.18 4.25 72.5 C8 70.5 8 70.5 10.25 70.5 C9.92 69.51 9.59 68.52 9.25 67.5 C8.59 67.5 7.93 67.5 7.25 67.5 C7.25 66.84 7.25 66.18 7.25 65.5 C5.93 65.17 4.61 64.84 3.25 64.5 C3.5284375 63.0459375 3.5284375 63.0459375 3.8125 61.5625 C3.956875 60.551875 4.10125 59.54125 4.25 58.5 C3.92 58.17 3.59 57.84 3.25 57.5 C3.20907063 55.16702567 3.20758277 52.83294775 3.25 50.5 C5.56 50.17 7.87 49.84 10.25 49.5 C10.04375 48.778125 9.8375 48.05625 9.625 47.3125 C9.19047789 44.05358415 9.83319331 42.41695496 11.25 39.5 C12.9 39.5 14.55 39.5 16.25 39.5 C16.06566406 40.21542969 15.88132813 40.93085937 15.69140625 41.66796875 C15.21449211 44.72781608 15.5065589 46.8083481 16.1875 49.8125 C16.38214844 50.69550781 16.57679687 51.57851563 16.77734375 52.48828125 C17.01130859 53.48408203 17.01130859 53.48408203 17.25 54.5 C19.23 54.5 21.21 54.5 23.25 54.5 C23.37375 55.304375 23.4975 56.10875 23.625 56.9375 C23.83125 57.783125 24.0375 58.62875 24.25 59.5 C25.24 59.995 25.24 59.995 26.25 60.5 C26.25 61.16 26.25 61.82 26.25 62.5 C26.91 62.5 27.57 62.5 28.25 62.5 C28.04375 61.63375 27.8375 60.7675 27.625 59.875 C27.19450265 56.00052388 27.44413754 53.9546934 29.25 50.5 C31.22888961 49.77306096 33.22954558 49.10183749 35.25 48.5 C36.21877057 46.46756452 36.21877057 46.46756452 36.25 44.5 C35.59 44.5 34.93 44.5 34.25 44.5 C34.58 43.18 34.91 41.86 35.25 40.5 C33.765 40.005 33.765 40.005 32.25 39.5 C31.755 36.53 31.755 36.53 31.25 33.5 C30.59 33.5 29.93 33.5 29.25 33.5 C29.25 32.84 29.25 32.18 29.25 31.5 C28.59 31.5 27.93 31.5 27.25 31.5 C27.25 32.16 27.25 32.82 27.25 33.5 C26.59 33.5 25.93 33.5 25.25 33.5 C25.25 34.16 25.25 34.82 25.25 35.5 C24.59 35.5 23.93 35.5 23.25 35.5 C21.48537317 32.41190305 21.25 31.26687864 21.25 27.5 C20.610625 27.231875 19.97125 26.96375 19.3125 26.6875 C17.25 25.5 17.25 25.5 16.25 22.5 C15.59 22.17 14.93 21.84 14.25 21.5 C14.25 22.16 14.25 22.82 14.25 23.5 C10.95 23.5 7.65 23.5 4.25 23.5 C3.92 24.16 3.59 24.82 3.25 25.5 C1.6 25.17 -0.05 24.84 -1.75 24.5 C-2.08 23.51 -2.41 22.52 -2.75 21.5 C-3.595625 20.88125 -4.44125 20.2625 -5.3125 19.625 C-7.75 17.5 -7.75 17.5 -8.0625 14.75 C-7.959375 14.0075 -7.85625 13.265 -7.75 12.5 C-6.863125 12.70625 -5.97625 12.9125 -5.0625 13.125 C-1.43284965 13.53590381 -0.04158027 12.8503919 3.25 11.5 C4.92422986 11.79299023 6.59178227 12.12690101 8.25 12.5 C10.97502965 12.12277985 10.97502965 12.12277985 13.25 11.5 C13.25 10.51 13.25 9.52 13.25 8.5 C12.07824219 8.51160156 10.90648437 8.52320313 9.69921875 8.53515625 C8.11198648 8.54546625 6.52474557 8.5544955 4.9375 8.5625 C4.11822021 8.56725342 3.29894043 8.57200684 2.45483398 8.5769043 C-2.99945304 8.57959087 -8.28462708 8.26224088 -13.68359375 7.42578125 C-15.84624284 7.2856979 -15.84624284 7.2856979 -17.35546875 8.90625 C-17.81566406 9.4321875 -18.27585937 9.958125 -18.75 10.5 C-22.54280344 12.06659272 -25.65351794 12.74096953 -29.75 12.5 C-29.75 11.51 -29.75 10.52 -29.75 9.5 C-28.11935236 8.44228261 -26.44719127 7.44726954 -24.75 6.5 C-24.27981445 6.00822266 -23.80962891 5.51644531 -23.32519531 5.00976562 C-17.42116818 -0.64902294 -7.58254018 -0.04390267 0 0 Z " fill="#E3E3E3" transform="translate(53.75,-0.5)"/>
<path d="M0 0 C-3.75 3 -3.75 3 -6 3 C-6 3.99 -6 4.98 -6 6 C-3.8509548 5.57855998 -1.70577212 5.13737951 0.4375 4.6875 C1.63246094 4.44386719 2.82742187 4.20023438 4.05859375 3.94921875 C5.02925781 3.63597656 5.99992187 3.32273437 7 3 C7.33 2.01 7.66 1.02 8 0 C9.02738281 0.0721875 10.05476563 0.144375 11.11328125 0.21875 C18.41278651 0.71303331 25.63912802 1.11446216 32.9609375 0.9375 C35 1 35 1 37 2 C37 2.99 37 3.98 37 5 C35.02 5.66 33.04 6.32 31 7 C31 6.34 31 5.68 31 5 C29.700625 5.12375 28.40125 5.2475 27.0625 5.375 C25.96615234 5.47941406 25.96615234 5.47941406 24.84765625 5.5859375 C24.23792969 5.72257813 23.62820312 5.85921875 23 6 C22.67 6.66 22.34 7.32 22 8 C20.02 7.34 18.04 6.68 16 6 C16.33 6.99 16.66 7.98 17 9 C16.67 9.66 16.34 10.32 16 11 C16.99 11.33 17.98 11.66 19 12 C19 12.66 19 13.32 19 14 C19.5775 14.268125 20.155 14.53625 20.75 14.8125 C23.0325868 16.01719859 24.9737942 17.40798115 27 19 C27.495 17.515 27.495 17.515 28 16 C31.3 16.33 34.6 16.66 38 17 C38 16.34 38 15.68 38 15 C41 16 41 16 42.0625 18 C42.371875 18.66 42.68125 19.32 43 20 C43.66 20.33 44.32 20.66 45 21 C46.3749149 23.90259811 47 25.76138705 47 29 C47.66 29 48.32 29 49 29 C49 28.34 49 27.68 49 27 C49.66 27 50.32 27 51 27 C51 26.34 51 25.68 51 25 C51.66 25 52.32 25 53 25 C53 25.66 53 26.32 53 27 C53.66 27 54.32 27 55 27 C55.495 29.97 55.495 29.97 56 33 C57.98 33.495 57.98 33.495 60 34 C59.01 34.495 59.01 34.495 58 35 C58 35.99 58 36.98 58 38 C58.66 38 59.32 38 60 38 C59.67 39.65 59.34 41.3 59 43 C57.02 43.66 55.04 44.32 53 45 C52.67 48.63 52.34 52.26 52 56 C51.34 56 50.68 56 50 56 C50 55.34 50 54.68 50 54 C49.01 53.67 48.02 53.34 47 53 C47 51.68 47 50.36 47 49 C44.03 48.505 44.03 48.505 41 48 C40.46658816 46.42085985 39.94874237 44.83645613 39.4375 43.25 C39.14746094 42.36828125 38.85742188 41.4865625 38.55859375 40.578125 C37.98302565 37.92165684 38.10751629 36.52968894 39 34 C37.68 33.67 36.36 33.34 35 33 C34.34 35.97 33.68 38.94 33 42 C31.741875 42.04125 30.48375 42.0825 29.1875 42.125 C28.47980469 42.14820313 27.77210937 42.17140625 27.04296875 42.1953125 C25 42 25 42 22 40 C24.97 40.33 27.94 40.66 31 41 C30.34 39.35 29.68 37.7 29 36 C26.69 35.67 24.38 35.34 22 35 C22 35.99 22 36.98 22 38 C20.02 38 18.04 38 16 38 C15.67 40.31 15.34 42.62 15 45 C14.39671875 45.06058594 13.7934375 45.12117188 13.171875 45.18359375 C12.37265625 45.26738281 11.5734375 45.35117187 10.75 45.4375 C9.96109375 45.51871094 9.1721875 45.59992187 8.359375 45.68359375 C6.17635361 45.97634993 4.1226818 46.42064419 2 47 C1.505 45.515 1.505 45.515 1 44 C-0.32 44 -1.64 44 -3 44 C-3 42.35 -3 40.7 -3 39 C-2.34 39 -1.68 39 -1 39 C-1 38.34 -1 37.68 -1 37 C1.64 37 4.28 37 7 37 C7.33 36.34 7.66 35.68 8 35 C11.0625 34.375 11.0625 34.375 14 34 C14 34.66 14 35.32 14 36 C17.12474627 34.36526484 17.12474627 34.36526484 17.6875 31.875 C17.790625 31.25625 17.89375 30.6375 18 30 C16.68 30 15.36 30 14 30 C12.62782185 26.29511898 13.56006778 24.5574796 15 21 C15.33397787 17.87413125 15.33397787 17.87413125 15 15 C12.8614515 12.8614515 11.86724686 12.57344937 9 12 C9 11.01 9 10.02 9 9 C8.13375 9.639375 7.2675 10.27875 6.375 10.9375 C3 13 3 13 -0.1875 13.3125 C-1.5796875 13.6528125 -1.5796875 13.6528125 -3 14 C-4.03485877 16.31808364 -5.0355414 18.65175298 -6 21 C-8.6875 21.9375 -8.6875 21.9375 -11 22 C-10.505 17.545 -10.505 17.545 -10 13 C-8.68 13 -7.36 13 -6 13 C-6 11.68 -6 10.36 -6 9 C-7.65 9.33 -9.3 9.66 -11 10 C-10.92734555 6.87585852 -10.72621016 4.73927821 -8.48046875 2.453125 C-3.60430169 -1.2014339 -3.60430169 -1.2014339 0 0 Z " fill="#B8B8B8" transform="translate(30,6)"/>
<path d="M0 0 C0.33 0.66 0.66 1.32 1 2 C0.67 2.99 0.34 3.98 0 5 C1.65 4.67 3.3 4.34 5 4 C5 5.32 5 6.64 5 8 C3.68 8 2.36 8 1 8 C0.855625 9.093125 0.71125 10.18625 0.5625 11.3125 C0 15 0 15 -1 18 C-0.01 18.33 0.98 18.66 2 19 C1.34 20.32 0.68 21.64 0 23 C-1.32 23 -2.64 23 -4 23 C-4.66 25.31 -5.32 27.62 -6 30 C-4.68 30.33 -3.36 30.66 -2 31 C-1.81824219 31.99902344 -1.63648437 32.99804688 -1.44921875 34.02734375 C-1.19785156 35.31769531 -0.94648438 36.60804687 -0.6875 37.9375 C-0.32205078 39.86916016 -0.32205078 39.86916016 0.05078125 41.83984375 C0.36402344 42.88269531 0.67726563 43.92554688 1 45 C2.485 45.495 2.485 45.495 4 46 C4.99 45.505 4.99 45.505 6 45 C6 45.66 6 46.32 6 47 C7.32 47.66 8.64 48.32 10 49 C9.01 49.495 9.01 49.495 8 50 C9.65 50.66 11.3 51.32 13 52 C12.34 52.66 11.68 53.32 11 54 C10.34 54.99 9.68 55.98 9 57 C9.99 57.99 10.98 58.98 12 60 C12.66 58.02 13.32 56.04 14 54 C14.66 54 15.32 54 16 54 C16 54.66 16 55.32 16 56 C17.65 56.33 19.3 56.66 21 57 C21 57.99 21 58.98 21 60 C17.535 60.495 17.535 60.495 14 61 C14 62.32 14 63.64 14 65 C13.01 65.495 13.01 65.495 12 66 C11.34786708 68.02463255 11.34786708 68.02463255 11 70 C12.485 70.495 12.485 70.495 14 71 C13.01 71.495 13.01 71.495 12 72 C12 72.66 12 73.32 12 74 C11.34 74 10.68 74 10 74 C9.67 74.66 9.34 75.32 9 76 C6.5625 74.875 6.5625 74.875 4 73 C3.1875 69.8125 3.1875 69.8125 3 67 C4.32 67 5.64 67 7 67 C6.01 65.02 5.02 63.04 4 61 C2.35 61 0.7 61 -1 61 C-1.66 62.32 -2.32 63.64 -3 65 C-3.33 63.68 -3.66 62.36 -4 61 C-5.485 61.495 -5.485 61.495 -7 62 C-9.1875 60.75 -9.1875 60.75 -11 59 C-11 58.01 -11 57.02 -11 56 C-11.66 56 -12.32 56 -13 56 C-13.19335938 55.18015625 -13.38671875 54.3603125 -13.5859375 53.515625 C-13.84632812 52.43796875 -14.10671875 51.3603125 -14.375 50.25 C-14.63023438 49.18265625 -14.88546875 48.1153125 -15.1484375 47.015625 C-15.85755435 44.09796843 -15.85755435 44.09796843 -17.0625 42 C-19.59986035 36.58696459 -19.17055795 29.47722212 -17.28662109 23.88085938 C-14.21219438 16.54760933 -10.43057357 9.83584025 -5 4 C-4.34 4 -3.68 4 -3 4 C-2.67 3.01 -2.34 2.02 -2 1 C-1.34 0.67 -0.68 0.34 0 0 Z " fill="#2D2D2D" transform="translate(19,11)"/>
<path d="M0 0 C1.65 0 3.3 0 5 0 C4.72349609 1.07314453 4.72349609 1.07314453 4.44140625 2.16796875 C3.96449211 5.22781608 4.2565589 7.3083481 4.9375 10.3125 C5.22947266 11.63701172 5.22947266 11.63701172 5.52734375 12.98828125 C5.68332031 13.65214844 5.83929688 14.31601562 6 15 C7.98 15 9.96 15 12 15 C12.12375 15.804375 12.2475 16.60875 12.375 17.4375 C12.58125 18.283125 12.7875 19.12875 13 20 C13.66 20.33 14.32 20.66 15 21 C15.4140625 23.06640625 15.4140625 23.06640625 15.625 25.5625 C15.69976562 26.38878906 15.77453125 27.21507813 15.8515625 28.06640625 C15.90054688 28.70449219 15.94953125 29.34257813 16 30 C16.99 30 17.98 30 19 30 C19.33 30.66 19.66 31.32 20 32 C20.61875 31.835 21.2375 31.67 21.875 31.5 C24 31 24 31 26 31 C26.66 30.67 27.32 30.34 28 30 C30.125 30.4375 30.125 30.4375 32 31 C33.77736058 27.90580952 34.31378764 25.4204741 34.5625 21.875 C34.90277778 17.19444444 34.90277778 17.19444444 36 15 C38.64860427 14.40644386 41.29197322 14.25790731 44 14 C44.21105398 19.24911666 43.50470744 23.79721115 42.0625 28.8125 C41.78889648 29.81313477 41.78889648 29.81313477 41.50976562 30.83398438 C40.81945574 33.32161018 40.15737384 35.68525232 39 38 C38.01 38 37.02 38 36 38 C35.67 38.99 35.34 39.98 35 41 C34.01 41 33.02 41 32 41 C31.67 41.99 31.34 42.98 31 44 C28.4375 45.1875 28.4375 45.1875 26 46 C26 45.01 26 44.02 26 43 C25.278125 43.350625 24.55625 43.70125 23.8125 44.0625 C20.62493482 45.12502173 19.20587119 44.73981643 16 44 C13.76832815 44.36856864 13.76832815 44.36856864 12 45 C12 44.34 12 43.68 12 43 C9.69 43.99 7.38 44.98 5 46 C4.67 45.34 4.34 44.68 4 44 C4.99 44 5.98 44 7 44 C7.33 42.35 7.66 40.7 8 39 C8.99 39 9.98 39 11 39 C11.33 37.35 11.66 35.7 12 34 C11.21625 34.495 10.4325 34.99 9.625 35.5 C7 37 7 37 5 37 C5 37.66 5 38.32 5 39 C3.35 39.66 1.7 40.32 0 41 C0 39.68 0 38.36 0 37 C-0.2981424 35.65835921 -0.62243192 34.32148827 -1 33 C-1.66 33.66 -2.32 34.32 -3 35 C-4.32 34.34 -5.64 33.68 -7 33 C-3.25 31 -3.25 31 -1 31 C-1.33 30.01 -1.66 29.02 -2 28 C-2.66 28 -3.32 28 -4 28 C-4 27.34 -4 26.68 -4 26 C-5.32 25.67 -6.64 25.34 -8 25 C-7.814375 24.030625 -7.62875 23.06125 -7.4375 22.0625 C-7.293125 21.051875 -7.14875 20.04125 -7 19 C-7.33 18.67 -7.66 18.34 -8 18 C-8.04092937 15.66702567 -8.04241723 13.33294775 -8 11 C-4.535 10.505 -4.535 10.505 -1 10 C-1.309375 8.9171875 -1.309375 8.9171875 -1.625 7.8125 C-2.05952211 4.55358415 -1.41680669 2.91695496 0 0 Z " fill="#DFDFDF" transform="translate(65,39)"/>
<path d="M0 0 C0.33 0 0.66 0 1 0 C1.03738281 0.58007812 1.07476562 1.16015625 1.11328125 1.7578125 C1.43576099 5.58963063 1.73189075 8.47495271 3.5 11.9375 C5.58204462 16.1883411 5.73189088 20.32195818 6 25 C6.66 25 7.32 25 8 25 C8.2475 25.61875 8.495 26.2375 8.75 26.875 C10.20628639 29.35068687 11.37812506 29.95125002 14 31 C14.33 30.34 14.66 29.68 15 29 C15.66 29.99 16.32 30.98 17 32 C17.33 31.34 17.66 30.68 18 30 C20.5625 29.375 20.5625 29.375 23 29 C26 33.75 26 33.75 26 36 C24.68 36 23.36 36 22 36 C23.02388923 40.31279708 23.02388923 40.31279708 25.9375 43.4375 C28.17045475 44.25134853 28.17045475 44.25134853 31 43 C31.33 42.01 31.66 41.02 32 40 C31.34 39.67 30.68 39.34 30 39 C30.33 37.35 30.66 35.7 31 34 C31.66 34 32.32 34 33 34 C33 32.68 33 31.36 33 30 C35.31 29.67 37.62 29.34 40 29 C40.495 27.515 40.495 27.515 41 26 C42.32 26.99 43.64 27.98 45 29 C45 28.34 45 27.68 45 27 C45.66 27 46.32 27 47 27 C47 27.99 47 28.98 47 30 C47.99 30 48.98 30 50 30 C50.2236337 31.41433206 50.42826476 32.83167618 50.625 34.25 C50.74101563 35.03890625 50.85703125 35.8278125 50.9765625 36.640625 C51.00319395 39.32152459 50.36592084 40.72694089 49 43 C46.36 43 43.72 43 41 43 C41 44.32 41 45.64 41 47 C40.030625 47.12375 39.06125 47.2475 38.0625 47.375 C37.051875 47.58125 36.04125 47.7875 35 48 C34.505 48.99 34.505 48.99 34 50 C33.01 49.67 32.02 49.34 31 49 C31 49.66 31 50.32 31 51 C30.01 51.495 30.01 51.495 29 52 C30.2375 52.391875 31.475 52.78375 32.75 53.1875 C36.70538366 54.64622305 38.67149343 56.41021904 41 60 C38.01266946 61.65962808 35.40843984 62.63301459 32 63 C19.86771302 58.3102084 9.18296799 46.86330107 3.71875 35.28515625 C1.3481087 29.51941794 -0.13099287 24.62666039 -0.09765625 18.359375 C-0.09443359 17.28945313 -0.09121094 16.21953125 -0.08789062 15.1171875 C-0.07951172 14.00601563 -0.07113281 12.89484375 -0.0625 11.75 C-0.05798828 10.62335937 -0.05347656 9.49671875 -0.04882812 8.3359375 C-0.03705397 5.55723783 -0.0206084 2.77864591 0 0 Z " fill="#626262" transform="translate(0,42)"/>
<path d="M0 0 C1.32 1.32 2.64 2.64 4 4 C2.74337038 7.87460798 1.60395437 9.9860255 -2 12 C-3.32 12 -4.64 12 -6 12 C-5.54625 12.391875 -5.0925 12.78375 -4.625 13.1875 C-2.72730543 15.30415932 -2.0361081 17.37519282 -1 20 C-0.34 20.33 0.32 20.66 1 21 C1 22.65 1 24.3 1 26 C1.66 26 2.32 26 3 26 C3.66 24.35 4.32 22.7 5 21 C8 21 11 21 14 21 C16.35953094 18.64046906 16.49141413 17.22104383 17 14 C19.475 14.495 19.475 14.495 22 15 C22.33 14.01 22.66 13.02 23 12 C23.66 12.66 24.32 13.32 25 14 C25.433125 13.525625 25.86625 13.05125 26.3125 12.5625 C28 11 28 11 31 10 C30.625 11.9375 30.625 11.9375 30 14 C29.34 14.33 28.68 14.66 28 15 C31.90961152 16.11703186 33.50044586 16.25467466 37.1875 14.375 C39.93533332 12.05460742 41.21574994 10.05871439 43 7 C43.99 7 44.98 7 46 7 C46.33 5.68 46.66 4.36 47 3 C47.99 3 48.98 3 50 3 C50.33 2.34 50.66 1.68 51 1 C51.66 1 52.32 1 53 1 C50.78940118 10.57926154 42.70236138 18.35397893 35 24 C21.26825316 31.98069307 6.5942 35.56943273 -9.0859375 31.578125 C-11.45857398 30.86149194 -13.74107939 30.02015769 -16 29 C-13 27 -13 27 -10 26 C-10.66 25.67 -11.32 25.34 -12 25 C-12.33 24.01 -12.66 23.02 -13 22 C-15.09719872 20.97718482 -15.09719872 20.97718482 -17.5625 20.3125 C-18.38878906 20.06113281 -19.21507812 19.80976562 -20.06640625 19.55078125 C-20.70449219 19.36902344 -21.34257812 19.18726562 -22 19 C-21.67 18.34 -21.34 17.68 -21 17 C-20.34 17 -19.68 17 -19 17 C-19 16.34 -19 15.68 -19 15 C-18.030625 14.87625 -17.06125 14.7525 -16.0625 14.625 C-15.051875 14.41875 -14.04125 14.2125 -13 14 C-12.67 13.34 -12.34 12.68 -12 12 C-11.01 12.33 -10.02 12.66 -9 13 C-9 11.68 -9 10.36 -9 9 C-5.71303767 8.20046862 -4.28976808 7.90341064 -1 9 C-0.67 6.03 -0.34 3.06 0 0 Z " fill="#C0C0C0" transform="translate(50,76)"/>
<path d="M0 0 C3 1 3 1 4.0625 3 C4.5265625 3.99 4.5265625 3.99 5 5 C5.66 5.33 6.32 5.66 7 6 C8.3749149 8.90259811 9 10.76138705 9 14 C9.66 14 10.32 14 11 14 C11 13.34 11 12.68 11 12 C11.66 12 12.32 12 13 12 C13 11.34 13 10.68 13 10 C13.66 10 14.32 10 15 10 C15 10.66 15 11.32 15 12 C15.66 12 16.32 12 17 12 C17.495 14.97 17.495 14.97 18 18 C19.32 18.33 20.64 18.66 22 19 C21.01 19.495 21.01 19.495 20 20 C20 20.99 20 21.98 20 23 C20.66 23 21.32 23 22 23 C21.505 25.475 21.505 25.475 21 28 C19.02 28.66 17.04 29.32 15 30 C14.67 33.63 14.34 37.26 14 41 C13.34 41 12.68 41 12 41 C12 40.34 12 39.68 12 39 C10.515 38.505 10.515 38.505 9 38 C9 36.68 9 35.36 9 34 C7.02 33.67 5.04 33.34 3 33 C2.46658816 31.42085985 1.94874237 29.83645613 1.4375 28.25 C1.00244141 26.92742188 1.00244141 26.92742188 0.55859375 25.578125 C-0.01697435 22.92165684 0.10751629 21.52968894 1 19 C-0.32 18.67 -1.64 18.34 -3 18 C-3.66 20.97 -4.32 23.94 -5 27 C-6.258125 27.04125 -7.51625 27.0825 -8.8125 27.125 C-9.52019531 27.14820312 -10.22789063 27.17140625 -10.95703125 27.1953125 C-13 27 -13 27 -16 25 C-13.03 25.33 -10.06 25.66 -7 26 C-7.33 24.68 -7.66 23.36 -8 22 C-7.34 21.34 -6.68 20.68 -6 20 C-8.33214148 18.79371992 -10.49642139 17.8345262 -13 17 C-12.34 17 -11.68 17 -11 17 C-11.01160156 16.26394531 -11.02320313 15.52789062 -11.03515625 14.76953125 C-11.04417969 13.79371094 -11.05320312 12.81789063 -11.0625 11.8125 C-11.07410156 10.84957031 -11.08570313 9.88664062 -11.09765625 8.89453125 C-11.00486622 6.14423487 -10.62111685 3.67520409 -10 1 C-6.7 1.33 -3.4 1.66 0 2 C0 1.34 0 0.68 0 0 Z " fill="#979797" transform="translate(68,21)"/>
<path d="M0 0 C2 1 2 1 3.125 3.375 C4 6 4 6 4 9 C3.34 9 2.68 9 2 9 C2 12.63 2 16.26 2 20 C1.67 19.34 1.34 18.68 1 18 C0.236875 18.639375 -0.52625 19.27875 -1.3125 19.9375 C-4 22 -4 22 -7 23 C-7.33 23.66 -7.66 24.32 -8 25 C-7.34 25.33 -6.68 25.66 -6 26 C-6.66 26 -7.32 26 -8 26 C-8.33 27.32 -8.66 28.64 -9 30 C-8.67 30 -8.34 30 -8 30 C-8 31.98 -8 33.96 -8 36 C-7.34 36 -6.68 36 -6 36 C-4.375 37.375 -4.375 37.375 -3 39 C-3 39.66 -3 40.32 -3 41 C-1.02 41 0.96 41 3 41 C3.66 43.97 4.32 46.94 5 50 C3.68 50 2.36 50 1 50 C1 49.34 1 48.68 1 48 C0.01 48.495 0.01 48.495 -1 49 C-1.65772428 52.02934491 -1.65772428 52.02934491 -2 55 C-5.39914975 53.86695008 -6.05254451 52.87481525 -8 50 C-7.34 50 -6.68 50 -6 50 C-5.67 49.01 -5.34 48.02 -5 47 C-4.34 47 -3.68 47 -3 47 C-3.99 47 -4.98 47 -6 47 C-7 44 -7 44 -7 42 C-7.99 41.34 -8.98 40.68 -10 40 C-10.99 40.495 -10.99 40.495 -12 41 C-15 39 -15 39 -15.84375 35.77734375 C-16.28168244 33.21491762 -16.7191816 30.6524174 -17.15625 28.08984375 C-17.4346875 27.07019531 -17.713125 26.05054687 -18 25 C-18.99 24.67 -19.98 24.34 -21 24 C-20.125 19.25 -20.125 19.25 -19 17 C-17.68 17 -16.36 17 -15 17 C-14.67 15.68 -14.34 14.36 -14 13 C-14.66 12.67 -15.32 12.34 -16 12 C-15.67 11.01 -15.34 10.02 -15 9 C-15 9.66 -15 10.32 -15 11 C-13.35 10.67 -11.7 10.34 -10 10 C-9.773125 8.88625 -9.54625 7.7725 -9.3125 6.625 C-8 3 -8 3 -5.5625 1.625 C-4.716875 1.41875 -3.87125 1.2125 -3 1 C-2.01 0.67 -1.02 0.34 0 0 Z " fill="#606060" transform="translate(34,17)"/>
<path d="M0 0 C4.37699724 2.18849862 5.52077247 9.5868893 7 14 C8.24034864 18.74732423 9 23.08738217 9 28 C6.23735711 28.59732819 3.83967231 29 1 29 C0.96261719 29.80824219 0.92523438 30.61648437 0.88671875 31.44921875 C0.82097656 32.51785156 0.75523438 33.58648437 0.6875 34.6875 C0.62949219 35.74324219 0.57148437 36.79898438 0.51171875 37.88671875 C-0.03782064 41.23009964 -1.08674018 43.23526262 -3 46 C-3.763125 45.79375 -4.52625 45.5875 -5.3125 45.375 C-8.21885944 44.66608797 -8.21885944 44.66608797 -11 47 C-11 46.34 -11 45.68 -11 45 C-12.65 45.66 -14.3 46.32 -16 47 C-16 46.01 -16 45.02 -16 44 C-16.66 44 -17.32 44 -18 44 C-17.67 41.36 -17.34 38.72 -17 36 C-15.02 36.33 -13.04 36.66 -11 37 C-11 38.65 -11 40.3 -11 42 C-10.34 42 -9.68 42 -9 42 C-8.09694498 39.0179694 -7.32558798 36.10358866 -7 33 C-8.39092892 30.37612865 -8.39092892 30.37612865 -10 28 C-9.6875 24.1875 -9.6875 24.1875 -9 21 C-8.34 21 -7.68 21 -7 21 C-7 20.34 -7 19.68 -7 19 C-4.36 19.33 -1.72 19.66 1 20 C0.34 18.02 -0.32 16.04 -1 14 C-1.7425 13.95875 -2.485 13.9175 -3.25 13.875 C-6 13 -6 13 -8.4375 10.25 C-10 7 -10 7 -9.25 4.125 C-8.8375 3.42375 -8.425 2.7225 -8 2 C-5.6875 1.6875 -5.6875 1.6875 -3 2 C-1.1875 4.5 -1.1875 4.5 0 7 C0 4.69 0 2.38 0 0 Z " fill="#BEBEBE" transform="translate(100,25)"/>
<path d="M0 0 C0.21105398 5.24911666 -0.49529256 9.79721115 -1.9375 14.8125 C-2.11990234 15.47958984 -2.30230469 16.14667969 -2.49023438 16.83398438 C-3.18054426 19.32161018 -3.84262616 21.68525232 -5 24 C-5.99 24 -6.98 24 -8 24 C-8.33 24.99 -8.66 25.98 -9 27 C-9.99 27 -10.98 27 -12 27 C-12.33 27.99 -12.66 28.98 -13 30 C-15.5625 31.1875 -15.5625 31.1875 -18 32 C-18 31.01 -18 30.02 -18 29 C-18.721875 29.350625 -19.44375 29.70125 -20.1875 30.0625 C-23.37506518 31.12502173 -24.79412881 30.73981643 -28 30 C-30.23167185 30.36856864 -30.23167185 30.36856864 -32 31 C-32 30.34 -32 29.68 -32 29 C-34.31 29.99 -36.62 30.98 -39 32 C-39.33 31.34 -39.66 30.68 -40 30 C-39.01 30 -38.02 30 -37 30 C-36.67 28.35 -36.34 26.7 -36 25 C-35.34 25.33 -34.68 25.66 -34 26 C-33.38125 25.505 -32.7625 25.01 -32.125 24.5 C-30 23 -30 23 -28 23 C-27.67 20.69 -27.34 18.38 -27 16 C-26.34 16 -25.68 16 -25 16 C-24.67 16.66 -24.34 17.32 -24 18 C-23.38125 17.835 -22.7625 17.67 -22.125 17.5 C-20 17 -20 17 -18 17 C-17.34 16.67 -16.68 16.34 -16 16 C-13.875 16.4375 -13.875 16.4375 -12 17 C-10.22263942 13.90580952 -9.68621236 11.4204741 -9.4375 7.875 C-9.09722222 3.19444444 -9.09722222 3.19444444 -8 1 C-5.07175348 0.02391783 -3.04386724 -0.08226668 0 0 Z " fill="#D9D9D9" transform="translate(109,53)"/>
<path d="M0 0 C0.33 0 0.66 0 1 0 C1.03738281 0.58007812 1.07476562 1.16015625 1.11328125 1.7578125 C1.43576099 5.58963063 1.73189075 8.47495271 3.5 11.9375 C5.58204462 16.1883411 5.73189088 20.32195818 6 25 C6.66 25 7.32 25 8 25 C8.2475 25.61875 8.495 26.2375 8.75 26.875 C10.20628639 29.35068687 11.37812506 29.95125002 14 31 C14.33 30.34 14.66 29.68 15 29 C15.66 29.99 16.32 30.98 17 32 C17.33 31.34 17.66 30.68 18 30 C20.5625 29.375 20.5625 29.375 23 29 C26 33.75 26 33.75 26 36 C24.68 36 23.36 36 22 36 C22.66 38.64 23.32 41.28 24 44 C24.66 44 25.32 44 26 44 C26.33 46.31 26.66 48.62 27 51 C26.01 51 25.02 51 24 51 C23.67 51.66 23.34 52.32 23 53 C22.29875 52.071875 21.5975 51.14375 20.875 50.1875 C18.32684378 47.09904705 15.71648553 45.55573813 12 44 C11.67 44.99 11.34 45.98 11 47 C4.71089344 38.32103295 -0.15568028 29.26789325 -0.09765625 18.359375 C-0.09443359 17.28945313 -0.09121094 16.21953125 -0.08789062 15.1171875 C-0.07951172 14.00601563 -0.07113281 12.89484375 -0.0625 11.75 C-0.05798828 10.62335937 -0.05347656 9.49671875 -0.04882812 8.3359375 C-0.03705397 5.55723783 -0.0206084 2.77864591 0 0 Z " fill="#6A6A6A" transform="translate(0,42)"/>
<path d="M0 0 C0.66 0 1.32 0 2 0 C2 0.99 2 1.98 2 3 C2.99 3.33 3.98 3.66 5 4 C4.34 5.32 3.68 6.64 3 8 C1.68 8 0.36 8 -1 8 C-1.66 10.31 -2.32 12.62 -3 15 C-1.68 15.33 -0.36 15.66 1 16 C1.18175781 16.99902344 1.36351562 17.99804688 1.55078125 19.02734375 C1.80214844 20.31769531 2.05351562 21.60804687 2.3125 22.9375 C2.67794922 24.86916016 2.67794922 24.86916016 3.05078125 26.83984375 C3.36402344 27.88269531 3.67726563 28.92554688 4 30 C4.99 30.33 5.98 30.66 7 31 C7.66 30.67 8.32 30.34 9 30 C9 30.66 9 31.32 9 32 C10.32 32.66 11.64 33.32 13 34 C12.01 34.495 12.01 34.495 11 35 C12.65 35.66 14.3 36.32 16 37 C15.34 37.66 14.68 38.32 14 39 C13.34 39.99 12.68 40.98 12 42 C12.99 42.99 13.98 43.98 15 45 C15.66 43.02 16.32 41.04 17 39 C17.66 39 18.32 39 19 39 C19 39.66 19 40.32 19 41 C20.65 41.33 22.3 41.66 24 42 C24 42.99 24 43.98 24 45 C20.535 45.495 20.535 45.495 17 46 C17 47.32 17 48.64 17 50 C16.01 50.495 16.01 50.495 15 51 C14.34786708 53.02463255 14.34786708 53.02463255 14 55 C15.485 55.495 15.485 55.495 17 56 C16.01 56.495 16.01 56.495 15 57 C15 57.66 15 58.32 15 59 C14.34 59 13.68 59 13 59 C12.67 59.66 12.34 60.32 12 61 C9.5625 59.875 9.5625 59.875 7 58 C6.1875 54.8125 6.1875 54.8125 6 52 C7.32 52 8.64 52 10 52 C7.97366931 47.67628107 7.97366931 47.67628107 5 44 C4.375 41.875 4.375 41.875 4 40 C3.01 40 2.02 40 1 40 C1.99 39.505 1.99 39.505 3 39 C2.71890887 37.35232753 2.42481474 35.70686855 2.125 34.0625 C1.96257813 33.14597656 1.80015625 32.22945312 1.6328125 31.28515625 C1.42398437 30.53105469 1.21515625 29.77695312 1 29 C0.34 28.67 -0.32 28.34 -1 28 C-0.67 27.01 -0.34 26.02 0 25 C-0.66 25 -1.32 25 -2 25 C-2.625 23.1875 -2.625 23.1875 -3 21 C-2.34 20.01 -1.68 19.02 -1 18 C-1.99 18 -2.98 18 -4 18 C-5.37302582 13.88092254 -4.74706646 11.27865333 -4 7 C-3.34 6.34 -2.68 5.68 -2 5 C-1.29289322 3.35008418 -0.62056011 1.68437744 0 0 Z " fill="#363636" transform="translate(16,26)"/>
<path d="M0 0 C0.78375 0.639375 1.5675 1.27875 2.375 1.9375 C4.79539281 3.98142313 4.79539281 3.98142313 7 5 C7.33 4.34 7.66 3.68 8 3 C7.67 7.95 7.34 12.9 7 18 C7.66 18 8.32 18 9 18 C9 18.66 9 19.32 9 20 C10.32 20.33 11.64 20.66 13 21 C13 21.66 13 22.32 13 23 C9.37 22.34 5.74 21.68 2 21 C2 21.99 2 22.98 2 24 C0.02 24 -1.96 24 -4 24 C-4.33 26.31 -4.66 28.62 -5 31 C-5.60328125 31.06058594 -6.2065625 31.12117188 -6.828125 31.18359375 C-8.02695312 31.30927734 -8.02695312 31.30927734 -9.25 31.4375 C-10.03890625 31.51871094 -10.8278125 31.59992187 -11.640625 31.68359375 C-13.82364639 31.97634993 -15.8773182 32.42064419 -18 33 C-18.495 31.515 -18.495 31.515 -19 30 C-20.32 30 -21.64 30 -23 30 C-23 28.35 -23 26.7 -23 25 C-22.34 25 -21.68 25 -21 25 C-21 24.34 -21 23.68 -21 23 C-18.36 23 -15.72 23 -13 23 C-12.67 22.34 -12.34 21.68 -12 21 C-8.9375 20.375 -8.9375 20.375 -6 20 C-6 20.66 -6 21.32 -6 22 C-2.87525373 20.36526484 -2.87525373 20.36526484 -2.3125 17.875 C-2.209375 17.25625 -2.10625 16.6375 -2 16 C-2.99 15.67 -3.98 15.34 -5 15 C-4.67 14.01 -4.34 13.02 -4 12 C-1.83125748 12.50603992 -0.00032373 12.99983813 2 14 C2.33 13.01 2.66 12.02 3 11 C0.525 10.505 0.525 10.505 -2 10 C-2.33 7.36 -2.66 4.72 -3 2 C-2.01 1.34 -1.02 0.68 0 0 Z " fill="#BFBFBF" transform="translate(50,20)"/>
<path d="M0 0 C1.32 1.32 2.64 2.64 4 4 C2.74337038 7.87460798 1.60395437 9.9860255 -2 12 C-3.32 12 -4.64 12 -6 12 C-5.54625 12.391875 -5.0925 12.78375 -4.625 13.1875 C-2.72730543 15.30415932 -2.0361081 17.37519282 -1 20 C-0.34 20.33 0.32 20.66 1 21 C1 22.65 1 24.3 1 26 C1.99 26.33 2.98 26.66 4 27 C4 27.99 4 28.98 4 30 C4.66 30.33 5.32 30.66 6 31 C5.67 31.66 5.34 32.32 5 33 C-9.78132118 32.40546697 -9.78132118 32.40546697 -16 29 C-13 27 -13 27 -10 26 C-10.66 25.67 -11.32 25.34 -12 25 C-12.33 24.01 -12.66 23.02 -13 22 C-15.09719872 20.97718482 -15.09719872 20.97718482 -17.5625 20.3125 C-18.38878906 20.06113281 -19.21507812 19.80976562 -20.06640625 19.55078125 C-20.70449219 19.36902344 -21.34257812 19.18726562 -22 19 C-21.67 18.34 -21.34 17.68 -21 17 C-20.34 17 -19.68 17 -19 17 C-19 16.34 -19 15.68 -19 15 C-18.030625 14.87625 -17.06125 14.7525 -16.0625 14.625 C-15.051875 14.41875 -14.04125 14.2125 -13 14 C-12.67 13.34 -12.34 12.68 -12 12 C-11.01 12.33 -10.02 12.66 -9 13 C-9 11.68 -9 10.36 -9 9 C-5.71303767 8.20046862 -4.28976808 7.90341064 -1 9 C-0.67 6.03 -0.34 3.06 0 0 Z " fill="#A1A1A1" transform="translate(50,76)"/>
<path d="M0 0 C0 0.99 0 1.98 0 3 C1.98 3 3.96 3 6 3 C7.00690961 9.00063699 6.99704786 13.24380322 5 19 C5 19.66 5 20.32 5 21 C6.32 21 7.64 21 9 21 C8.67 22.65 8.34 24.3 8 26 C7.01 26.33 6.02 26.66 5 27 C5 26.34 5 25.68 5 25 C4.41992188 25.30035156 3.83984375 25.60070312 3.2421875 25.91015625 C-1.56184572 28.24875328 -4.6426349 29.64842003 -10 28 C-10 28.66 -10 29.32 -10 30 C-10.66 30 -11.32 30 -12 30 C-11.67 30.928125 -11.34 31.85625 -11 32.8125 C-10 36 -10 36 -10 39 C-10.99 38.67 -11.98 38.34 -13 38 C-14.23082534 32.30743279 -13.68888258 28.59442354 -12 23 C-11.4225 22.87625 -10.845 22.7525 -10.25 22.625 C-7.86823742 21.96339928 -6.07240073 21.3589513 -4 20 C-3.3006486 17.81458448 -3.3006486 17.81458448 -3.25 15.375 C-3.19328125 14.55773438 -3.1365625 13.74046875 -3.078125 12.8984375 C-3.05234375 12.27195312 -3.0265625 11.64546875 -3 11 C-2.34 11 -1.68 11 -1 11 C-1.99 7.7 -2.98 4.4 -4 1 C-2 0 -2 0 0 0 Z " fill="#7A7A7A" transform="translate(39,15)"/>
<path d="M0 0 C1.09570312 0.00902344 2.19140625 0.01804688 3.3203125 0.02734375 C4.16335937 0.03894531 5.00640625 0.05054688 5.875 0.0625 C5.875 0.7225 5.875 1.3825 5.875 2.0625 C3.565 2.3925 1.255 2.7225 -1.125 3.0625 C-0.67213018 6.36198015 -0.22273702 9.62268343 0.5 12.875 C0.875 15.0625 0.875 15.0625 -0.125 17.0625 C0.865 17.3925 1.855 17.7225 2.875 18.0625 C2.875 18.7225 2.875 19.3825 2.875 20.0625 C3.865 19.7325 4.855 19.4025 5.875 19.0625 C5.875 20.3825 5.875 21.7025 5.875 23.0625 C4.225 23.7225 2.575 24.3825 0.875 25.0625 C0.875 25.7225 0.875 26.3825 0.875 27.0625 C1.535 27.0625 2.195 27.0625 2.875 27.0625 C1.76631683 29.27986634 0.38059539 31.09867993 -1.125 33.0625 C-4.04017292 31.98848892 -5.90310176 31.28439824 -8.125 29.0625 C-7.72967975 26.61151444 -6.91198574 24.42345721 -6.125 22.0625 C-7.445 22.0625 -8.765 22.0625 -10.125 22.0625 C-10.125 20.4125 -10.125 18.7625 -10.125 17.0625 C-11.115 16.7325 -12.105 16.4025 -13.125 16.0625 C-12.465 14.0825 -11.805 12.1025 -11.125 10.0625 C-8.815 10.0625 -6.505 10.0625 -4.125 10.0625 C-4.87650023 6.78476496 -4.87650023 6.78476496 -8.125 5.0625 C-8.125 3.7425 -8.125 2.4225 -8.125 1.0625 C-5.36047967 -0.31976016 -3.0788637 -0.03275387 0 0 Z " fill="#C3C3C3" transform="translate(58.125,46.9375)"/>
<path d="M0 0 C0.66 0.66 1.32 1.32 2 2 C1.34 2 0.68 2 0 2 C0 2.66 0 3.32 0 4 C1.32 3.67 2.64 3.34 4 3 C3.67 4.65 3.34 6.3 3 8 C3.99 8 4.98 8 6 8 C6.20625 7.195625 6.4125 6.39125 6.625 5.5625 C8 3 8 3 10.875 2.0625 C14.01685311 1.99966294 15.41234561 2.30807213 18 4 C17.01 4.495 17.01 4.495 16 5 C16 5.99 16 6.98 16 8 C16.66 8 17.32 8 18 8 C17.67 9.65 17.34 11.3 17 13 C15.02 13.66 13.04 14.32 11 15 C10.67 18.63 10.34 22.26 10 26 C9.34 26 8.68 26 8 26 C8 25.34 8 24.68 8 24 C7.01 23.67 6.02 23.34 5 23 C5 21.68 5 20.36 5 19 C3.02 18.67 1.04 18.34 -1 18 C-1.53341184 16.42085985 -2.05125763 14.83645613 -2.5625 13.25 C-2.85253906 12.36828125 -3.14257812 11.4865625 -3.44140625 10.578125 C-4.01697435 7.92165684 -3.89248371 6.52968894 -3 4 C-2.34 4 -1.68 4 -1 4 C-1.33 3.01 -1.66 2.02 -2 1 C-1.34 0.67 -0.68 0.34 0 0 Z " fill="#949494" transform="translate(72,36)"/>
<path d="M0 0 C1.79920898 0.02030273 1.79920898 0.02030273 3.63476562 0.04101562 C6.56948879 0.076092 9.50324882 0.12524573 12.4375 0.1875 C11.4475 1.8375 10.4575 3.4875 9.4375 5.1875 C10.4275 6.1775 11.4175 7.1675 12.4375 8.1875 C9.66658549 8.2149348 6.89599614 8.23602583 4.125 8.25 C3.30572021 8.25475342 2.48644043 8.25950684 1.64233398 8.2644043 C-3.81195304 8.26709087 -9.09712708 7.94974088 -14.49609375 7.11328125 C-16.65874284 6.9731979 -16.65874284 6.9731979 -18.16796875 8.59375 C-18.62816406 9.1196875 -19.08835937 9.645625 -19.5625 10.1875 C-23.35530344 11.75409272 -26.46601794 12.42846953 -30.5625 12.1875 C-30.5625 11.1975 -30.5625 10.2075 -30.5625 9.1875 C-28.93185236 8.12978261 -27.25969127 7.13476954 -25.5625 6.1875 C-24.85565063 5.45043823 -24.85565063 5.45043823 -24.13452148 4.69848633 C-17.95422317 -1.24185631 -7.87854172 -0.17004047 0 0 Z " fill="#D2D2D2" transform="translate(54.5625,-0.1875)"/>
<path d="M0 0 C0.33 0 0.66 0 1 0 C1.33 1.65 1.66 3.3 2 5 C2.99 5.33 3.98 5.66 5 6 C4.01 6.66 3.02 7.32 2 8 C2.33 8.99 2.66 9.98 3 11 C3.66 11 4.32 11 5 11 C5.33 10.01 5.66 9.02 6 8 C8.02054804 9.64169528 10.02043058 11.30911778 12 13 C12 13.33 12 13.66 12 14 C9.69 14 7.38 14 5 14 C4.67 14.99 4.34 15.98 4 17 C3.67 16.01 3.34 15.02 3 14 C2.34 13.67 1.68 13.34 1 13 C1 13.66 1 14.32 1 15 C-2.3 15 -5.6 15 -9 15 C-9.33 15.66 -9.66 16.32 -10 17 C-11.65 16.67 -13.3 16.34 -15 16 C-15.33 15.01 -15.66 14.02 -16 13 C-17.2684375 12.071875 -17.2684375 12.071875 -18.5625 11.125 C-21 9 -21 9 -21.3125 6.25 C-21.209375 5.5075 -21.10625 4.765 -21 4 C-20.113125 4.20625 -19.22625 4.4125 -18.3125 4.625 C-14.68284965 5.03590381 -13.29158027 4.3503919 -10 3 C-8.32577014 3.29299023 -6.65821773 3.62690101 -5 4 C-2.27497035 3.62277985 -2.27497035 3.62277985 0 3 C0 2.01 0 1.02 0 0 Z " fill="#DEDEDE" transform="translate(67,8)"/>
<path d="M0 0 C1.65 0 3.3 0 5 0 C5.12375 0.804375 5.2475 1.60875 5.375 2.4375 C5.58125 3.283125 5.7875 4.12875 6 5 C6.66 5.33 7.32 5.66 8 6 C8.59765625 7.9609375 8.59765625 7.9609375 9.0625 10.375 C9.58410686 13.02183151 10.14392083 15.4317625 11 18 C10.35134 20.51355749 9.45142223 21.69523799 7.3046875 23.14453125 C5.56222547 24.14274331 3.78272986 25.07562156 2 26 C2 25.34 2 24.68 2 24 C2.66 24 3.32 24 4 24 C4.33 22.35 4.66 20.7 5 19 C4.21625 19.495 3.4325 19.99 2.625 20.5 C0 22 0 22 -2 22 C-2 22.66 -2 23.32 -2 24 C-3.65 24.66 -5.3 25.32 -7 26 C-7 19 -7 19 -5 17 C-3.33382885 16.95936168 -1.66611905 16.957279 0 17 C0 15.35 0 13.7 0 12 C-0.99 12.33 -1.98 12.66 -3 13 C-2.625 11.0625 -2.625 11.0625 -2 9 C-1.34 8.67 -0.68 8.34 0 8 C-0.185625 7.4225 -0.37125 6.845 -0.5625 6.25 C-1.04023546 3.79307475 -0.75729364 2.35602466 0 0 Z " fill="#E3E3E3" transform="translate(72,54)"/>
<path d="M0 0 C0.99 0.33 1.98 0.66 3 1 C3.66 0.67 4.32 0.34 5 0 C4.938125 0.78375 4.87625 1.5675 4.8125 2.375 C4.874375 3.24125 4.93625 4.1075 5 5 C5.99 5.66 6.98 6.32 8 7 C8.1875 9.625 8.1875 9.625 8 12 C9.32 11.67 10.64 11.34 12 11 C12 12.98 12 14.96 12 17 C12.66 17 13.32 17 14 17 C15.625 18.375 15.625 18.375 17 20 C17 20.66 17 21.32 17 22 C18.98 22 20.96 22 23 22 C23.66 24.97 24.32 27.94 25 31 C23.68 31 22.36 31 21 31 C21 30.34 21 29.68 21 29 C20.34 29.33 19.68 29.66 19 30 C18.34227572 33.02934491 18.34227572 33.02934491 18 36 C14.60085025 34.86695008 13.94745549 33.87481525 12 31 C12.66 31 13.32 31 14 31 C14.33 30.01 14.66 29.02 15 28 C15.66 28 16.32 28 17 28 C16.01 28 15.02 28 14 28 C13 25 13 25 13 23 C12.01 22.34 11.02 21.68 10 21 C9.34 21.33 8.68 21.66 8 22 C5 20 5 20 4.15625 16.77734375 C3.71831756 14.21491762 3.2808184 11.6524174 2.84375 9.08984375 C2.5653125 8.07019531 2.286875 7.05054688 2 6 C1.01 5.67 0.02 5.34 -1 5 C-0.67 3.35 -0.34 1.7 0 0 Z " fill="#666666" transform="translate(14,36)"/>
<path d="M0 0 C9.27632801 3.72807509 17.32399135 8.4680928 24 16 C24 16.66 24 17.32 24 18 C24.66 18 25.32 18 26 18 C28.21854707 22.62197306 29.38281159 25.76824163 29 31 C27.33333333 29.33333333 25.66666667 27.66666667 24 26 C21.93125966 25.3574765 21.93125966 25.3574765 20 25 C19.67 25.99 19.34 26.98 19 28 C18.34 28 17.68 28 17 28 C17.02320312 27.443125 17.04640625 26.88625 17.0703125 26.3125 C17.19993277 20.83141448 16.68192907 16.23266821 15 11 C14.34 10.67 13.68 10.34 13 10 C13 10.66 13 11.32 13 12 C11.68 12 10.36 12 9 12 C8.67 12.66 8.34 13.32 8 14 C7.34 13.34 6.68 12.68 6 12 C6 11.01 6 10.02 6 9 C5.34 9 4.68 9 4 9 C3.67 8.01 3.34 7.02 3 6 C2.01 5.67 1.02 5.34 0 5 C-0.33 4.01 -0.66 3.02 -1 2 C-0.67 1.34 -0.34 0.68 0 0 Z " fill="#DBDBDB" transform="translate(72,2)"/>
<path d="M0 0 C0.33 0 0.66 0 1 0 C1.03738281 0.58007812 1.07476562 1.16015625 1.11328125 1.7578125 C1.43576099 5.58963063 1.73189075 8.47495271 3.5 11.9375 C5.58204462 16.1883411 5.73189088 20.32195818 6 25 C6.66 25 7.32 25 8 25 C8.2475 25.61875 8.495 26.2375 8.75 26.875 C10.20628639 29.35068687 11.37812506 29.95125002 14 31 C14.33 30.34 14.66 29.68 15 29 C15.66 29.99 16.32 30.98 17 32 C17.33 31.34 17.66 30.68 18 30 C19.32 30.33 20.64 30.66 22 31 C21.67 32.32 21.34 33.64 21 35 C19.68 35 18.36 35 17 35 C17 36.32 17 37.64 17 39 C15.125 38.6875 15.125 38.6875 13 38 C11 35 11 35 11 32 C10.67 32 10.34 32 10 32 C10 33.65 10 35.3 10 37 C7.6875 37.3125 7.6875 37.3125 5 37 C-0.92834073 29.9738184 -0.25907427 20.12200672 -0.125 11.5 C-0.11597656 10.39140625 -0.10695312 9.2828125 -0.09765625 8.140625 C-0.07426167 5.42685408 -0.04148175 2.71354455 0 0 Z " fill="#666666" transform="translate(0,42)"/>
<path d="M0 0 C-3.75 3 -3.75 3 -6 3 C-6 3.99 -6 4.98 -6 6 C-5.01 5.71125 -4.02 5.4225 -3 5.125 C10.01414779 1.42972635 10.01414779 1.42972635 17 2 C17 2.99 17 3.98 17 5 C15.41913952 5.36504603 13.83516093 5.71660506 12.25 6.0625 C11.36828125 6.25972656 10.4865625 6.45695313 9.578125 6.66015625 C6.98298166 7.00224333 5.47896432 6.68385223 3 6 C0.78228936 6.85790183 0.78228936 6.85790183 -1 8 C0.25541557 10.51083114 1.50063488 10.87125446 4 12 C2.906875 12.185625 1.81375 12.37125 0.6875 12.5625 C-3.33428457 13.6368858 -3.33428457 13.6368858 -4.625 17.5625 C-5.07875 18.696875 -5.5325 19.83125 -6 21 C-8.6875 21.9375 -8.6875 21.9375 -11 22 C-10.505 17.545 -10.505 17.545 -10 13 C-8.68 13 -7.36 13 -6 13 C-6 11.68 -6 10.36 -6 9 C-7.65 9.33 -9.3 9.66 -11 10 C-10.92734555 6.87585852 -10.72621016 4.73927821 -8.48046875 2.453125 C-3.60430169 -1.2014339 -3.60430169 -1.2014339 0 0 Z " fill="#8B8B8B" transform="translate(30,6)"/>
<path d="M0 0 C2.31 0 4.62 0 7 0 C7.66 1.98 8.32 3.96 9 6 C6.03 5.67 3.06 5.34 0 5 C0 5.66 0 6.32 0 7 C-0.66 7 -1.32 7 -2 7 C-1.45773019 10.79588866 0.20127563 12.47211993 3 15 C2.67 15.66 2.34 16.32 2 17 C-0.31 16.67 -2.62 16.34 -5 16 C-5 16.66 -5 17.32 -5 18 C-4.34 18.33 -3.68 18.66 -3 19 C-4.47968324 18.85950482 -5.95874516 18.71245174 -7.4375 18.5625 C-8.26121094 18.48128906 -9.08492187 18.40007813 -9.93359375 18.31640625 C-12 18 -12 18 -13 17 C-13.04080783 15.00041636 -13.04254356 12.99954746 -13 11 C-11.68 11.33 -10.36 11.66 -9 12 C-7.39644899 8.49223216 -6.77963136 5.85645121 -7 2 C-4.69 2.33 -2.38 2.66 0 3 C0 2.01 0 1.02 0 0 Z " fill="#949494" transform="translate(52,41)"/>
<path d="M0 0 C0.66 0 1.32 0 2 0 C3.38232443 1.62626404 4.71937515 3.2925002 6 5 C5.34 5 4.68 5 4 5 C4 5.66 4 6.32 4 7 C3.34 7 2.68 7 2 7 C1.63467789 12.02559267 1.63467789 12.02559267 3.625 16.5 C5 19 5 19 4.25 22.6875 C3 26 3 26 2 28 C1.34 28 0.68 28 0 28 C0 26.35 0 24.7 0 23 C-1.65 23 -3.3 23 -5 23 C-5.66 25.31 -6.32 27.62 -7 30 C-7.33 30 -7.66 30 -8 30 C-8.33 27.69 -8.66 25.38 -9 23 C-8.34 23 -7.68 23 -7 23 C-7.309375 21.700625 -7.309375 21.700625 -7.625 20.375 C-8.05549735 16.50052388 -7.80586246 14.4546934 -6 11 C-4.02111039 10.27306096 -2.02045442 9.60183749 0 9 C0.96877057 6.96756452 0.96877057 6.96756452 1 5 C0.34 5 -0.32 5 -1 5 C-0.67 3.35 -0.34 1.7 0 0 Z " fill="#D6D6D6" transform="translate(89,39)"/>
<path d="M0 0 C3.66881155 0.70554068 6.70450534 2.27735506 10 4 C10 4.99 10 5.98 10 7 C10.99 7.33 11.98 7.66 13 8 C14.6875 9.5625 14.6875 9.5625 16 11 C16 10.34 16 9.68 16 9 C20.27788797 8.63332389 22.58511082 9.39390036 26 12 C27.8125 14.6875 27.8125 14.6875 29 17 C25.03536109 18.58968613 21.65508351 19.59352916 17.52734375 18.11328125 C11.15436226 14.4268498 4.79038418 9.60576872 0 4 C0 2.68 0 1.36 0 0 Z " fill="#626262" transform="translate(12,86)"/>
<path d="M0 0 C0 0.66 0 1.32 0 2 C2.64 2 5.28 2 8 2 C8 2.66 8 3.32 8 4 C6.02 4 4.04 4 2 4 C1.67 6.31 1.34 8.62 1 11 C0.39671875 11.06058594 -0.2065625 11.12117188 -0.828125 11.18359375 C-1.62734375 11.26738281 -2.4265625 11.35117187 -3.25 11.4375 C-4.03890625 11.51871094 -4.8278125 11.59992187 -5.640625 11.68359375 C-7.82364639 11.97634993 -9.8773182 12.42064419 -12 13 C-12.33 12.01 -12.66 11.02 -13 10 C-14.32 10 -15.64 10 -17 10 C-17 8.35 -17 6.7 -17 5 C-16.34 5 -15.68 5 -15 5 C-15 4.34 -15 3.68 -15 3 C-12.36 3 -9.72 3 -7 3 C-6.67 2.34 -6.34 1.68 -6 1 C-3.911361 0.32624548 -2.19636905 0 0 0 Z " fill="#AFAFAF" transform="translate(44,40)"/>
<path d="M0 0 C0.66 0 1.32 0 2 0 C2 0.99 2 1.98 2 3 C2.99 3.33 3.98 3.66 5 4 C4.34 5.32 3.68 6.64 3 8 C1.68 8 0.36 8 -1 8 C-1.66 10.31 -2.32 12.62 -3 15 C-1.68 15.33 -0.36 15.66 1 16 C1.18175781 16.99902344 1.36351562 17.99804688 1.55078125 19.02734375 C1.80214844 20.31769531 2.05351562 21.60804687 2.3125 22.9375 C2.67794922 24.86916016 2.67794922 24.86916016 3.05078125 26.83984375 C3.36402344 27.88269531 3.67726563 28.92554688 4 30 C4.99 30.33 5.98 30.66 7 31 C7.66 30.67 8.32 30.34 9 30 C9 30.66 9 31.32 9 32 C10.32 32.66 11.64 33.32 13 34 C12.01 34.495 12.01 34.495 11 35 C12.65 35.66 14.3 36.32 16 37 C14.66666667 38.33333333 13.33333333 39.66666667 12 41 C11.01 41 10.02 41 9 41 C8.67 39.35 8.34 37.7 8 36 C6.35 35.67 4.7 35.34 3 35 C2.71125 34.030625 2.4225 33.06125 2.125 32.0625 C1.35785318 28.89335797 1.35785318 28.89335797 -1 28 C-0.67 27.01 -0.34 26.02 0 25 C-0.66 25 -1.32 25 -2 25 C-2.625 23.1875 -2.625 23.1875 -3 21 C-2.34 20.01 -1.68 19.02 -1 18 C-1.99 18 -2.98 18 -4 18 C-5.37302582 13.88092254 -4.74706646 11.27865333 -4 7 C-3.34 6.34 -2.68 5.68 -2 5 C-1.29289322 3.35008418 -0.62056011 1.68437744 0 0 Z " fill="#4B4B4B" transform="translate(16,26)"/>
<path d="M0 0 C0.99 0.66 1.98 1.32 3 2 C3 2.66 3 3.32 3 4 C3.99 4.33 4.98 4.66 6 5 C7.16796875 6.9609375 7.16796875 6.9609375 8.1875 9.375 C8.53167969 10.16648437 8.87585938 10.95796875 9.23046875 11.7734375 C10 14 10 14 10 17 C9.195625 17.12375 8.39125 17.2475 7.5625 17.375 C6.716875 17.58125 5.87125 17.7875 5 18 C4.67 18.66 4.34 19.32 4 20 C1.69 19.01 -0.62 18.02 -3 17 C0 15 0 15 3 14 C2.34 13.67 1.68 13.34 1 13 C0.67 12.01 0.34 11.02 0 10 C-2.09719872 8.97718482 -2.09719872 8.97718482 -4.5625 8.3125 C-5.38878906 8.06113281 -6.21507812 7.80976562 -7.06640625 7.55078125 C-7.70449219 7.36902344 -8.34257812 7.18726562 -9 7 C-8.67 6.34 -8.34 5.68 -8 5 C-7.34 5 -6.68 5 -6 5 C-6 4.34 -6 3.68 -6 3 C-4.02 2.67 -2.04 2.34 0 2 C0 1.34 0 0.68 0 0 Z " fill="#8B8B8B" transform="translate(37,88)"/>
<path d="M0 0 C0.20352339 5.2305512 -0.46935673 9.80302665 -1.875 14.8125 C-2.04902344 15.47958984 -2.22304687 16.14667969 -2.40234375 16.83398438 C-3.22755675 19.86282173 -3.74435162 21.74435162 -6 24 C-7.04449911 20.86650268 -6.93423645 20.01031744 -6 17 C-6.99 16.67 -7.98 16.34 -9 16 C-9.02693575 13.87506859 -9.04636628 11.75004088 -9.0625 9.625 C-9.07410156 8.44164062 -9.08570312 7.25828125 -9.09765625 6.0390625 C-9 3 -9 3 -8 1 C-5.07175348 0.02391783 -3.04386724 -0.08226668 0 0 Z " fill="#D3D3D3" transform="translate(109,53)"/>
<path d="M0 0 C2.31 0 4.62 0 7 0 C8.00690961 6.00063699 7.99704786 10.24380322 6 16 C6 16.66 6 17.32 6 18 C7.32 18 8.64 18 10 18 C9.67 19.65 9.34 21.3 9 23 C8.01 23.33 7.02 23.66 6 24 C6 23.34 6 22.68 6 22 C4.02 22.66 2.04 23.32 0 24 C-0.33 22.68 -0.66 21.36 -1 20 C0.32 20.33 1.64 20.66 3 21 C2.443125 19.700625 2.443125 19.700625 1.875 18.375 C0.85559952 14.44302674 1.42687504 12.67062491 3 9 C2.34 9 1.68 9 1 9 C0.875 3.25 0.875 3.25 2 1 C1.34 0.67 0.68 0.34 0 0 Z " fill="#888888" transform="translate(38,18)"/>
<path d="M0 0 C0.66 0 1.32 0 2 0 C2 0.99 2 1.98 2 3 C2.66 3.33 3.32 3.66 4 4 C4 6.31 4 8.62 4 11 C3.34 11 2.68 11 2 11 C1.67 11.99 1.34 12.98 1 14 C0.01 14 -0.98 14 -2 14 C-2.33 14.99 -2.66 15.98 -3 17 C-5.5625 18.1875 -5.5625 18.1875 -8 19 C-8 17.02 -8 15.04 -8 13 C-8.66 12.67 -9.32 12.34 -10 12 C-9.4375 9.1875 -9.4375 9.1875 -8 6 C-4.4375 4.3125 -4.4375 4.3125 -1 3 C-0.67 2.01 -0.34 1.02 0 0 Z " fill="#E6E6E6" transform="translate(99,66)"/>
<path d="M0 0 C3.73639216 1.24546405 4.18756513 2.63404953 6 6 C5.34 6.66 4.68 7.32 4 8 C4.99 8.33 5.98 8.66 7 9 C7 9.66 7 10.32 7 11 C6.195625 11.12375 5.39125 11.2475 4.5625 11.375 C3.716875 11.58125 2.87125 11.7875 2 12 C1.67 12.66 1.34 13.32 1 14 C0.01 13.67 -0.98 13.34 -2 13 C-2 13.66 -2 14.32 -2 15 C-2.99 15.495 -2.99 15.495 -4 16 C-4.33 16.99 -4.66 17.98 -5 19 C-5.99 18.67 -6.98 18.34 -8 18 C-8.33 17.01 -8.66 16.02 -9 15 C-8.01 15 -7.02 15 -6 15 C-6.25561323 12.6568787 -6.59270772 10.32156597 -7 8 C-7.66 7.67 -8.32 7.34 -9 7 C-8.401875 7.185625 -7.80375 7.37125 -7.1875 7.5625 C-4.83591238 8.22093687 -4.83591238 8.22093687 -2 7 C-1.67 6.01 -1.34 5.02 -1 4 C-1.66 3.34 -2.32 2.68 -3 2 C-2.01 2 -1.02 2 0 2 C0 1.34 0 0.68 0 0 Z " fill="#5A5A5A" transform="translate(33,78)"/>
<path d="M0 0 C0.33 0.66 0.66 1.32 1 2 C-1.31 2.33 -3.62 2.66 -6 3 C-5.54713018 6.29948015 -5.09773702 9.56018343 -4.375 12.8125 C-4 15 -4 15 -5 17 C-4.01 17.33 -3.02 17.66 -2 18 C-2 18.66 -2 19.32 -2 20 C-1.01 19.67 -0.02 19.34 1 19 C1 20.32 1 21.64 1 23 C0.030625 23.28875 -0.93875 23.5775 -1.9375 23.875 C-5.10664203 24.64214682 -5.10664203 24.64214682 -6 27 C-7.32 26.67 -8.64 26.34 -10 26 C-9 23 -9 23 -8 21 C-8.66 20.67 -9.32 20.34 -10 20 C-9.01 19.34 -8.02 18.68 -7 18 C-7.66 17.34 -8.32 16.68 -9 16 C-8.67 15.34 -8.34 14.68 -8 14 C-8.99 13.67 -9.98 13.34 -11 13 C-10.01 12.34 -9.02 11.68 -8 11 C-7.27034634 8.43717258 -7.27034634 8.43717258 -7 6 C-7.66 6 -8.32 6 -9 6 C-9 4.35 -9 2.7 -9 1 C-4.545 0.505 -4.545 0.505 0 0 Z " fill="#C9C9C9" transform="translate(63,47)"/>
<path d="M0 0 C0.93065133 2.60582371 1.14917407 3.64198224 0.0625 6.25 C-0.288125 6.8275 -0.63875 7.405 -1 8 C-0.34 8.66 0.32 9.32 1 10 C-1 11 -1 11 -2.9375 10.4375 C-3.9584375 10.2209375 -3.9584375 10.2209375 -5 10 C-5.99 10.66 -6.98 11.32 -8 12 C-8 11.34 -8 10.68 -8 10 C-9.65 10.66 -11.3 11.32 -13 12 C-13 11.01 -13 10.02 -13 9 C-13.66 9 -14.32 9 -15 9 C-14.67 6.36 -14.34 3.72 -14 1 C-11.03 1.495 -11.03 1.495 -8 2 C-8 3.65 -8 5.3 -8 7 C-7.34 7 -6.68 7 -6 7 C-5.62875 5.5459375 -5.62875 5.5459375 -5.25 4.0625 C-4.8375 3.051875 -4.425 2.04125 -4 1 C-1.875 0.125 -1.875 0.125 0 0 Z M1 5 C2 9 2 9 2 9 Z " fill="#C7C7C7" transform="translate(97,60)"/>
<path d="M0 0 C0.66 0 1.32 0 2 0 C2 0.99 2 1.98 2 3 C2.99 3 3.98 3 5 3 C5.33 5.97 5.66 8.94 6 12 C3.36 12.99 0.72 13.98 -2 15 C-2.99 13.68 -3.98 12.36 -5 11 C-4.34 10.34 -3.68 9.68 -3 9 C-2.01 9.66 -1.02 10.32 0 11 C0 10.34 0 9.68 0 9 C-0.99 8.67 -1.98 8.34 -3 8 C-3 7.01 -3 6.02 -3 5 C-3.66 5 -4.32 5 -5 5 C-5 5.99 -5 6.98 -5 8 C-6.32 8.33 -7.64 8.66 -9 9 C-8.67 7.02 -8.34 5.04 -8 3 C-6.02 3.495 -6.02 3.495 -4 4 C-4 3.01 -4 2.02 -4 1 C-2.68 1.33 -1.36 1.66 0 2 C0 1.34 0 0.68 0 0 Z " fill="#5A5A5A" transform="translate(45,69)"/>
<path d="M0 0 C2.38564077 0.57584432 4.66682784 1.22227595 7 2 C7.6875 4.0625 7.6875 4.0625 8 6 C7.34 6 6.68 6 6 6 C5.855625 7.258125 5.71125 8.51625 5.5625 9.8125 C5.26251314 12.42667123 4.84186703 14.47439892 4 17 C2.125 16.875 2.125 16.875 0 16 C-1.1875 13.25 -1.1875 13.25 -2 10 C-2.226875 9.113125 -2.45375 8.22625 -2.6875 7.3125 C-3 5 -3 5 -2 2 C-1.34 2 -0.68 2 0 2 C0 1.34 0 0.68 0 0 Z " fill="#949494" transform="translate(93,44)"/>
<path d="M0 0 C0.33 0 0.66 0 1 0 C1.33 1.65 1.66 3.3 2 5 C2.99 5.33 3.98 5.66 5 6 C4.01 6.66 3.02 7.32 2 8 C2.33 8.99 2.66 9.98 3 11 C3.66 11 4.32 11 5 11 C5.33 10.01 5.66 9.02 6 8 C8.02054804 9.64169528 10.02043058 11.30911778 12 13 C12 13.33 12 13.66 12 14 C9.69 14 7.38 14 5 14 C4.67 14.99 4.34 15.98 4 17 C3.67 16.01 3.34 15.02 3 14 C2.34 13.67 1.68 13.34 1 13 C1 13.66 1 14.32 1 15 C-1.97 14.67 -4.94 14.34 -8 14 C-6.68 13.67 -5.36 13.34 -4 13 C-4.33 10.03 -4.66 7.06 -5 4 C-3.35 3.67 -1.7 3.34 0 3 C0 2.01 0 1.02 0 0 Z " fill="#CFCFCF" transform="translate(67,8)"/>
<path d="M0 0 C0.99 0.33 1.98 0.66 3 1 C4 4 4 4 4 6 C7.05055828 8.13811451 10.20813091 10.06637736 13.375 12.02734375 C14.24125 12.67832031 15.1075 13.32929687 16 14 C16 14.99 16 15.98 16 17 C12.75791433 16.64950425 11.38472296 16.43778819 9.1875 13.9375 C8.795625 13.298125 8.40375 12.65875 8 12 C6.35 12.33 4.7 12.66 3 13 C2.67 13.99 2.34 14.98 2 16 C0.99723227 14.52270825 -0.00214454 13.04311423 -1 11.5625 C-1.8353125 10.32693359 -1.8353125 10.32693359 -2.6875 9.06640625 C-4 7 -4 7 -4 6 C-2.35 6 -0.7 6 1 6 C0.67 4.02 0.34 2.04 0 0 Z " fill="#6F6F6F" transform="translate(9,73)"/>
<path d="M0 0 C0.99 0.33 1.98 0.66 3 1 C2.01 1.495 2.01 1.495 1 2 C1 2.99 1 3.98 1 5 C1.66 5 2.32 5 3 5 C2.67 6.65 2.34 8.3 2 10 C0.02 10.66 -1.96 11.32 -4 12 C-4.33 15.63 -4.66 19.26 -5 23 C-5.66 23 -6.32 23 -7 23 C-7 22.34 -7 21.68 -7 21 C-7.99 20.67 -8.98 20.34 -10 20 C-10 18.68 -10 17.36 -10 16 C-12.97 15.505 -12.97 15.505 -16 15 C-16.33 14.01 -16.66 13.02 -17 12 C-12.545 12.99 -12.545 12.99 -8 14 C-7.67 12.68 -7.34 11.36 -7 10 C-5.68 10 -4.36 10 -3 10 C-3 8.68 -3 7.36 -3 6 C-2.01 6 -1.02 6 0 6 C-0.66 4.68 -1.32 3.36 -2 2 C-1.34 1.34 -0.68 0.68 0 0 Z " fill="#A8A8A8" transform="translate(87,39)"/>
<path d="M0 0 C1.32 0 2.64 0 4 0 C4 0.66 4 1.32 4 2 C4.804375 2.268125 5.60875 2.53625 6.4375 2.8125 C7.7059375 3.4003125 7.7059375 3.4003125 9 4 C9.33 4.99 9.66 5.98 10 7 C9.01 7.495 9.01 7.495 8 8 C8.18129815 11.43793339 8.18129815 11.43793339 9 15 C10.93597032 16.51294288 10.93597032 16.51294288 13 17 C12.67 18.32 12.34 19.64 12 21 C11.01 20.34 10.02 19.68 9 19 C8.01 19 7.02 19 6 19 C6 19.99 6 20.98 6 22 C5.34 22 4.68 22 4 22 C2.62782185 18.29511898 3.56006778 16.5574796 5 13 C5.33397787 9.87413125 5.33397787 9.87413125 5 7 C2.8614515 4.8614515 1.86724686 4.57344937 -1 4 C-0.67 2.68 -0.34 1.36 0 0 Z " fill="#A7A7A7" transform="translate(40,14)"/>
<path d="M0 0 C0.99 0.33 1.98 0.66 3 1 C3.66 0.67 4.32 0.34 5 0 C4.938125 0.78375 4.87625 1.5675 4.8125 2.375 C4.874375 3.24125 4.93625 4.1075 5 5 C5.99 5.66 6.98 6.32 8 7 C8.1875 9.625 8.1875 9.625 8 12 C9.32 11.67 10.64 11.34 12 11 C12 12.98 12 14.96 12 17 C12.66 17.33 13.32 17.66 14 18 C11.13275314 17.42655063 10.1385485 17.1385485 8 15 C7.34 15 6.68 15 6 15 C6.33 16.98 6.66 18.96 7 21 C6.34 20.67 5.68 20.34 5 20 C4.13969913 16.39664558 3.52243048 12.77286306 2.87890625 9.125 C2.58886719 8.09375 2.29882812 7.0625 2 6 C1.01 5.67 0.02 5.34 -1 5 C-0.67 3.35 -0.34 1.7 0 0 Z " fill="#676767" transform="translate(14,36)"/>
<path d="M0 0 C5.37732887 2.24652851 10.260128 4.59701497 15 8 C14.34 9.32 13.68 10.64 13 12 C11.68 12 10.36 12 9 12 C8.67 12.66 8.34 13.32 8 14 C7.34 13.34 6.68 12.68 6 12 C6 11.01 6 10.02 6 9 C5.34 9 4.68 9 4 9 C3.67 8.01 3.34 7.02 3 6 C2.01 5.67 1.02 5.34 0 5 C-0.33 4.01 -0.66 3.02 -1 2 C-0.67 1.34 -0.34 0.68 0 0 Z " fill="#D5D5D5" transform="translate(72,2)"/>
<path d="M0 0 C2 1.8125 2 1.8125 4 4 C4 4.99 4 5.98 4 7 C3.01 7.33 2.02 7.66 1 8 C0.67 8.66 0.34 9.32 0 10 C0.66 10.33 1.32 10.66 2 11 C1.34 11 0.68 11 0 11 C-0.66 12.65 -1.32 14.3 -2 16 C-2.66 16 -3.32 16 -4 16 C-4 14.35 -4 12.7 -4 11 C-5.32 10.34 -6.64 9.68 -8 9 C-7.01 6.36 -6.02 3.72 -5 1 C-4.67 1.99 -4.34 2.98 -4 4 C-2.68 4 -1.36 4 0 4 C0 2.68 0 1.36 0 0 Z " fill="#5A5A5A" transform="translate(26,32)"/>
<path d="M0 0 C0.66 0 1.32 0 2 0 C1.25 2.9375 1.25 2.9375 0 6 C-1.32303717 6.3721042 -2.65737935 6.70630173 -4 7 C-4.28875 7.763125 -4.5775 8.52625 -4.875 9.3125 C-6.42081713 13.00528536 -8.56079443 14.07404488 -12 16 C-13.3242287 16.36784131 -14.65613912 16.71202981 -16 17 C-16.66 17.66 -17.32 18.32 -18 19 C-18.99 19 -19.98 19 -21 19 C-21 18.34 -21 17.68 -21 17 C-20.34 17 -19.68 17 -19 17 C-18.67 16.34 -18.34 15.68 -18 15 C-16.329375 14.1028125 -16.329375 14.1028125 -14.625 13.1875 C-11.19515042 11.33258135 -9.90073443 9.42132198 -8 6 C-7.01 6 -6.02 6 -5 6 C-4.67 4.68 -4.34 3.36 -4 2 C-3.01 2 -2.02 2 -1 2 C-0.67 1.34 -0.34 0.68 0 0 Z " fill="#C3C3C3" transform="translate(101,77)"/>
<path d="M0 0 C1.65 0.33 3.3 0.66 5 1 C4.01 2.485 4.01 2.485 3 4 C2.67 4.99 2.34 5.98 2 7 C1.67 7.66 1.34 8.32 1 9 C2.32 9.33 3.64 9.66 5 10 C5 9.34 5 8.68 5 8 C5.66 8 6.32 8 7 8 C7 8.66 7 9.32 7 10 C7.66 10 8.32 10 9 10 C7.89131683 12.21736634 6.50559539 14.03617993 5 16 C2.08482708 14.92598892 0.22189824 14.22189824 -2 12 C-1.60467975 9.54901444 -0.78698574 7.36095721 0 5 C-1.32 5 -2.64 5 -4 5 C-3.67 3.68 -3.34 2.36 -3 1 C-1.515 1.99 -1.515 1.99 0 3 C0 2.01 0 1.02 0 0 Z " fill="#BBBBBB" transform="translate(52,64)"/>
<path d="M0 0 C2.3125 -0.3125 2.3125 -0.3125 5 0 C6.9375 2.0625 6.9375 2.0625 8 5 C7.1875 8.8125 7.1875 8.8125 6 12 C4.25 11.875 4.25 11.875 2 11 C-0.375 8.25 -0.375 8.25 -2 5 C-1.25 2.125 -1.25 2.125 0 0 Z " fill="#8D8D8D" transform="translate(92,27)"/>
<path d="M0 0 C-0.33 0.99 -0.66 1.98 -1 3 C-0.67 3.99 -0.34 4.98 0 6 C-1.98 6.66 -3.96 7.32 -6 8 C-6 7.34 -6 6.68 -6 6 C-6.66 6 -7.32 6 -8 6 C-8 6.99 -8 7.98 -8 9 C-9.32 9.33 -10.64 9.66 -12 10 C-11.67 8.68 -11.34 7.36 -11 6 C-12.98 6.33 -14.96 6.66 -17 7 C-17 6.34 -17 5.68 -17 5 C-13.71303767 4.20046862 -12.28976808 3.90341064 -9 5 C-8.62875 3.7934375 -8.62875 3.7934375 -8.25 2.5625 C-7 0 -7 0 -5.0625 -0.875 C-3 -1 -3 -1 0 0 Z " fill="#838383" transform="translate(87,39)"/>
<path d="M0 0 C0.99 0.33 1.98 0.66 3 1 C3 1.99 3 2.98 3 4 C-1.455 5.485 -1.455 5.485 -6 7 C-6.66 6.34 -7.32 5.68 -8 5 C-8.33 5.99 -8.66 6.98 -9 8 C-8.34 8 -7.68 8 -7 8 C-7 8.66 -7 9.32 -7 10 C-7.99 10 -8.98 10 -10 10 C-10 12.64 -10 15.28 -10 18 C-10.99 17.67 -11.98 17.34 -13 17 C-12.34 17 -11.68 17 -11 17 C-11.01160156 16.26394531 -11.02320313 15.52789062 -11.03515625 14.76953125 C-11.04417969 13.79371094 -11.05320313 12.81789063 -11.0625 11.8125 C-11.07410156 10.84957031 -11.08570313 9.88664062 -11.09765625 8.89453125 C-11.00486622 6.14423487 -10.62111685 3.67520409 -10 1 C-6.7 1.33 -3.4 1.66 0 2 C0 1.34 0 0.68 0 0 Z " fill="#A0A0A0" transform="translate(68,21)"/>
<path d="M0 0 C0.33 0.66 0.66 1.32 1 2 C0.67 2.99 0.34 3.98 0 5 C1.65 4.67 3.3 4.34 5 4 C5 5.32 5 6.64 5 8 C3.68 8 2.36 8 1 8 C0.67 9.32 0.34 10.64 0 12 C-0.99 12 -1.98 12 -3 12 C-3 10.35 -3 8.7 -3 7 C-6.24299151 9.38957269 -8.50902342 11.2047869 -10 15 C-10.66 15 -11.32 15 -12 15 C-10.51131293 10.39860359 -8.25370145 7.49772906 -5 4 C-4.34 4 -3.68 4 -3 4 C-2.67 3.01 -2.34 2.02 -2 1 C-1.34 0.67 -0.68 0.34 0 0 Z " fill="#666666" transform="translate(19,11)"/>
<path d="M0 0 C6.75 0.75 6.75 0.75 9 3 C7.906875 3.185625 6.81375 3.37125 5.6875 3.5625 C1.66571543 4.6368858 1.66571543 4.6368858 0.375 8.5625 C-0.07875 9.696875 -0.5325 10.83125 -1 12 C-3.6875 12.9375 -3.6875 12.9375 -6 13 C-5.67 10.03 -5.34 7.06 -5 4 C-3.68 3.67 -2.36 3.34 -1 3 C-0.67 2.01 -0.34 1.02 0 0 Z " fill="#A9A9A9" transform="translate(25,15)"/>
<path d="M0 0 C-0.33 1.65 -0.66 3.3 -1 5 C-2.32 5 -3.64 5 -5 5 C-5 5.99 -5 6.98 -5 8 C-6.32 7.34 -7.64 6.68 -9 6 C-9 7.32 -9 8.64 -9 10 C-12.03898126 8.98700625 -13.12139167 8.5048111 -15 6 C-15.1875 3.3125 -15.1875 3.3125 -15 1 C-14.113125 1.20625 -13.22625 1.4125 -12.3125 1.625 C-7.74165139 2.14245456 -4.610184 0 0 0 Z " fill="#D5D5D5" transform="translate(61,11)"/>
<path d="M0 0 C0.66 0.33 1.32 0.66 2 1 C1.67 1.66 1.34 2.32 1 3 C1.66 3 2.32 3 3 3 C3.33 4.98 3.66 6.96 4 9 C3.4225 8.773125 2.845 8.54625 2.25 8.3125 C-0.09648464 7.74672167 -0.09648464 7.74672167 -2.1875 9.3125 C-4.08817698 10.88478208 -4.08817698 10.88478208 -5 13 C-6.32 12.67 -7.64 12.34 -9 12 C-9 8 -9 8 -7.5 6.4375 C-7.005 5.963125 -6.51 5.48875 -6 5 C-6 4.01 -6 3.02 -6 2 C-4.35 2 -2.7 2 -1 2 C-0.67 1.34 -0.34 0.68 0 0 Z " fill="#DCDCDC" transform="translate(59,77)"/>
<path d="M0 0 C0.99 0.495 0.99 0.495 2 1 C2.625 4.0625 2.625 4.0625 3 7 C3.99 7.33 4.98 7.66 6 8 C6.66 7.67 7.32 7.34 8 7 C8 7.66 8 8.32 8 9 C9.32 9.66 10.64 10.32 12 11 C11.01 11.495 11.01 11.495 10 12 C12.475 12.99 12.475 12.99 15 14 C13 16 13 16 11 18 C10.01 18 9.02 18 8 18 C7.67 16.35 7.34 14.7 7 13 C6.21625 12.9175 5.4325 12.835 4.625 12.75 C2 12 2 12 0.6875 10.4375 C-0.31210998 6.89342826 -0.12259376 3.67781281 0 0 Z " fill="#565656" transform="translate(17,49)"/>
<path d="M0 0 C0.66 0 1.32 0 2 0 C2 0.66 2 1.32 2 2 C2.66 2 3.32 2 4 2 C4.66 3.65 5.32 5.3 6 7 C4.68 7.33 3.36 7.66 2 8 C1.67 9.32 1.34 10.64 1 12 C-1.31 11.34 -3.62 10.68 -6 10 C-6 8.02 -6 6.04 -6 4 C-4.68 4.33 -3.36 4.66 -2 5 C-1.34 3.35 -0.68 1.7 0 0 Z " fill="#7A7A7A" transform="translate(45,48)"/>
<path d="M0 0 C0.66 0 1.32 0 2 0 C2.3125 2.125 2.3125 2.125 2 5 C0.39881603 7.05279996 -1.26776336 9.05651499 -3 11 C-3.33 11.99 -3.66 12.98 -4 14 C-4.99 14.33 -5.98 14.66 -7 15 C-7.33 14.34 -7.66 13.68 -8 13 C-8.33 13.99 -8.66 14.98 -9 16 C-9.66 16 -10.32 16 -11 16 C-9.125 10.25 -9.125 10.25 -8 8 C-7.01 7.67 -6.02 7.34 -5 7 C-3.95107762 5.36368108 -2.95093297 3.69514137 -2 2 C-1.34 1.34 -0.68 0.68 0 0 Z " fill="#353535" transform="translate(14,18)"/>
<path d="M0 0 C0.33 1.32 0.66 2.64 1 4 C2.32 3.67 3.64 3.34 5 3 C5.33 3.99 5.66 4.98 6 6 C6.66 6.33 7.32 6.66 8 7 C7.54965877 8.62723299 7.08944646 10.25173664 6.625 11.875 C6.36976562 12.77992187 6.11453125 13.68484375 5.8515625 14.6171875 C5 17 5 17 3 19 C1.95550089 15.86650268 2.06576355 15.01031744 3 12 C2.01 11.67 1.02 11.34 0 11 C0 7.37 0 3.74 0 0 Z " fill="#CBCBCB" transform="translate(100,58)"/>
<path d="M0 0 C1.125 1.75 1.125 1.75 2 4 C1.5 6.125 1.5 6.125 0 8 C-3.75263725 9.66783878 -6.91226018 10.24045528 -11 10 C-11 9.01 -11 8.02 -11 7 C-9.36935236 5.94228261 -7.69719127 4.94726954 -6 4 C-5.46375 3.46375 -4.9275 2.9275 -4.375 2.375 C-3 1 -3 1 0 0 Z " fill="#BDBDBD" transform="translate(35,2)"/>
<path d="M0 0 C0.99 0.33 1.98 0.66 3 1 C3.33333333 2.33333333 3.66666667 3.66666667 4 5 C4.99 5.33 5.98 5.66 7 6 C6.01 6.495 6.01 6.495 5 7 C5 7.66 5 8.32 5 9 C4.34 9 3.68 9 3 9 C2.67 9.66 2.34 10.32 2 11 C-0.4375 9.875 -0.4375 9.875 -3 8 C-3.8125 4.8125 -3.8125 4.8125 -4 2 C-2.68 2 -1.36 2 0 2 C0 1.34 0 0.68 0 0 Z " fill="#2E2E2E" transform="translate(26,76)"/>
<path d="M0 0 C0.33 0 0.66 0 1 0 C1.03738281 0.58007812 1.07476562 1.16015625 1.11328125 1.7578125 C1.44329016 5.67909481 1.78136092 8.56272184 3.5625 12.125 C5.32603149 15.65206298 5.37454282 18.10475463 5 22 C4.34 22.66 3.68 23.32 3 24 C2.67 23.34 2.34 22.68 2 22 C1.34 22.66 0.68 23.32 0 24 C0 16.08 0 8.16 0 0 Z " fill="#6E6E6E" transform="translate(0,42)"/>
<path d="M0 0 C-2.1859108 4.49326108 -4.27404377 6.33201545 -9 8 C-12.375 7.6875 -12.375 7.6875 -15 7 C-11.144376 1.62549382 -7.09941877 -2.36647292 0 0 Z " fill="#D6D6D6" transform="translate(92,85)"/>
<path d="M0 0 C0.66 0 1.32 0 2 0 C2 0.66 2 1.32 2 2 C3.65 2.33 5.3 2.66 7 3 C7 3.99 7 4.98 7 6 C4.69 6.33 2.38 6.66 0 7 C0 8.32 0 9.64 0 11 C-2 12.75 -2 12.75 -4 14 C-4 13.34 -4 12.68 -4 12 C-4.99 11.67 -5.98 11.34 -7 11 C-7 10.34 -7 9.68 -7 9 C-6.37609375 8.91878906 -5.7521875 8.83757812 -5.109375 8.75390625 C-2.8507553 8.20570556 -2.8507553 8.20570556 -1.953125 6.15234375 C-1.60507812 5.05599609 -1.60507812 5.05599609 -1.25 3.9375 C-1.00765625 3.20402344 -0.7653125 2.47054687 -0.515625 1.71484375 C-0.34546875 1.14894531 -0.1753125 0.58304687 0 0 Z " fill="#464646" transform="translate(33,65)"/>
<path d="M0 0 C1.35432675 1.31200404 2.68733482 2.64631404 4 4 C4 4.33 4 4.66 4 5 C3.195625 5.12375 2.39125 5.2475 1.5625 5.375 C0.2940625 5.684375 0.2940625 5.684375 -1 6 C-1.33 6.66 -1.66 7.32 -2 8 C-1.13375 8.1546875 -1.13375 8.1546875 -0.25 8.3125 C2.32049158 9.09792798 3.93657284 10.30504197 6 12 C5.67 12.99 5.34 13.98 5 15 C3.0625 14.1875 3.0625 14.1875 1 13 C0.67 12.01 0.34 11.02 0 10 C-2.09719872 8.97718482 -2.09719872 8.97718482 -4.5625 8.3125 C-5.38878906 8.06113281 -6.21507812 7.80976562 -7.06640625 7.55078125 C-7.70449219 7.36902344 -8.34257812 7.18726562 -9 7 C-8.67 6.34 -8.34 5.68 -8 5 C-7.34 5 -6.68 5 -6 5 C-6 4.34 -6 3.68 -6 3 C-4.02 2.67 -2.04 2.34 0 2 C0 1.34 0 0.68 0 0 Z " fill="#787878" transform="translate(37,88)"/>
<path d="M0 0 C1.98 0.495 1.98 0.495 4 1 C4 1.99 4 2.98 4 4 C4.33 5.32 4.66 6.64 5 8 C7.64 7.34 10.28 6.68 13 6 C13 6.66 13 7.32 13 8 C14.32 8.33 15.64 8.66 17 9 C17 9.66 17 10.32 17 11 C16.484375 10.835 15.96875 10.67 15.4375 10.5 C11.49378251 9.69103231 7.58816673 9.57076575 3.6875 10.625 C3.130625 10.74875 2.57375 10.8725 2 11 C1.34 10.34 0.68 9.68 0 9 C0.66 7.35 1.32 5.7 2 4 C1.01 3.67 0.02 3.34 -1 3 C-0.67 2.01 -0.34 1.02 0 0 Z " fill="#BEBEBE" transform="translate(46,32)"/>
<path d="M0 0 C1 3 1 3 1 5 C1.99 5 2.98 5 4 5 C5.60816057 8.21632115 4.85541996 10.68524766 4 14 C4 14.66 4 15.32 4 16 C3.34 16 2.68 16 2 16 C0.99345937 13.99141222 -0.00921007 11.98125606 -1 9.96484375 C-1.33 9.29582031 -1.66 8.62679687 -2 7.9375 C-2.33 7.26589844 -2.66 6.59429687 -3 5.90234375 C-4.08091824 3.76612385 -4.08091824 3.76612385 -6 1 C-4.7934375 1.0309375 -4.7934375 1.0309375 -3.5625 1.0625 C-1.06645115 1.29633621 -1.06645115 1.29633621 0 0 Z " fill="#BDBDBD" transform="translate(49,86)"/>
<path d="M0 0 C1.32 0.66 2.64 1.32 4 2 C4 2.66 4 3.32 4 4 C5.32 4 6.64 4 8 4 C7.67 5.65 7.34 7.3 7 9 C6.01 9.33 5.02 9.66 4 10 C4 9.34 4 8.68 4 8 C2.02 8.66 0.04 9.32 -2 10 C-2.33 8.68 -2.66 7.36 -3 6 C-1.68 6.33 -0.36 6.66 1 7 C0.34 5.02 -0.32 3.04 -1 1 C-0.67 0.67 -0.34 0.34 0 0 Z " fill="#8D8D8D" transform="translate(40,32)"/>
<path d="M0 0 C0.556875 0.6496875 0.556875 0.6496875 1.125 1.3125 C3.51281095 3.46152985 6.1019568 4.64757984 9 6 C9 6.66 9 7.32 9 8 C9.66 8.33 10.32 8.66 11 9 C10.01 10.485 10.01 10.485 9 12 C8.52949219 11.6390625 8.05898438 11.278125 7.57421875 10.90625 C6.95160156 10.4421875 6.32898437 9.978125 5.6875 9.5 C4.76517578 8.80390625 4.76517578 8.80390625 3.82421875 8.09375 C1.92566995 6.74288717 1.92566995 6.74288717 -1 7 C-1.33 5.02 -1.66 3.04 -2 1 C-1.34 0.67 -0.68 0.34 0 0 Z " fill="#717171" transform="translate(22,50)"/>
<path d="M0 0 C3.68266103 0.59950296 7.34543185 1.24758891 11 2 C11 2.66 11 3.32 11 4 C11.66 4.33 12.32 4.66 13 5 C13 5.99 13 6.98 13 8 C12.21625 8.144375 11.4325 8.28875 10.625 8.4375 C8.03578982 8.87798925 8.03578982 8.87798925 6 10 C5.34786708 12.02463255 5.34786708 12.02463255 5 14 C4.375 11.1875 4.375 11.1875 4 8 C4.66 7.01 5.32 6.02 6 5 C5.01 4.67 4.02 4.34 3 4 C3.66 4 4.32 4 5 4 C5 3.34 5 2.68 5 2 C4.01 2.33 3.02 2.66 2 3 C1.34 2.01 0.68 1.02 0 0 Z " fill="#CDCDCD" transform="translate(48,89)"/>
<path d="M0 0 C3.73639216 1.24546405 4.18756513 2.63404953 6 6 C5.34 6.66 4.68 7.32 4 8 C4.99 8.33 5.98 8.66 7 9 C7 9.66 7 10.32 7 11 C5.35 11.33 3.7 11.66 2 12 C0.7922442 8.37673261 1.45688872 7.35853631 3 4 C2.34 4 1.68 4 1 4 C1 4.66 1 5.32 1 6 C0.34 6 -0.32 6 -1 6 C-1 6.66 -1 7.32 -1 8 C-1.66 8 -2.32 8 -3 8 C-3 8.66 -3 9.32 -3 10 C-4.32 10 -5.64 10 -7 10 C-7 9.34 -7 8.68 -7 8 C-7.66 7.67 -8.32 7.34 -9 7 C-8.401875 7.185625 -7.80375 7.37125 -7.1875 7.5625 C-4.83591238 8.22093687 -4.83591238 8.22093687 -2 7 C-1.67 6.01 -1.34 5.02 -1 4 C-1.66 3.34 -2.32 2.68 -3 2 C-2.01 2 -1.02 2 0 2 C0 1.34 0 0.68 0 0 Z " fill="#4D4D4D" transform="translate(33,78)"/>
<path d="M0 0 C2.97 0.495 2.97 0.495 6 1 C6 3.31 6 5.62 6 8 C5.34 8 4.68 8 4 8 C4 8.66 4 9.32 4 10 C3.01 10.33 2.02 10.66 1 11 C1 10.01 1 9.02 1 8 C0.34 8 -0.32 8 -1 8 C-0.67 5.36 -0.34 2.72 0 0 Z " fill="#AFAFAF" transform="translate(83,61)"/>
<path d="M0 0 C0.99 0.99 1.98 1.98 3 3 C3.33 2.34 3.66 1.68 4 1 C5.32 1.33 6.64 1.66 8 2 C7.67 3.32 7.34 4.64 7 6 C5.68 6 4.36 6 3 6 C3 7.32 3 8.64 3 10 C1.125 9.6875 1.125 9.6875 -1 9 C-3 6 -3 6 -2.625 3.8125 C-2.41875 3.214375 -2.2125 2.61625 -2 2 C-1.34 2 -0.68 2 0 2 C0 1.34 0 0.68 0 0 Z " fill="#5B5B5B" transform="translate(14,71)"/>
<path d="M0 0 C2.02054804 1.64169528 4.02043058 3.30911778 6 5 C6 5.33 6 5.66 6 6 C3.69 6 1.38 6 -1 6 C-1.33 6.99 -1.66 7.98 -2 9 C-2.33 8.01 -2.66 7.02 -3 6 C-3.66 5.67 -4.32 5.34 -5 5 C-5 5.66 -5 6.32 -5 7 C-6.32 6.67 -7.64 6.34 -9 6 C-8.67 4.68 -8.34 3.36 -8 2 C-6.35 1.67 -4.7 1.34 -3 1 C-3 1.66 -3 2.32 -3 3 C-2.34 3 -1.68 3 -1 3 C-0.67 2.01 -0.34 1.02 0 0 Z " fill="#C3C3C3" transform="translate(73,16)"/>
<path d="M0 0 C0.99 0 1.98 0 3 0 C3 2.64 3 5.28 3 8 C-0.465 9.485 -0.465 9.485 -4 11 C-4.33 9.35 -4.66 7.7 -5 6 C-4.360625 5.566875 -3.72125 5.13375 -3.0625 4.6875 C-0.73253997 3.08760823 -0.73253997 3.08760823 0 0 Z " fill="#C9C9C9" transform="translate(54,30)"/>
<path d="M0 0 C1.5 1.375 1.5 1.375 3 3 C3 3.66 3 4.32 3 5 C4.65 5.33 6.3 5.66 8 6 C8 5.01 8 4.02 8 3 C7.34 2.67 6.68 2.34 6 2 C6.99 2 7.98 2 9 2 C9.33 4.31 9.66 6.62 10 9 C9.01 9 8.02 9 7 9 C6.67 9.66 6.34 10.32 6 11 C5.236875 10.071875 4.47375 9.14375 3.6875 8.1875 C1.88151448 6.01723899 0.0523371 3.94431935 -2 2 C-1.34 1.34 -0.68 0.68 0 0 Z " fill="#717171" transform="translate(17,84)"/>
<path d="M0 0 C0.66 0.66 1.32 1.32 2 2 C1.67 2.99 1.34 3.98 1 5 C0.01 5 -0.98 5 -2 5 C-2.33 6.98 -2.66 8.96 -3 11 C-5.31 11.33 -7.62 11.66 -10 12 C-9.67 10.68 -9.34 9.36 -9 8 C-8.34 8 -7.68 8 -7 8 C-7 6.68 -7 5.36 -7 4 C-3.535 3.505 -3.535 3.505 0 3 C0 2.01 0 1.02 0 0 Z " fill="#6F6F6F" transform="translate(40,68)"/>
<path d="M0 0 C5.6759062 0.34750446 9.98235954 1.7747611 14 6 C14 6.99 14 7.98 14 9 C11.6875 8.75 11.6875 8.75 9 8 C7.99357052 6.67151309 6.99307821 5.33849671 6 4 C4.68 4 3.36 4 2 4 C1.34 2.68 0.68 1.36 0 0 Z " fill="#8A8A8A" transform="translate(11,81)"/>
<path d="M0 0 C0 0.66 0 1.32 0 2 C-4.22949995 4.41685712 -7.12335991 5.34833144 -12 5 C-12 5.99 -12 6.98 -12 8 C-13.65 8.66 -15.3 9.32 -17 10 C-17 8.35 -17 6.7 -17 5 C-16.34 5 -15.68 5 -15 5 C-15 4.34 -15 3.68 -15 3 C-12.36 3 -9.72 3 -7 3 C-6.67 2.34 -6.34 1.68 -6 1 C-3.911361 0.32624548 -2.19636905 0 0 0 Z " fill="#9F9F9F" transform="translate(44,40)"/>
<path d="M0 0 C1.98 0.66 3.96 1.32 6 2 C5.01 2.495 5.01 2.495 4 3 C3.31270746 5.11846285 3.31270746 5.11846285 2.875 7.5625 C2.70742188 8.38878906 2.53984375 9.21507812 2.3671875 10.06640625 C2.24601562 10.70449219 2.12484375 11.34257813 2 12 C0.741875 12.04125 -0.51625 12.0825 -1.8125 12.125 C-2.52019531 12.14820313 -3.22789063 12.17140625 -3.95703125 12.1953125 C-6 12 -6 12 -9 10 C-6.03 10.33 -3.06 10.66 0 11 C-0.33 9.68 -0.66 8.36 -1 7 C-0.34 6.34 0.32 5.68 1 5 C0.01 4.67 -0.98 4.34 -2 4 C-1 1 -1 1 0 0 Z " fill="#A8A8A8" transform="translate(61,36)"/>
<path d="M0 0 C0.99 0.33 1.98 0.66 3 1 C3 1.99 3 2.98 3 4 C3.66 4.33 4.32 4.66 5 5 C4.67 5.66 4.34 6.32 4 7 C-0.29 6.67 -4.58 6.34 -9 6 C-9 5.34 -9 4.68 -9 4 C-2.25 3.875 -2.25 3.875 0 5 C-0.2784375 4.0409375 -0.2784375 4.0409375 -0.5625 3.0625 C-0.706875 2.381875 -0.85125 1.70125 -1 1 C-0.67 0.67 -0.34 0.34 0 0 Z " fill="#A9A9A9" transform="translate(51,102)"/>
<path d="M0 0 C0.33 0.66 0.66 1.32 1 2 C-2.44833324 4.05257931 -4.31661591 5.0632763 -8.375 4.6875 C-9.24125 4.460625 -10.1075 4.23375 -11 4 C-11 4.66 -11 5.32 -11 6 C-12.98 6.99 -12.98 6.99 -15 8 C-15.33 7.34 -15.66 6.68 -16 6 C-10.59422159 1.88131168 -6.91995707 -0.88339877 0 0 Z " fill="#CACACA" transform="translate(82,82)"/>
<path d="M0 0 C0.66 0 1.32 0 2 0 C3.38232443 1.62626404 4.71937515 3.2925002 6 5 C5.34 5 4.68 5 4 5 C4 5.66 4 6.32 4 7 C3.34 7 2.68 7 2 7 C2 9.64 2 12.28 2 15 C1.01 15 0.02 15 -1 15 C-1 14.01 -1 13.02 -1 12 C-1.99 11.67 -2.98 11.34 -4 11 C-3.360625 10.7525 -2.72125 10.505 -2.0625 10.25 C0.18741541 9.18437567 0.18741541 9.18437567 0.75 6.875 C0.8325 6.25625 0.915 5.6375 1 5 C0.34 5 -0.32 5 -1 5 C-0.67 3.35 -0.34 1.7 0 0 Z " fill="#C4C4C4" transform="translate(89,39)"/>
<path d="M0 0 C0.66 0.66 1.32 1.32 2 2 C1.34 2 0.68 2 0 2 C0 2.66 0 3.32 0 4 C1.32 3.67 2.64 3.34 4 3 C3.67 4.32 3.34 5.64 3 7 C1.35 7.33 -0.3 7.66 -2 8 C-2 8.66 -2 9.32 -2 10 C-0.68 10.33 0.64 10.66 2 11 C0.68 11.33 -0.64 11.66 -2 12 C-3.42944945 9.64561267 -4.08661261 8.51967567 -3.625 5.75 C-3.41875 5.1725 -3.2125 4.595 -3 4 C-2.34 4 -1.68 4 -1 4 C-1.33 3.01 -1.66 2.02 -2 1 C-1.34 0.67 -0.68 0.34 0 0 Z " fill="#8C8C8C" transform="translate(72,36)"/>
<path d="M0 0 C2.0625 0.4375 2.0625 0.4375 4 1 C4 2.65 4 4.3 4 6 C5.32 6 6.64 6 8 6 C7.67 7.32 7.34 8.64 7 10 C5.68 9.67 4.36 9.34 3 9 C3 8.01 3 7.02 3 6 C2.34 6 1.68 6 1 6 C0.67 6.66 0.34 7.32 0 8 C-0.38063221 5.6739143 -0.71269945 3.33944736 -1 1 C-0.67 0.67 -0.34 0.34 0 0 Z " fill="#787878" transform="translate(44,63)"/>
<path d="M0 0 C0.99 0 1.98 0 3 0 C3.66 0.66 4.32 1.32 5 2 C5.99 2.33 6.98 2.66 8 3 C8 3.99 8 4.98 8 6 C8.66 6.33 9.32 6.66 10 7 C9.67 7.66 9.34 8.32 9 9 C6.03 8.505 6.03 8.505 3 8 C3 7.34 3 6.68 3 6 C2.01 5.67 1.02 5.34 0 5 C0.33 4.01 0.66 3.02 1 2 C0.67 1.34 0.34 0.68 0 0 Z " fill="#9C9C9C" transform="translate(28,50)"/>
<path d="M0 0 C2.75440266 0.27544027 3.83700152 0.83700152 5.8125 2.8125 C7 5 7 5 6.75 7.125 C6 9 6 9 5 11 C4.34 11 3.68 11 3 11 C3 9.35 3 7.7 3 6 C2.01 5.67 1.02 5.34 0 5 C-0.75 3 -0.75 3 -1 1 C-0.67 0.67 -0.34 0.34 0 0 Z " fill="#E3E3E3" transform="translate(86,56)"/>
<path d="M0 0 C1.65 0.33 3.3 0.66 5 1 C4.67 2.98 4.34 4.96 4 7 C2.68 7.33 1.36 7.66 0 8 C-0.33 7.01 -0.66 6.02 -1 5 C-1.99 4.67 -2.98 4.34 -4 4 C-2.68 3.67 -1.36 3.34 0 3 C0 2.01 0 1.02 0 0 Z " fill="#B1B1B1" transform="translate(32,45)"/>
<path d="M0 0 C1.65 0 3.3 0 5 0 C4.814375 0.680625 4.62875 1.36125 4.4375 2.0625 C3.91476057 5.57232191 4.38621423 8.52188063 5 12 C4.01 12.495 4.01 12.495 3 13 C3 11.02 3 9.04 3 7 C1.35 7 -0.3 7 -2 7 C-1.34 4.69 -0.68 2.38 0 0 Z " fill="#C8C8C8" transform="translate(65,39)"/>
<path d="M0 0 C1.32 0.66 2.64 1.32 4 2 C4 4.64 4 7.28 4 10 C3.34 10 2.68 10 2 10 C1.67 10.99 1.34 11.98 1 13 C0.34 13 -0.32 13 -1 13 C-1 10.69 -1 8.38 -1 6 C-0.01 6 0.98 6 2 6 C2 5.34 2 4.68 2 4 C1.34 4 0.68 4 0 4 C0 2.68 0 1.36 0 0 Z " fill="#939393" transform="translate(59,25)"/>
<path d="M0 0 C3.29394556 1.64697278 4.4911799 3.76681408 6 7 C3.69 7.66 1.38 8.32 -1 9 C-1.99 7.68 -2.98 6.36 -4 5 C-3.34 4.34 -2.68 3.68 -2 3 C-1.01 3.66 -0.02 4.32 1 5 C1 4.34 1 3.68 1 3 C0.01 2.67 -0.98 2.34 -2 2 C-1.34 1.34 -0.68 0.68 0 0 Z " fill="#474747" transform="translate(44,75)"/>
<path d="M0 0 C-3.75 3 -3.75 3 -6 3 C-6 3.99 -6 4.98 -6 6 C-5.01 6.33 -4.02 6.66 -3 7 C-8.75 10 -8.75 10 -11 10 C-10.92734555 6.87585852 -10.72621016 4.73927821 -8.48046875 2.453125 C-3.60430169 -1.2014339 -3.60430169 -1.2014339 0 0 Z " fill="#999999" transform="translate(30,6)"/>
<path d="M0 0 C3.3 1.65 6.6 3.3 10 5 C10 4.34 10 3.68 10 3 C11.32 3 12.64 3 14 3 C14 3.66 14 4.32 14 5 C14.66 5.33 15.32 5.66 16 6 C13.625 7.375 13.625 7.375 10 8 C6.36892133 6.43301665 3.09155213 4.46835388 0 2 C0 1.34 0 0.68 0 0 Z " fill="#6F6F6F" transform="translate(22,97)"/>
<path d="M0 0 C0.99 0.66 1.98 1.32 3 2 C2.40072174 5.35595828 1.15377564 7.37801226 -1 10 C-3 9 -3 9 -4 8 C-4.99 8.495 -4.99 8.495 -6 9 C-5.67 8.195625 -5.34 7.39125 -5 6.5625 C-3.93940959 4.30318875 -3.93940959 4.30318875 -4 3 C-3.01 2.67 -2.02 2.34 -1 2 C-0.67 1.34 -0.34 0.68 0 0 Z " fill="#C7C7C7" transform="translate(63,71)"/>
<path d="M0 0 C0.9075 0.2475 1.815 0.495 2.75 0.75 C5.08177975 1.09403308 7.41487041 1.42949202 9.75 1.75 C4.5685816 4.43666139 0.68942843 6.02625249 -5.25 5.75 C-5.25 2.75 -5.25 2.75 -4.0625 1 C-2.25 -0.25 -2.25 -0.25 0 0 Z " fill="#B0B0B0" transform="translate(34.25,11.25)"/>
<path d="M0 0 C5.37732887 2.24652851 10.260128 4.59701497 15 8 C14.01 8.99 13.02 9.98 12 11 C11.67 10.01 11.34 9.02 11 8 C8.21956473 6.52698031 8.21956473 6.52698031 4.9375 5.3125 C3.28041016 4.65701172 3.28041016 4.65701172 1.58984375 3.98828125 C0.73519531 3.66214844 -0.11945313 3.33601562 -1 3 C-0.67 2.01 -0.34 1.02 0 0 Z " fill="#BBBBBB" transform="translate(72,2)"/>
<path d="M0 0 C0.66 0 1.32 0 2 0 C2 0.66 2 1.32 2 2 C2.99 2 3.98 2 5 2 C5.33 2.99 5.66 3.98 6 5 C6.66 5 7.32 5 8 5 C8 7.31 8 9.62 8 12 C5.03 11.505 5.03 11.505 2 11 C2.66 10.67 3.32 10.34 4 10 C2.68 6.7 1.36 3.4 0 0 Z " fill="#999999" transform="translate(43,95)"/>
<path d="M0 0 C1.65 0.33 3.3 0.66 5 1 C4.01 2.485 4.01 2.485 3 4 C2.67 4.99 2.34 5.98 2 7 C1.01 8.485 1.01 8.485 0 10 C-0.33 9.34 -0.66 8.68 -1 8 C-0.67 7.01 -0.34 6.02 0 5 C-1.32 5 -2.64 5 -4 5 C-3.67 3.68 -3.34 2.36 -3 1 C-1.515 1.99 -1.515 1.99 0 3 C0 2.01 0 1.02 0 0 Z " fill="#B3B3B3" transform="translate(52,64)"/>
<path d="M0 0 C2.475 0.495 2.475 0.495 5 1 C5.19477739 2.62414378 5.38059458 4.24936423 5.5625 5.875 C5.66691406 6.77992187 5.77132813 7.68484375 5.87890625 8.6171875 C6 11 6 11 5 13 C4.34 12.67 3.68 12.34 3 12 C3.33 11.01 3.66 10.02 4 9 C3.34 9 2.68 9 2 9 C1.375 7.1875 1.375 7.1875 1 5 C1.66 4.01 2.32 3.02 3 2 C2.01 2 1.02 2 0 2 C0 1.34 0 0.68 0 0 Z " fill="#3F3F3F" transform="translate(12,42)"/>
<path d="M0 0 C0.99 0.33 1.98 0.66 3 1 C3.33 0.67 3.66 0.34 4 0 C5.66617115 -0.04063832 7.33388095 -0.042721 9 0 C8.67 0.99 8.34 1.98 8 3 C5.36 3 2.72 3 0 3 C-0.33 4.32 -0.66 5.64 -1 7 C-1 6.34 -1 5.68 -1 5 C-2.32 4.67 -3.64 4.34 -5 4 C-2.6875 1.9375 -2.6875 1.9375 0 0 Z " fill="#717171" transform="translate(41,82)"/>
<path d="M0 0 C0.99 0.495 0.99 0.495 2 1 C2 1.99 2 2.98 2 4 C2.66 4 3.32 4 4 4 C4 3.34 4 2.68 4 2 C4.66 2 5.32 2 6 2 C6 1.34 6 0.68 6 0 C6.66 0 7.32 0 8 0 C8 0.66 8 1.32 8 2 C8.66 2 9.32 2 10 2 C9 5 9 5 7.1875 6.3125 C5 7 5 7 2.8125 6.4375 C1 5 1 5 0.25 2.375 C0.1675 1.59125 0.085 0.8075 0 0 Z " fill="#B7B7B7" transform="translate(75,31)"/>
<path d="M0 0 C0.66 0 1.32 0 2 0 C2.33 0.99 2.66 1.98 3 3 C4.29355827 4.37195574 5.62298702 5.71182656 7 7 C6.67 7.66 6.34 8.32 6 9 C3.69 8.67 1.38 8.34 -1 8 C-1 8.66 -1 9.32 -1 10 C-0.34 10.33 0.32 10.66 1 11 C0.01 11 -0.98 11 -2 11 C-1.67 9.35 -1.34 7.7 -1 6 C-0.01 5.67 0.98 5.34 2 5 C1.34 3.35 0.68 1.7 0 0 Z " fill="#989898" transform="translate(48,49)"/>
<path d="M0 0 C0.99 0.66 1.98 1.32 3 2 C2.195625 2.12375 1.39125 2.2475 0.5625 2.375 C-0.7059375 2.684375 -0.7059375 2.684375 -2 3 C-2.33 3.66 -2.66 4.32 -3 5 C-5.31 4.01 -7.62 3.02 -10 2 C-6.31282562 -0.45811625 -4.35654296 -0.31118164 0 0 Z " fill="#8E8E8E" transform="translate(44,103)"/>
<path d="M0 0 C0.66 0 1.32 0 2 0 C2 0.99 2 1.98 2 3 C2.66 3.33 3.32 3.66 4 4 C4 6.31 4 8.62 4 11 C3.34 11 2.68 11 2 11 C0.875 7.25 0.875 7.25 2 5 C0.35 5.66 -1.3 6.32 -3 7 C-2.690625 6.401875 -2.38125 5.80375 -2.0625 5.1875 C-0.89790296 2.91043228 -0.89790296 2.91043228 0 0 Z " fill="#D9D9D9" transform="translate(99,66)"/>
<path d="M0 0 C0.99 0.33 1.98 0.66 3 1 C2.67 2.65 2.34 4.3 2 6 C2.66 6 3.32 6 4 6 C4 7.65 4 9.3 4 11 C3.01 11 2.02 11 1 11 C1.33 10.34 1.66 9.68 2 9 C1.34 8.4225 0.68 7.845 0 7.25 C-2 5 -2 5 -2 1 C-1.34 0.67 -0.68 0.34 0 0 Z " fill="#BCBCBC" transform="translate(52,47)"/>
<path d="M0 0 C0.99 0.33 1.98 0.66 3 1 C2.01 1.495 2.01 1.495 1 2 C1 2.99 1 3.98 1 5 C1.66 5 2.32 5 3 5 C2.67 6.65 2.34 8.3 2 10 C0.68 10.33 -0.64 10.66 -2 11 C-1.835 9.906875 -1.67 8.81375 -1.5 7.6875 C-0.93281816 4.12474127 -0.93281816 4.12474127 -1 1 C-0.67 0.67 -0.34 0.34 0 0 Z " fill="#9A9A9A" transform="translate(87,39)"/>
<path d="M0 0 C0.226875 0.61875 0.45375 1.2375 0.6875 1.875 C2.37929835 4.61410209 3.99244161 5.05024472 7 6 C6.67 6.99 6.34 7.98 6 9 C5.34 9 4.68 9 4 9 C4 9.66 4 10.32 4 11 C3.34 11 2.68 11 2 11 C0.23537317 7.91190305 0 6.76687864 0 3 C-0.99 2.67 -1.98 2.34 -3 2 C-2.01 1.34 -1.02 0.68 0 0 Z " fill="#D5D5D5" transform="translate(75,24)"/>
<path d="M0 0 C2.625 -0.1875 2.625 -0.1875 5 0 C5.33 0.66 5.66 1.32 6 2 C5.01 2 4.02 2 3 2 C2.67 4.64 2.34 7.28 2 10 C-0.46254526 7.8586563 -1.69050349 6.30129606 -2 3 C-1.34 2.01 -0.68 1.02 0 0 Z " fill="#AFAFAF" transform="translate(92,27)"/>
<path d="M0 0 C1.65 1.32 3.3 2.64 5 4 C4.67 4.99 4.34 5.98 4 7 C3.34 7 2.68 7 2 7 C2 6.34 2 5.68 2 5 C1.34 5 0.68 5 0 5 C0.33 5.99 0.66 6.98 1 8 C0.34 8 -0.32 8 -1 8 C-3 5 -3 5 -2.75 2.875 C-2 1 -2 1 0 0 Z " fill="#B9B9B9" transform="translate(50,20)"/>
<path d="M0 0 C1.32 0 2.64 0 4 0 C4 0.66 4 1.32 4 2 C5.32 2.33 6.64 2.66 8 3 C8 3.99 8 4.98 8 6 C7.01 6.33 6.02 6.66 5 7 C4.34 6.34 3.68 5.68 3 5 C0.93125966 4.3574765 0.93125966 4.3574765 -1 4 C-0.67 2.68 -0.34 1.36 0 0 Z " fill="#9A9A9A" transform="translate(40,14)"/>
<path d="M0 0 C0.66 0 1.32 0 2 0 C2 0.66 2 1.32 2 2 C3.45833358 3.62514468 3.45833358 3.62514468 5 5 C4.67 5.99 4.34 6.98 4 8 C2.35 8.33 0.7 8.66 -1 9 C-0.67 6.03 -0.34 3.06 0 0 Z " fill="#868686" transform="translate(20,19)"/>
<path d="M0 0 C0 1.32 0 2.64 0 4 C-0.99 4.495 -0.99 4.495 -2 5 C-2.33 5.99 -2.66 6.98 -3 8 C-4.9375 7.625 -4.9375 7.625 -7 7 C-7.33 6.34 -7.66 5.68 -8 5 C-6.45487538 1.90975077 -3.48715062 0 0 0 Z " fill="#535353" transform="translate(35,19)"/>
<path d="M0 0 C-0.33 0.33 -0.66 0.66 -1 1 C0.32 1.66 1.64 2.32 3 3 C2.01 3.33 1.02 3.66 0 4 C-0.33 4.66 -0.66 5.32 -1 6 C-1.99 6 -2.98 6 -4 6 C-4.103125 5.21625 -4.20625 4.4325 -4.3125 3.625 C-4.77595022 0.66954819 -4.77595022 0.66954819 -8 -1 C-4.59745511 -2.2151946 -3.06748874 -1.86240388 0 0 Z " fill="#4A4A4A" transform="translate(29,61)"/>
<path d="M0 0 C0.66 0 1.32 0 2 0 C2 0.66 2 1.32 2 2 C2.66 2 3.32 2 4 2 C4.66 3.65 5.32 5.3 6 7 C3.69 7.66 1.38 8.32 -1 9 C-0.67 6.03 -0.34 3.06 0 0 Z " fill="#737373" transform="translate(45,48)"/>
<path d="M0 0 C-0.33 1.65 -0.66 3.3 -1 5 C-3.31 5 -5.62 5 -8 5 C-8 3.68 -8 2.36 -8 1 C-5.10765685 0.17361624 -3.11257569 0 0 0 Z " fill="#CDCDCD" transform="translate(61,11)"/>
<path d="M0 0 C0.33 0.66 0.66 1.32 1 2 C3.31 1.34 5.62 0.68 8 0 C8 0.99 8 1.98 8 3 C4.17679443 4.42258812 1.08718695 5.24042276 -3 5 C-3 4.01 -3 3.02 -3 2 C-2.01 1.34 -1.02 0.68 0 0 Z " fill="#B0B0B0" transform="translate(27,7)"/>
<path d="M0 0 C-0.33 1.65 -0.66 3.3 -1 5 C-3.64 4.67 -6.28 4.34 -9 4 C-5.86025155 0.71753571 -4.76763047 0 0 0 Z " fill="#E2E2E2" transform="translate(50,1)"/>
<path d="M0 0 C4.58826282 1.93726652 6.80528594 3.48864333 9 8 C7.35 7.67 5.7 7.34 4 7 C4 6.34 4 5.68 4 5 C2.68 5 1.36 5 0 5 C0 3.35 0 1.7 0 0 Z " fill="#5C5C5C" transform="translate(32,95)"/>
<path d="M0 0 C2.1875 1.3125 2.1875 1.3125 4 3 C4 5 4 5 2.75 6.6875 C2.1725 7.120625 1.595 7.55375 1 8 C-1.1875 7.6875 -1.1875 7.6875 -3 7 C-2 4 -2 4 -1 2 C-1.66 1.67 -2.32 1.34 -3 1 C-2.01 0.67 -1.02 0.34 0 0 Z " fill="#C4C4C4" transform="translate(56,66)"/>
<path d="M0 0 C-0.33 0.66 -0.66 1.32 -1 2 C-3.31 2 -5.62 2 -8 2 C-8.12375 2.78375 -8.2475 3.5675 -8.375 4.375 C-9 7 -9 7 -11 9 C-11.625 6.6875 -11.625 6.6875 -12 4 C-10 1 -10 1 -8.25 0.3125 C-5.48083033 -0.0721069 -2.79197653 -0.06345401 0 0 Z " fill="#C8C8C8" transform="translate(47,0)"/>
<path d="M0 0 C3.2542015 2.83430453 4.5206753 4.68607774 5 9 C3.35 8.67 1.7 8.34 0 8 C0.33 7.01 0.66 6.02 1 5 C0.01 4.67 -0.98 4.34 -2 4 C-1.34 3.67 -0.68 3.34 0 3 C0 2.01 0 1.02 0 0 Z " fill="#828282" transform="translate(42,95)"/>
<path d="M0 0 C0.268125 0.639375 0.53625 1.27875 0.8125 1.9375 C1.88667752 4.33131686 1.88667752 4.33131686 5 5 C3.68 5.33 2.36 5.66 1 6 C1 5.34 1 4.68 1 4 C0.34 4 -0.32 4 -1 4 C-1 4.99 -1 5.98 -1 7 C-2.32 7.33 -3.64 7.66 -5 8 C-4.67 6.02 -4.34 4.04 -4 2 C-2.02 2.495 -2.02 2.495 0 3 C0 2.01 0 1.02 0 0 Z " fill="#545454" transform="translate(41,70)"/>
<path d="M0 0 C0.9075 0.391875 1.815 0.78375 2.75 1.1875 C2.42 2.5075 2.09 3.8275 1.75 5.1875 C0.76 4.5275 -0.23 3.8675 -1.25 3.1875 C-2.24 3.1875 -3.23 3.1875 -4.25 3.1875 C-4.25 4.1775 -4.25 5.1675 -4.25 6.1875 C-4.91 6.1875 -5.57 6.1875 -6.25 6.1875 C-6.58 4.8675 -6.91 3.5475 -7.25 2.1875 C-4.52596974 -0.53653026 -3.86366821 -0.96591705 0 0 Z " fill="#B0B0B0" transform="translate(50.25,29.8125)"/>
<path d="M0 0 C0.33 0.66 0.66 1.32 1 2 C2.32 2 3.64 2 5 2 C5 2.66 5 3.32 5 4 C4.34 4 3.68 4 3 4 C2.67 5.32 2.34 6.64 2 8 C1.01 8 0.02 8 -1 8 C-1.04241723 5.66705225 -1.04092937 3.33297433 -1 1 C-0.67 0.67 -0.34 0.34 0 0 Z " fill="#4E4E4E" transform="translate(17,15)"/>
<path d="M0 0 C3.59905908 0.55550695 4.99909799 1.74887248 7.25 4.5625 C8.03117187 5.52349609 8.03117187 5.52349609 8.828125 6.50390625 C9.21484375 6.99761719 9.6015625 7.49132812 10 8 C8.35 8 6.7 8 5 8 C5 7.34 5 6.68 5 6 C4.34 6 3.68 6 3 6 C2.01 4.02 1.02 2.04 0 0 Z " fill="#CECECE" transform="translate(86,11)"/>
<path d="M0 0 C0.66 0 1.32 0 2 0 C2 0.66 2 1.32 2 2 C3.65 2.33 5.3 2.66 7 3 C7 3.99 7 4.98 7 6 C5.02 6.33 3.04 6.66 1 7 C-0.231394 4.53721199 -0.07159196 2.7204945 0 0 Z " fill="#4D4D4D" transform="translate(33,65)"/>
<path d="M0 0 C0.33 0 0.66 0 1 0 C1.66 2.97 2.32 5.94 3 9 C3.66 9 4.32 9 5 9 C5.33 10.98 5.66 12.96 6 15 C5.01 14.34 4.02 13.68 3 13 C3 12.01 3 11.02 3 10 C2.34 10 1.68 10 1 10 C-0.60725635 6.78548731 -0.05748185 3.56387464 0 0 Z " fill="#444444" transform="translate(5,57)"/>
<path d="M0 0 C0.33 1.32 0.66 2.64 1 4 C2.32 3.67 3.64 3.34 5 3 C5 4.98 5 6.96 5 9 C3.35 8.67 1.7 8.34 0 8 C0 5.36 0 2.72 0 0 Z " fill="#C2C2C2" transform="translate(100,58)"/>
<path d="M0 0 C0.66 0.33 1.32 0.66 2 1 C2.33 1.99 2.66 2.98 3 4 C3.66 4.66 4.32 5.32 5 6 C4.625 8.625 4.625 8.625 4 11 C3.34 11 2.68 11 2 11 C2 9.35 2 7.7 2 6 C0.68 5.34 -0.64 4.68 -2 4 C-1.34 2.68 -0.68 1.36 0 0 Z " fill="#4D4D4D" transform="translate(20,37)"/>
<path d="M0 0 C0.33 0 0.66 0 1 0 C1.33 2.97 1.66 5.94 2 9 C-0.31 9.33 -2.62 9.66 -5 10 C-5 9.01 -5 8.02 -5 7 C-3.35 7 -1.7 7 0 7 C0 4.69 0 2.38 0 0 Z " fill="#B6B6B6" transform="translate(107,44)"/>
<path d="M0 0 C2.97 0.495 2.97 0.495 6 1 C5.67 2.65 5.34 4.3 5 6 C4.01 6.33 3.02 6.66 2 7 C1.34 4.69 0.68 2.38 0 0 Z " fill="#808080" transform="translate(45,43)"/>
<path d="M0 0 C2.64492308 1.32246154 2.97833787 2.64535898 4.1875 5.3125 C4.55230469 6.09238281 4.91710937 6.87226563 5.29296875 7.67578125 C6.07807525 10.2566562 5.89937661 11.49663962 5 14 C1.31903365 9.25036599 0.41330414 5.99291003 0 0 Z " fill="#B3B3B3" transform="translate(100,25)"/>
<path d="M0 0 C0.66 0 1.32 0 2 0 C1.67 2.64 1.34 5.28 1 8 C-0.98 8 -2.96 8 -5 8 C-4.01 7.67 -3.02 7.34 -2 7 C-2 5.35 -2 3.7 -2 2 C-1.34 2 -0.68 2 0 2 C0 1.34 0 0.68 0 0 Z " fill="#6F6F6F" transform="translate(34,82)"/>
<path d="M0 0 C1.9375 0.3125 1.9375 0.3125 4 1 C4.33 1.99 4.66 2.98 5 4 C4.01 4.66 3.02 5.32 2 6 C1.01 5.67 0.02 5.34 -1 5 C-0.67 3.35 -0.34 1.7 0 0 Z M-3 6 C-2.34 6 -1.68 6 -1 6 C-1 6.66 -1 7.32 -1 8 C-1.66 8 -2.32 8 -3 8 C-3 7.34 -3 6.68 -3 6 Z " fill="#CFCFCF" transform="translate(53,79)"/>
<path d="M0 0 C0.66 0 1.32 0 2 0 C2 0.66 2 1.32 2 2 C2.99 2.33 3.98 2.66 5 3 C5 4.65 5 6.3 5 8 C4.34 8 3.68 8 3 8 C3 7.34 3 6.68 3 6 C2.01 5.67 1.02 5.34 0 5 C0 3.35 0 1.7 0 0 Z " fill="#BCBCBC" transform="translate(77,54)"/>
<path d="M0 0 C2 3 2 3 2 5 C-0.3125 5.625 -0.3125 5.625 -3 6 C-3.99 5.34 -4.98 4.68 -6 4 C-4.68 3.67 -3.36 3.34 -2 3 C-2 2.34 -2 1.68 -2 1 C-1.34 0.67 -0.68 0.34 0 0 Z " fill="#7F7F7F" transform="translate(35,38)"/>
<path d="M0 0 C0.99 0.33 1.98 0.66 3 1 C3 2.65 3 4.3 3 6 C2.67 5.34 2.34 4.68 2 4 C-0.475 5.485 -0.475 5.485 -3 7 C-3.33 5.68 -3.66 4.36 -4 3 C-3.01 2.67 -2.02 2.34 -1 2 C-0.67 1.34 -0.34 0.68 0 0 Z " fill="#6A6A6A" transform="translate(33,31)"/>
<path d="M0 0 C0.66 0 1.32 0 2 0 C0.59928507 5.29158974 -2.85487245 7.77478044 -7 11 C-5.67826848 7.03480543 -4.03505387 4.83924395 -1 2 C-0.67 1.34 -0.34 0.68 0 0 Z " fill="#9B9B9B" transform="translate(97,84)"/>
<path d="M0 0 C0.66 0 1.32 0 2 0 C1.34 1.98 0.68 3.96 0 6 C-1.65 6 -3.3 6 -5 6 C-4.67 4.68 -4.34 3.36 -4 2 C-3.01 2 -2.02 2 -1 2 C-0.67 1.34 -0.34 0.68 0 0 Z " fill="#CBCBCB" transform="translate(101,77)"/>
<path d="M0 0 C0.33 0.66 0.66 1.32 1 2 C3.02463255 2.65213292 3.02463255 2.65213292 5 3 C5 3.66 5 4.32 5 5 C1.7 4.34 -1.6 3.68 -5 3 C-5 2.34 -5 1.68 -5 1 C-3.35 0.67 -1.7 0.34 0 0 Z " fill="#BABABA" transform="translate(58,38)"/>
<path d="M0 0 C1.32 0.33 2.64 0.66 4 1 C3.67 2.98 3.34 4.96 3 7 C2.34 7 1.68 7 1 7 C0.67 7.99 0.34 8.98 0 10 C0 6.7 0 3.4 0 0 Z " fill="#393939" transform="translate(2,34)"/>
<path d="M0 0 C-0.33 1.32 -0.66 2.64 -1 4 C-2.65 4.33 -4.3 4.66 -6 5 C-6 4.01 -6 3.02 -6 2 C-3 0 -3 0 0 0 Z " fill="#D9D9D9" transform="translate(56,33)"/>
<path d="M0 0 C-3.31371 2.20914 -4.3446021 2.22481553 -8.1875 2.125 C-9.08855469 2.10695313 -9.98960938 2.08890625 -10.91796875 2.0703125 C-11.60503906 2.04710938 -12.29210938 2.02390625 -13 2 C-8.53448096 -0.31790713 -4.94391187 -1.64797062 0 0 Z " fill="#CDCDCD" transform="translate(70,106)"/>
<path d="M0 0 C0.268125 0.61875 0.53625 1.2375 0.8125 1.875 C1.95556848 4.2995233 1.95556848 4.2995233 5 6 C5 6.99 5 7.98 5 9 C4.01 9.33 3.02 9.66 2 10 C2 8.68 2 7.36 2 6 C1.01 6 0.02 6 -1 6 C-0.67 4.68 -0.34 3.36 0 2 C-0.66 1.67 -1.32 1.34 -2 1 C-1.34 0.67 -0.68 0.34 0 0 Z " fill="#ACACAC" transform="translate(46,91)"/>
<path d="M0 0 C0.61875 0.28875 1.2375 0.5775 1.875 0.875 C2.205 1.865 2.535 2.855 2.875 3.875 C0.235 3.545 -2.405 3.215 -5.125 2.875 C-2.69803371 -0.15870787 -2.69803371 -0.15870787 0 0 Z " fill="#808080" transform="translate(58.125,43.125)"/>
<path d="M0 0 C0.99 0.33 1.98 0.66 3 1 C1.25 5.875 1.25 5.875 -1 7 C-1.66 6.67 -2.32 6.34 -3 6 C-2 4 -1 2 0 0 Z " fill="#828282" transform="translate(43,26)"/>
<path d="M0 0 C0.33 0.66 0.66 1.32 1 2 C1.66 2 2.32 2 3 2 C3 2.66 3 3.32 3 4 C2.34 4 1.68 4 1 4 C1 4.99 1 5.98 1 7 C0.01 6.67 -0.98 6.34 -2 6 C-2 4.35 -2 2.7 -2 1 C-1.34 0.67 -0.68 0.34 0 0 Z " fill="#727272" transform="translate(38,25)"/>
<path d="M0 0 C0.99 0.33 1.98 0.66 3 1 C4 4 4 4 4 6 C4.33 6.66 4.66 7.32 5 8 C3.68 8.33 2.36 8.66 1 9 C-0.4783226 6.04335481 -0.06032783 3.25770263 0 0 Z " fill="#787878" transform="translate(9,73)"/>
<path d="M0 0 C0.33 1.32 0.66 2.64 1 4 C0.01 4.33 -0.98 4.66 -2 5 C-2.66 5.66 -3.32 6.32 -4 7 C-5 4 -5 4 -4 1 C-1.9375 0.3125 -1.9375 0.3125 0 0 Z " fill="#D2D2D2" transform="translate(97,60)"/>
<path d="M0 0 C1.25541557 3.76624671 0.37061958 5.37188934 -1 9 C-2.32 8.67 -3.64 8.34 -5 8 C-3.62845496 5.04590299 -2.01136276 2.55991624 0 0 Z " fill="#9B9B9B" transform="translate(98,52)"/>
<path d="M0 0 C2.64 0 5.28 0 8 0 C8 0.99 8 1.98 8 3 C5.69 3.33 3.38 3.66 1 4 C0.67 2.68 0.34 1.36 0 0 Z " fill="#989898" transform="translate(39,8)"/>
<path d="M0 0 C-0.33 1.98 -0.66 3.96 -1 6 C-1.66 6 -2.32 6 -3 6 C-3.33 7.32 -3.66 8.64 -4 10 C-5.3442623 4.62295082 -5.3442623 4.62295082 -3.6875 1.625 C-2 0 -2 0 0 0 Z " fill="#C6C6C6" transform="translate(57,93)"/>
<path d="M0 0 C0 1.65 0 3.3 0 5 C-1.65 5 -3.3 5 -5 5 C-5 4.01 -5 3.02 -5 2 C-2 0 -2 0 0 0 Z " fill="#5F5F5F" transform="translate(10,74)"/>
<path d="M0 0 C1.32 0.33 2.64 0.66 4 1 C3.67 2.32 3.34 3.64 3 5 C1.35 5.33 -0.3 5.66 -2 6 C-1.34 4.02 -0.68 2.04 0 0 Z " fill="#505050" transform="translate(18,72)"/>
<path d="M0 0 C0.99 0.33 1.98 0.66 3 1 C3.66 0.67 4.32 0.34 5 0 C5 0.99 5 1.98 5 3 C4.34 3 3.68 3 3 3 C3 3.66 3 4.32 3 5 C1.68 5 0.36 5 -1 5 C-0.67 3.35 -0.34 1.7 0 0 Z " fill="#7B7B7B" transform="translate(14,36)"/>
<path d="M0 0 C1.32 0 2.64 0 4 0 C3.67 1.98 3.34 3.96 3 6 C2.01 6 1.02 6 0 6 C0 4.02 0 2.04 0 0 Z " fill="#878787" transform="translate(58,32)"/>
<path d="M0 0 C1.134375 0.020625 2.26875 0.04125 3.4375 0.0625 C2.4475 0.5575 2.4475 0.5575 1.4375 1.0625 C1.7675 2.0525 2.0975 3.0425 2.4375 4.0625 C1.4475 4.3925 0.4575 4.7225 -0.5625 5.0625 C-0.5625 4.0725 -0.5625 3.0825 -0.5625 2.0625 C-1.8825 1.7325 -3.2025 1.4025 -4.5625 1.0625 C-3.5625 0.0625 -3.5625 0.0625 0 0 Z " fill="#C0C0C0" transform="translate(44.5625,10.9375)"/>
<path d="M0 0 C0.99 0.33 1.98 0.66 3 1 C2 5 2 5 1 9 C-0.32 7.68 -1.64 6.36 -3 5 C-2.01 5 -1.02 5 0 5 C0 3.35 0 1.7 0 0 Z " fill="#888888" transform="translate(42,62)"/>
<path d="M0 0 C2 1 2 1 3.125 3.375 C4 6 4 6 4 9 C3.34 9 2.68 9 2 9 C2 8.34 2 7.68 2 7 C1.34 6.67 0.68 6.34 0 6 C0.33 4.68 0.66 3.36 1 2 C0.34 1.67 -0.32 1.34 -1 1 C-0.67 0.67 -0.34 0.34 0 0 Z " fill="#696969" transform="translate(34,17)"/>
<path d="M0 0 C0.66 0.33 1.32 0.66 2 1 C1.38125 1.7425 0.7625 2.485 0.125 3.25 C-1.60437281 5.48801188 -2.86106661 7.43739987 -4 10 C-4.66 10 -5.32 10 -6 10 C-4.6302836 6.00499382 -2.74277578 3.19990508 0 0 Z " fill="#5D5D5D" transform="translate(13,16)"/>
<path d="M0 0 C2.31 0 4.62 0 7 0 C7 0.99 7 1.98 7 3 C4.69 2.67 2.38 2.34 0 2 C0 1.34 0 0.68 0 0 Z " fill="#ABABAB" transform="translate(60,8)"/>
<path d="M0 0 C1.98 0.495 1.98 0.495 4 1 C3.67 2.32 3.34 3.64 3 5 C1.68 4.34 0.36 3.68 -1 3 C-0.67 2.01 -0.34 1.02 0 0 Z " fill="#686868" transform="translate(19,93)"/>
<path d="M0 0 C0.99 0.33 1.98 0.66 3 1 C3 1.66 3 2.32 3 3 C3.99 3.33 4.98 3.66 6 4 C5.67 5.32 5.34 6.64 5 8 C4.34 7.34 3.68 6.68 3 6 C3.33 5.34 3.66 4.68 4 4 C3.01 4 2.02 4 1 4 C0.67 2.68 0.34 1.36 0 0 Z " fill="#616161" transform="translate(42,70)"/>
<path d="M0 0 C0.33 1.65 0.66 3.3 1 5 C0.01 5.33 -0.98 5.66 -2 6 C-2 5.01 -2 4.02 -2 3 C-2.66 3 -3.32 3 -4 3 C-4 2.34 -4 1.68 -4 1 C-2 0 -2 0 0 0 Z " fill="#767676" transform="translate(37,58)"/>
<path d="M0 0 C0.99 0.33 1.98 0.66 3 1 C2.67 3.31 2.34 5.62 2 8 C0 6 0 6 -0.125 2.875 C-0.08375 1.92625 -0.0425 0.9775 0 0 Z " fill="#989898" transform="translate(43,43)"/>
<path d="M0 0 C1.98 0.495 1.98 0.495 4 1 C4 1.99 4 2.98 4 4 C2.35 3.67 0.7 3.34 -1 3 C-0.67 2.01 -0.34 1.02 0 0 Z " fill="#C5C5C5" transform="translate(46,32)"/>
<path d="M0 0 C0.66 0 1.32 0 2 0 C2.33 1.98 2.66 3.96 3 6 C1.35 5.67 -0.3 5.34 -2 5 C-1.34 3.35 -0.68 1.7 0 0 Z " fill="#CBCBCB" transform="translate(50,25)"/>
<path d="M0 0 C-0.66 1.32 -1.32 2.64 -2 4 C-2.33 3.34 -2.66 2.68 -3 2 C-3.99 2.33 -4.98 2.66 -6 3 C-6 2.01 -6 1.02 -6 0 C-2.25 -1.125 -2.25 -1.125 0 0 Z " fill="#B2B2B2" transform="translate(91,93)"/>
<path d="M0 0 C2.97 0.495 2.97 0.495 6 1 C6 1.99 6 2.98 6 4 C5.38125 3.814375 4.7625 3.62875 4.125 3.4375 C1.95839822 2.76313824 1.95839822 2.76313824 0 4 C0 2.68 0 1.36 0 0 Z " fill="#BABABA" transform="translate(83,61)"/>
<path d="M0 0 C0 2.64 0 5.28 0 8 C-0.66 7.67 -1.32 7.34 -2 7 C-2.625 3.9375 -2.625 3.9375 -3 1 C-1 0 -1 0 0 0 Z " fill="#939393" transform="translate(23,50)"/>
<path d="M0 0 C0.99 0.495 0.99 0.495 2 1 C2.75 4.4375 2.75 4.4375 3 8 C2.34 8.66 1.68 9.32 1 10 C0.37542727 6.56484998 0 3.50935186 0 0 Z " fill="#4F4F4F" transform="translate(17,49)"/>
<path d="M0 0 C0 1.98 0 3.96 0 6 C0.66 6.33 1.32 6.66 2 7 C0.68 6.67 -0.64 6.34 -2 6 C-2.33 4.35 -2.66 2.7 -3 1 C-1 0 -1 0 0 0 Z " fill="#5C5C5C" transform="translate(26,47)"/>
<path d="M0 0 C0.66 0.33 1.32 0.66 2 1 C1.67 2.65 1.34 4.3 1 6 C0.01 6 -0.98 6 -2 6 C-1.34 4.02 -0.68 2.04 0 0 Z " fill="#CACACA" transform="translate(35,45)"/>
<path d="M0 0 C0.99 0 1.98 0 3 0 C3 0.66 3 1.32 3 2 C3.66 2 4.32 2 5 2 C4.67 2.66 4.34 3.32 4 4 C2.35 3.67 0.7 3.34 -1 3 C-1.33 3.66 -1.66 4.32 -2 5 C-1.125 1.125 -1.125 1.125 0 0 Z " fill="#D2D2D2" transform="translate(93,24)"/>
<path d="M0 0 C0.99 0.33 1.98 0.66 3 1 C3 1.66 3 2.32 3 3 C-2.75 4.125 -2.75 4.125 -5 3 C-4.67 2.34 -4.34 1.68 -4 1 C-2.02 1.495 -2.02 1.495 0 2 C0 1.34 0 0.68 0 0 Z " fill="#ACACAC" transform="translate(68,21)"/>
</svg>
