<?xml version="1.0" encoding="UTF-8"?>
<svg version="1.1" xmlns="http://www.w3.org/2000/svg" width="110" height="110">
<path d="M0 0 C3.59764814 2.78358177 7.04461524 5.53506615 10 9 C10 9.66 10 10.32 10 11 C10.66 11 11.32 11 12 11 C14.84456788 15.88570819 17.45454854 20.52067211 19 26 C20.65 26.33 22.3 26.66 24 27 C24 29.31 24 31.62 24 34 C23.34 34 22.68 34 22 34 C22.165 34.81082031 22.33 35.62164062 22.5 36.45703125 C23.08188311 40.58021857 23.07168443 44.53338738 23 48.6875 C22.83217277 54.42039694 22.83217277 54.42039694 24 60 C24.08291953 61.9920303 24.10738177 63.98673713 24.09765625 65.98046875 C24.09282227 67.72553711 24.09282227 67.72553711 24.08789062 69.50585938 C24.07532227 71.32827148 24.07532227 71.32827148 24.0625 73.1875 C24.05798828 74.41404297 24.05347656 75.64058594 24.04882812 76.90429688 C24.03703065 79.93624668 24.02056921 82.96809906 24 86 C23.30132812 86.12189697 22.60265625 86.24379395 21.8828125 86.36938477 C20.97273438 86.53752686 20.06265625 86.70566895 19.125 86.87890625 C18.22007813 87.04205322 17.31515625 87.2052002 16.3828125 87.37329102 C13.32038158 88.178748 12.18013692 89.7517338 10 92 C4.66392495 94.27454998 -0.06991098 95.12539906 -5.8671875 94.84375 C-9.61224381 95.1181131 -12.93936922 96.69593012 -16.4140625 98.04296875 C-25.96583442 101.57799008 -37.34453283 100.78896492 -47 98 C-48.07314453 97.72542969 -48.07314453 97.72542969 -49.16796875 97.4453125 C-61.91393042 93.79071818 -73.30998697 84.5633789 -79.94140625 73.11328125 C-83.28879414 66.43085745 -86.13380547 59.77563396 -86.11352539 52.23144531 C-86.11344986 51.29077209 -86.11337433 50.35009888 -86.11329651 49.38092041 C-86.10813522 48.37349792 -86.10297394 47.36607544 -86.09765625 46.328125 C-86.0962413 45.29057068 -86.09482635 44.25301636 -86.09336853 43.184021 C-86.08777447 39.87265124 -86.07522303 36.56134929 -86.0625 33.25 C-86.05748423 31.00390723 -86.05292146 28.75781339 -86.04882812 26.51171875 C-86.03780699 21.0077894 -86.02107474 15.50389954 -86 10 C-84.73542969 9.94392578 -84.73542969 9.94392578 -83.4453125 9.88671875 C-81.80175781 9.78810547 -81.80175781 9.78810547 -80.125 9.6875 C-79.03445312 9.62949219 -77.94390625 9.57148438 -76.8203125 9.51171875 C-75.88960937 9.34285156 -74.95890625 9.17398437 -74 9 C-73.34 8.01 -72.68 7.02 -72 6 C-71.34 6 -70.68 6 -70 6 C-69.67 5.01 -69.34 4.02 -69 3 C-50.40378876 -14.09717024 -20.02167074 -13.92811878 0 0 Z " fill="#9E9E9F" transform="translate(86,9)"/>
<path d="M0 0 C0.99 0.33 1.98 0.66 3 1 C-0.75 4 -0.75 4 -3 4 C-3 4.99 -3 5.98 -3 7 C-2.01 6.71125 -1.02 6.4225 0 6.125 C13.01414779 2.42972635 13.01414779 2.42972635 20 3 C20 3.99 20 4.98 20 6 C19.01 6.33 18.02 6.66 17 7 C18.36983503 10.16115776 18.9890638 10.9927092 22 13 C27.27732172 13.99485091 32.58472462 14.28270626 37.9375 14.5625 C38.71673828 14.60568359 39.49597656 14.64886719 40.29882812 14.69335938 C42.19907117 14.79828077 44.09951669 14.8995245 46 15 C46 14.34 46 13.68 46 13 C50.875 14.75 50.875 14.75 52 17 C51.34 17 50.68 17 50 17 C50.495 18.11375 50.495 18.11375 51 19.25 C52 22 52 22 52 26 C53.32 26 54.64 26 56 26 C56 26.66 56 27.32 56 28 C56.66 28 57.32 28 58 28 C58 28.7425 58 29.485 58 30.25 C59.19504426 33.53637171 59.82762053 33.68502948 62.875 35.125 C63.57367188 35.41632812 64.27234375 35.70765625 64.9921875 36.0078125 C67.13617476 37.06729258 68.33268236 38.31446031 70 40 C71.485 40.495 71.485 40.495 73 41 C73.6875 43.0625 73.6875 43.0625 74 45 C73.34 45 72.68 45 72 45 C71.814375 46.918125 71.814375 46.918125 71.625 48.875 C71.25 52.75 71.25 52.75 69 55 C65.20551875 52.64480474 63.79421631 50.0369867 62 46 C60.02 46 58.04 46 56 46 C55.67 47.65 55.34 49.3 55 51 C54.34 51 53.68 51 53 51 C52.67 51.99 52.34 52.98 52 54 C51.34 54 50.68 54 50 54 C50 52.68 50 51.36 50 50 C48.5459375 49.814375 48.5459375 49.814375 47.0625 49.625 C46.051875 49.41875 45.04125 49.2125 44 49 C43.67 48.34 43.34 47.68 43 47 C40.69 47 38.38 47 36 47 C35.505 47.99 35.505 47.99 35 49 C18.967057 49.26093397 18.967057 49.26093397 14.5625 46.4375 C10.90465342 44.38553728 8.1556721 44.78869464 4 45 C4.33 45.99 4.66 46.98 5 48 C5.99 48 6.98 48 8 48 C9.91931539 48.77772548 11.81371059 49.61821675 13.6875 50.5 C14.68136719 50.9640625 15.67523438 51.428125 16.69921875 51.90625 C17.45847656 52.2671875 18.21773437 52.628125 19 53 C19 56.3 19 59.6 19 63 C18.01 63 17.02 63 16 63 C15.67 62.01 15.34 61.02 15 60 C14.34 60 13.68 60 13 60 C13.495 61.98 13.495 61.98 14 64 C8.25 69 8.25 69 6 69 C6 69.66 6 70.32 6 71 C2.34346173 73.43769218 0.30999899 73.23944439 -4 73 C-4.495 72.505 -4.495 72.505 -5 72 C-7.03985647 71.98726301 -7.03985647 71.98726301 -9.375 72.25 C-10.16648437 72.31703125 -10.95796875 72.3840625 -11.7734375 72.453125 C-14.35133561 73.08629296 -15.32367504 73.98841004 -17 76 C-15.27144074 78.14567913 -15.27144074 78.14567913 -13 80 C-10.78141747 79.86358623 -10.78141747 79.86358623 -9 79 C-8.773125 79.804375 -8.54625 80.60875 -8.3125 81.4375 C-7.879375 82.283125 -7.44625 83.12875 -7 84 C-4.45224694 84.89386164 -4.45224694 84.89386164 -2 85 C-2 84.01 -2 83.02 -2 82 C-3.485 81.505 -3.485 81.505 -5 81 C-5 80.67 -5 80.34 -5 80 C-3.25034642 79.94570041 -1.50020213 79.90707177 0.25 79.875 C1.22453125 79.85179688 2.1990625 79.82859375 3.203125 79.8046875 C6.0196498 80.00137219 7.60949036 80.55431084 10 82 C10 82.99 10 83.98 10 85 C9.34 85 8.68 85 8 85 C7.67 85.66 7.34 86.32 7 87 C6.01 86.67 5.02 86.34 4 86 C4 86.66 4 87.32 4 88 C3.01 88.495 3.01 88.495 2 89 C3.2375 89.391875 4.475 89.78375 5.75 90.1875 C9.70538366 91.64622305 11.67149343 93.41021904 14 97 C11.01266946 98.65962808 8.40843984 99.63301459 5 100 C-7.13228698 95.3102084 -17.81703201 83.86330107 -23.28125 72.28515625 C-25.49576615 66.89913662 -27.12927462 62.09015718 -27.11352539 56.23144531 C-27.11344986 55.29077209 -27.11337433 54.35009888 -27.11329651 53.38092041 C-27.10813522 52.37349792 -27.10297394 51.36607544 -27.09765625 50.328125 C-27.0962413 49.29057068 -27.09482635 48.25301636 -27.09336853 47.184021 C-27.08777447 43.87265124 -27.07522303 40.56134929 -27.0625 37.25 C-27.05748423 35.00390723 -27.05292146 32.75781339 -27.04882812 30.51171875 C-27.03780699 25.0077894 -27.02107474 19.50389954 -27 14 C-26.15695313 13.96261719 -25.31390625 13.92523438 -24.4453125 13.88671875 C-22.80175781 13.78810547 -22.80175781 13.78810547 -21.125 13.6875 C-20.03445312 13.62949219 -18.94390625 13.57148438 -17.8203125 13.51171875 C-16.88960937 13.34285156 -15.95890625 13.17398437 -15 13 C-14.34 12.01 -13.68 11.02 -13 10 C-12.34 10 -11.68 10 -11 10 C-10.67 9.01 -10.34 8.02 -10 7 C-7.8203125 5.140625 -7.8203125 5.140625 -5.125 3.25 C-4.24070312 2.61578125 -3.35640625 1.9815625 -2.4453125 1.328125 C-1.23488281 0.67070313 -1.23488281 0.67070313 0 0 Z " fill="#9C9D9D" transform="translate(27,5)"/>
<path d="M0 0 C1.15508057 0.00644531 2.31016113 0.01289062 3.50024414 0.01953125 C18.64441691 0.34468335 29.41406046 5.93824212 40.4375 16.375 C42.25 18.5 42.25 18.5 42.25 20.5 C42.91 20.5 43.57 20.5 44.25 20.5 C47.09456788 25.38570819 49.70454854 30.02067211 51.25 35.5 C52.9 35.83 54.55 36.16 56.25 36.5 C56.25 38.81 56.25 41.12 56.25 43.5 C55.59 43.5 54.93 43.5 54.25 43.5 C54.415 44.263125 54.58 45.02625 54.75 45.8125 C55.77396514 53.36424293 56.36448143 62.33835821 53.25 69.5 C51.765 69.995 51.765 69.995 50.25 70.5 C49.92 69.84 49.59 69.18 49.25 68.5 C44.83063627 66.15221302 40.15120939 65.90576461 35.25 65.5 C35.25 64.51 35.25 63.52 35.25 62.5 C32.23901664 62.98175734 30.59607955 63.90715802 27.9375 65.5625 C24.3330595 67.72360394 21.45846204 67.84354792 17.25 67.5 C18.125 62.75 18.125 62.75 19.25 60.5 C16.33482708 61.57401108 14.47189824 62.27810176 12.25 64.5 C6.57511657 64.61127222 0.39336587 63.94922184 -4.75 61.5 C-6.41666667 59.83333333 -8.08333333 58.16666667 -9.75 56.5 C-12.04277941 55.28166115 -14.30813492 54.40971444 -16.75 53.5 C-16.75 52.84 -16.75 52.18 -16.75 51.5 C-13.75 50.5 -13.75 50.5 -11.83300781 51.39794922 C-11.14561523 51.76162598 -10.45822266 52.12530273 -9.75 52.5 C-7.63421181 52.94625818 -7.63421181 52.94625818 -5.421875 53.1328125 C-4.62265625 53.21660156 -3.8234375 53.30039062 -3 53.38671875 C-2.175 53.46535156 -1.35 53.54398438 -0.5 53.625 C0.34046875 53.71136719 1.1809375 53.79773437 2.046875 53.88671875 C4.11388223 54.09811722 6.18185928 54.29999462 8.25 54.5 C8.58 53.51 8.91 52.52 9.25 51.5 C11.56 51.5 13.87 51.5 16.25 51.5 C16.58 52.49 16.91 53.48 17.25 54.5 C19.23 54.5 21.21 54.5 23.25 54.5 C23.58 55.49 23.91 56.48 24.25 57.5 C23.755 58.49 23.755 58.49 23.25 59.5 C23.70375 59.005 24.1575 58.51 24.625 58 C26.25 56.5 26.25 56.5 28.25 56.5 C28.25 54.85 28.25 53.2 28.25 51.5 C31.17824652 50.52391783 33.20613276 50.41773332 36.25 50.5 C37.57 53.14 38.89 55.78 40.25 58.5 C41.24 58.5 42.23 58.5 43.25 58.5 C43.75559908 57.06445975 44.2542749 55.6264798 44.75 54.1875 C45.0284375 53.38699219 45.306875 52.58648437 45.59375 51.76171875 C46.38933107 49.41230578 46.38933107 49.41230578 46.25 46.5 C45.693125 46.4175 45.13625 46.335 44.5625 46.25 C41.54693018 45.27197736 39.708046 43.48984676 37.25 41.5 C35.27288349 40.45548562 33.27749004 39.44301862 31.25 38.5 C31.25 36.85 31.25 35.2 31.25 33.5 C30.59 33.5 29.93 33.5 29.25 33.5 C29.25 32.84 29.25 32.18 29.25 31.5 C27.93 31.5 26.61 31.5 25.25 31.5 C24.88883954 30.0225254 24.53624952 28.54295325 24.1875 27.0625 C23.89166016 25.82693359 23.89166016 25.82693359 23.58984375 24.56640625 C23.47769531 23.88449219 23.36554688 23.20257812 23.25 22.5 C23.745 22.005 23.745 22.005 24.25 21.5 C22.6 20.51 20.95 19.52 19.25 18.5 C19.25 19.16 19.25 19.82 19.25 20.5 C16.56243045 20.52720824 13.87514202 20.5469388 11.1875 20.5625 C10.43533203 20.57087891 9.68316406 20.57925781 8.90820312 20.58789062 C-2.64487767 20.63790396 -2.64487767 20.63790396 -7.0625 18.25 C-9.07190011 16.16617766 -9.8630332 14.23481429 -10.75 11.5 C-9.43 11.5 -8.11 11.5 -6.75 11.5 C-6.75 10.51 -6.75 9.52 -6.75 8.5 C-7.46414062 8.644375 -8.17828125 8.78875 -8.9140625 8.9375 C-15.83142306 10.30953846 -22.75908426 11.5678779 -29.75 12.5 C-29.75 11.51 -29.75 10.52 -29.75 9.5 C-28.11935236 8.44228261 -26.44719127 7.44726954 -24.75 6.5 C-24.27981445 6.00822266 -23.80962891 5.51644531 -23.32519531 5.00976562 C-17.42116818 -0.64902294 -7.58254018 -0.04390267 0 0 Z " fill="#D2D2D2" transform="translate(53.75,-0.5)"/>
<path d="M0 0 C1.98 0 3.96 0 6 0 C6.33 0.99 6.66 1.98 7 3 C7.66 3 8.32 3 9 3 C9 3.66 9 4.32 9 5 C9.804375 5.2475 10.60875 5.495 11.4375 5.75 C12.283125 6.1625 13.12875 6.575 14 7 C14.12375 7.639375 14.2475 8.27875 14.375 8.9375 C14.58125 9.618125 14.7875 10.29875 15 11 C18.48797488 12.79271391 18.48797488 12.79271391 22 14 C22.66 12.35 23.32 10.7 24 9 C25.65 9 27.3 9 29 9 C29 9.99 29 10.98 29 12 C29.66 12.33 30.32 12.66 31 13 C31 13.66 31 14.32 31 15 C33.31 15.66 35.62 16.32 38 17 C38.12375 17.969375 38.2475 18.93875 38.375 19.9375 C38.58125 20.948125 38.7875 21.95875 39 23 C39.66 23.33 40.32 23.66 41 24 C39.61122646 27.35620271 38.08322035 29.07298728 35 31 C34.34 31 33.68 31 33 31 C33 31.66 33 32.32 33 33 C29.34346173 35.43769218 27.30999899 35.23944439 23 35 C22.505 34.505 22.505 34.505 22 34 C19.96014353 33.98726301 19.96014353 33.98726301 17.625 34.25 C16.83351563 34.31703125 16.04203125 34.3840625 15.2265625 34.453125 C12.64866439 35.08629296 11.67632496 35.98841004 10 38 C11.72855926 40.14567913 11.72855926 40.14567913 14 42 C16.21858253 41.86358623 16.21858253 41.86358623 18 41 C18.3403125 42.2065625 18.3403125 42.2065625 18.6875 43.4375 C19.120625 44.283125 19.55375 45.12875 20 46 C22.54775306 46.89386164 22.54775306 46.89386164 25 47 C25 46.01 25 45.02 25 44 C23.515 43.505 23.515 43.505 22 43 C22 42.67 22 42.34 22 42 C23.74965358 41.94570041 25.49979787 41.90707177 27.25 41.875 C28.22453125 41.85179687 29.1990625 41.82859375 30.203125 41.8046875 C33.0196498 42.00137219 34.60949036 42.55431084 37 44 C37 44.99 37 45.98 37 47 C36.34 47 35.68 47 35 47 C34.505 47.99 34.505 47.99 34 49 C33.01 48.67 32.02 48.34 31 48 C31 48.66 31 49.32 31 50 C30.01 50.495 30.01 50.495 29 51 C30.2375 51.391875 31.475 51.78375 32.75 52.1875 C36.70538366 53.64622305 38.67149343 55.41021904 41 59 C38.01266946 60.65962808 35.40843984 61.63301459 32 62 C19.86771302 57.3102084 9.18296799 45.86330107 3.71875 34.28515625 C1.38651997 28.61283963 -0.13191295 23.74433048 -0.09765625 17.578125 C-0.09443359 16.55332031 -0.09121094 15.52851562 -0.08789062 14.47265625 C-0.07951172 13.40917969 -0.07113281 12.34570312 -0.0625 11.25 C-0.05798828 10.17105469 -0.05347656 9.09210937 -0.04882812 7.98046875 C-0.03705727 5.32025617 -0.02061399 2.66015635 0 0 Z " fill="#666666" transform="translate(0,43)"/>
<path d="M0 0 C1.1725131 0.95117134 2.33787015 1.91117009 3.5 2.875 C4.47453125 3.67550781 4.47453125 3.67550781 5.46875 4.4921875 C5.9740625 4.98976563 6.479375 5.48734375 7 6 C7 6.66 7 7.32 7 8 C7.66 8 8.32 8 9 8 C11.84456788 12.88570819 14.45454854 17.52067211 16 23 C17.65 23.33 19.3 23.66 21 24 C21 26.31 21 28.62 21 31 C20.34 31 19.68 31 19 31 C19.165 31.763125 19.33 32.52625 19.5 33.3125 C20.52396514 40.86424293 21.11448143 49.83835821 18 57 C16.515 57.495 16.515 57.495 15 58 C14.67 57.34 14.34 56.68 14 56 C9.58063627 53.65221302 4.90120939 53.40576461 0 53 C0 52.01 0 51.02 0 50 C-3.01098336 50.48175734 -4.65392045 51.40715802 -7.3125 53.0625 C-10.9169405 55.22360394 -13.79153796 55.34354792 -18 55 C-17.125 50.25 -17.125 50.25 -16 48 C-18.91517292 49.07401108 -20.77810176 49.77810176 -23 52 C-28.67488343 52.11127222 -34.85663413 51.44922184 -40 49 C-41.66666667 47.33333333 -43.33333333 45.66666667 -45 44 C-47.29277941 42.78166115 -49.55813492 41.90971444 -52 41 C-52 40.34 -52 39.68 -52 39 C-49 38 -49 38 -47.08300781 38.89794922 C-46.39561523 39.26162598 -45.70822266 39.62530273 -45 40 C-42.88421181 40.44625818 -42.88421181 40.44625818 -40.671875 40.6328125 C-39.87265625 40.71660156 -39.0734375 40.80039062 -38.25 40.88671875 C-37.425 40.96535156 -36.6 41.04398438 -35.75 41.125 C-34.90953125 41.21136719 -34.0690625 41.29773437 -33.203125 41.38671875 C-31.13611777 41.59811722 -29.06814072 41.79999462 -27 42 C-26.67 41.01 -26.34 40.02 -26 39 C-23.69 39 -21.38 39 -19 39 C-18.67 39.99 -18.34 40.98 -18 42 C-16.02 42 -14.04 42 -12 42 C-11.67 42.99 -11.34 43.98 -11 45 C-11.495 45.99 -11.495 45.99 -12 47 C-11.54625 46.505 -11.0925 46.01 -10.625 45.5 C-9 44 -9 44 -7 44 C-7 42.35 -7 40.7 -7 39 C-4.07175348 38.02391783 -2.04386724 37.91773332 1 38 C2.32 40.64 3.64 43.28 5 46 C5.99 46 6.98 46 8 46 C8.50559908 44.56445975 9.0042749 43.1264798 9.5 41.6875 C9.7784375 40.88699219 10.056875 40.08648437 10.34375 39.26171875 C11.13933107 36.91230578 11.13933107 36.91230578 11 34 C11.66 34 12.32 34 13 34 C12.01 32.02 11.02 30.04 10 28 C10.66 28 11.32 28 12 28 C12 27.01 12 26.02 12 25 C10.35 25.99 8.7 26.98 7 28 C3.50720976 24.97291512 1.97766821 22.53282535 1 18 C1.31669821 15.66435067 1.64820803 13.3306218 2 11 C1.34 10.01 0.68 9.02 0 8 C-0.25760279 5.30547479 -0.08900053 2.71451625 0 0 Z " fill="#BEBEBF" transform="translate(89,12)"/>
<path d="M0 0 C4.875 1.75 4.875 1.75 6 4 C5.34 4 4.68 4 4 4 C4.33 4.7425 4.66 5.485 5 6.25 C6 9 6 9 6 13 C7.32 13 8.64 13 10 13 C10 13.66 10 14.32 10 15 C10.66 15 11.32 15 12 15 C12 15.7425 12 16.485 12 17.25 C13.19504426 20.53637171 13.82762053 20.68502948 16.875 22.125 C17.57367188 22.41632812 18.27234375 22.70765625 18.9921875 23.0078125 C21.13617476 24.06729258 22.33268236 25.31446031 24 27 C24.99 27.33 25.98 27.66 27 28 C27.6875 30.0625 27.6875 30.0625 28 32 C27.34 32 26.68 32 26 32 C25.814375 33.918125 25.814375 33.918125 25.625 35.875 C25.25 39.75 25.25 39.75 23 42 C19.20551875 39.64480474 17.79421631 37.0369867 16 33 C14.02 33 12.04 33 10 33 C9.67 34.65 9.34 36.3 9 38 C8.34 38 7.68 38 7 38 C6.67 38.99 6.34 39.98 6 41 C5.34 41 4.68 41 4 41 C4 39.68 4 38.36 4 37 C2.02 36.67 0.04 36.34 -2 36 C-2.33 35.01 -2.66 34.02 -3 33 C-0.03 33.33 2.94 33.66 6 34 C6.45375 33.21625 6.9075 32.4325 7.375 31.625 C9 29 9 29 11 27 C11.99 27 12.98 27 14 27 C14 26.01 14 25.02 14 24 C11.20826945 23.97309896 8.41679652 23.95320947 5.625 23.9375 C4.8309375 23.92912109 4.036875 23.92074219 3.21875 23.91210938 C-1.02392222 23.76959849 -1.02392222 23.76959849 -5 25 C-6.83037287 25.12145993 -8.66564133 25.17543185 -10.5 25.1875 C-11.4796875 25.20167969 -12.459375 25.21585938 -13.46875 25.23046875 C-16 25 -16 25 -18 23 C-18.33 22.34 -18.66 21.68 -19 21 C-19.99 20.67 -20.98 20.34 -22 20 C-22 19.01 -22 18.02 -22 17 C-17.81804463 15.688014 -14.35420973 15 -10 15 C-9.34 14.34 -8.68 13.68 -8 13 C-5.6171875 12.5859375 -5.6171875 12.5859375 -2.875 12.375 C-1.96492188 12.30023438 -1.05484375 12.22546875 -0.1171875 12.1484375 C0.58148438 12.09945313 1.28015625 12.05046875 2 12 C2 9.03 2 6.06 2 3 C0.35 3 -1.3 3 -3 3 C-2.01 2.67 -1.02 2.34 0 2 C0 1.34 0 0.68 0 0 Z " fill="#A6A7A8" transform="translate(73,18)"/>
<path d="M0 0 C0.99 0 1.98 0 3 0 C3 1.32 3 2.64 3 4 C5.31 4 7.62 4 10 4 C10 4.66 10 5.32 10 6 C14.62 6 19.24 6 24 6 C24.495 7.485 24.495 7.485 25 9 C24.34 9 23.68 9 23 9 C23 9.99 23 10.98 23 12 C17.50282896 13.89246872 12.98336895 15.12607887 7.11328125 14.84375 C4.39723061 15.04456705 2.2752626 15.92594989 -0.25 16.9375 C-6.12695073 19.27014664 -11.71975041 19.78079408 -18 20 C-18.28875 19.030625 -18.5775 18.06125 -18.875 17.0625 C-19.64214682 13.89335797 -19.64214682 13.89335797 -22 13 C-23.7685094 10.08716099 -24.37833091 7.32290379 -25 4 C-24.07316406 4.01160156 -23.14632812 4.02320312 -22.19140625 4.03515625 C-20.39509766 4.04869141 -20.39509766 4.04869141 -18.5625 4.0625 C-16.77005859 4.07990234 -16.77005859 4.07990234 -14.94140625 4.09765625 C-12.11126659 4.33901792 -12.11126659 4.33901792 -11 3 C-8.42794627 2.4284325 -5.84216087 1.97130198 -3.25 1.5 C-1.04154394 1.22050243 -1.04154394 1.22050243 0 0 Z " fill="#C0C0C0" transform="translate(73,89)"/>
<path d="M0 0 C0.67417969 0.28617188 1.34835938 0.57234375 2.04296875 0.8671875 C6.07709448 2.41262536 10.0333562 2.71295932 14.3125 3.125 C15.14845703 3.21136719 15.98441406 3.29773437 16.84570312 3.38671875 C18.8964763 3.59765542 20.94815903 3.79971646 23 4 C23.33 3.01 23.66 2.02 24 1 C26.31 1 28.62 1 31 1 C31.495 2.485 31.495 2.485 32 4 C33.98 4 35.96 4 38 4 C38.495 5.485 38.495 5.485 39 7 C38.67 7.66 38.34 8.32 38 9 C38.680625 8.2575 38.680625 8.2575 39.375 7.5 C41 6 41 6 43 6 C43 4.35 43 2.7 43 1 C45.92824652 0.02391783 47.95613276 -0.08226668 51 0 C51.24234375 0.55429687 51.4846875 1.10859375 51.734375 1.6796875 C52.06953125 2.40414062 52.4046875 3.12859375 52.75 3.875 C53.23726562 4.95394531 53.23726562 4.95394531 53.734375 6.0546875 C55.21929686 8.3370674 56.50415408 9.00375898 59 10 C58.67 11.65 58.34 13.3 58 15 C55.36 15 52.72 15 50 15 C50 14.01 50 13.02 50 12 C46.98901664 12.48175734 45.34607955 13.40715802 42.6875 15.0625 C39.0830595 17.22360394 36.20846204 17.34354792 32 17 C32.875 12.25 32.875 12.25 34 10 C31.08482708 11.07401108 29.22189824 11.77810176 27 14 C21.32511657 14.11127222 15.14336587 13.44922184 10 11 C8.33333333 9.33333333 6.66666667 7.66666667 5 6 C2.70722059 4.78166115 0.44186508 3.90971444 -2 3 C-2 2.34 -2 1.68 -2 1 C-1.34 0.67 -0.68 0.34 0 0 Z " fill="#D0D0D0" transform="translate(39,50)"/>
<path d="M0 0 C0.99 0 1.98 0 3 0 C3 0.66 3 1.32 3 2 C4.32 2.66 5.64 3.32 7 4 C7 4.66 7 5.32 7 6 C7.969375 6.28875 8.93875 6.5775 9.9375 6.875 C13 8 13 8 14 10 C15.81052458 10.94306486 15.81052458 10.94306486 17.9375 11.6875 C19.00291016 12.09548828 19.00291016 12.09548828 20.08984375 12.51171875 C22.06716261 13.2392502 22.06716261 13.2392502 24 12 C24 12.66 24 13.32 24 14 C25.32 14.66 26.64 15.32 28 16 C27.34 16.33 26.68 16.66 26 17 C27.65 17.66 29.3 18.32 31 19 C30.34 19.66 29.68 20.32 29 21 C28.34 21.99 27.68 22.98 27 24 C27.495 24.61875 27.99 25.2375 28.5 25.875 C30 28 30 28 30 30 C29.34 30 28.68 30 28 30 C27.67 30.66 27.34 31.32 27 32 C27 31.34 27 30.68 27 30 C26.34 30 25.68 30 25 30 C24.67 30.66 24.34 31.32 24 32 C23.34 30.68 22.68 29.36 22 28 C20.35 28 18.7 28 17 28 C17 28.66 17 29.32 17 30 C16.34 30 15.68 30 15 30 C14.67 29.34 14.34 28.68 14 28 C13.67 28.66 13.34 29.32 13 30 C12.34 30 11.68 30 11 30 C11 29.34 11 28.68 11 28 C9.68 27.34 8.36 26.68 7 26 C7 25.01 7 24.02 7 23 C6.34 23 5.68 23 5 23 C4.80664062 22.18015625 4.61328125 21.3603125 4.4140625 20.515625 C4.15367187 19.43796875 3.89328125 18.3603125 3.625 17.25 C3.36976562 16.18265625 3.11453125 15.1153125 2.8515625 14.015625 C2.12674921 11.07796493 2.12674921 11.07796493 0.90625 8.84375 C-0.51169382 5.95896776 -0.12127634 3.15318496 0 0 Z " fill="#2B2B2B" transform="translate(1,44)"/>
<path d="M0 0 C0.99 0 1.98 0 3 0 C3.16802051 1.45817797 3.33437143 2.9165484 3.5 4.375 C3.5928125 5.18710937 3.685625 5.99921875 3.78125 6.8359375 C4 9 4 9 4 11 C4.66 11.33 5.32 11.66 6 12 C5.85691406 12.87011719 5.85691406 12.87011719 5.7109375 13.7578125 C5.01676069 18.64933746 4.61876408 22.46431253 7 27 C8.82423512 28.24774386 8.82423512 28.24774386 11 28 C13.24755753 26.6483633 13.24755753 26.6483633 15 25 C15.38218767 26.65614657 15.71395102 28.32457024 16 30 C15.67 30.33 15.34 30.66 15 31 C15.40929986 33.05396726 15.40929986 33.05396726 16 35 C13.875 35.3125 13.875 35.3125 11 35 C9.48806423 33.80975269 7.97872658 32.61090716 6.55859375 31.3125 C4.27350976 29.38821874 1.70683741 28.22452168 -1 27 C-1 25.35 -1 23.7 -1 22 C-1.66 22 -2.32 22 -3 22 C-3 21.34 -3 20.68 -3 20 C-4.32 20 -5.64 20 -7 20 C-7.66 17.03 -8.32 14.06 -9 11 C-8.34 11 -7.68 11 -7 11 C-7.33 8.69 -7.66 6.38 -8 4 C-6.576875 3.566875 -6.576875 3.566875 -5.125 3.125 C-1.94788422 2.23174891 -1.94788422 2.23174891 0 0 Z " fill="#DFDFDF" transform="translate(86,11)"/>
<path d="M0 0 C0.33 0.66 0.66 1.32 1 2 C3.31 2 5.62 2 8 2 C8 2.33 8 2.66 8 3 C4.7 3 1.4 3 -2 3 C-1.67 4.32 -1.34 5.64 -1 7 C-0.505 6.835 -0.01 6.67 0.5 6.5 C5.15245846 5.56950831 9.31850388 5.13874589 13.5625 7.3125 C14.366875 7.869375 15.17125 8.42625 16 9 C18.30623569 10.07559732 20.64598483 11.03069964 23 12 C23 12.66 23 13.32 23 14 C21.35 14 19.7 14 18 14 C18 14.66 18 15.32 18 16 C18.99 16.33 19.98 16.66 21 17 C22.0625 19.3125 22.0625 19.3125 23 22 C23.37125 22.70125 23.7425 23.4025 24.125 24.125 C25 26 25 26 25 29 C24.195625 29.12375 23.39125 29.2475 22.5625 29.375 C21.716875 29.58125 20.87125 29.7875 20 30 C19.67 30.66 19.34 31.32 19 32 C16.69 31.01 14.38 30.02 12 29 C15 27 15 27 18 26 C17.34 25.67 16.68 25.34 16 25 C15.67 24.01 15.34 23.02 15 22 C12.90280128 20.97718482 12.90280128 20.97718482 10.4375 20.3125 C9.61121094 20.06113281 8.78492187 19.80976562 7.93359375 19.55078125 C7.29550781 19.36902344 6.65742188 19.18726562 6 19 C6.33 18.34 6.66 17.68 7 17 C7.66 17 8.32 17 9 17 C9 16.34 9 15.68 9 15 C10.98 14.67 12.96 14.34 15 14 C14.67 13.01 14.34 12.02 14 11 C13.01 11 12.02 11 11 11 C11 10.34 11 9.68 11 9 C7.7 9.33 4.4 9.66 1 10 C1.66 10.33 2.32 10.66 3 11 C3 11.99 3 12.98 3 14 C0.6875 13.75 0.6875 13.75 -2 13 C-3.00642948 11.67151309 -4.00692179 10.33849671 -5 9 C-6.32 9 -7.64 9 -9 9 C-11.25 6.5 -11.25 6.5 -13 4 C-9.25474201 0.25474201 -5.01729091 0.31090051 0 0 Z " fill="#838383" transform="translate(22,76)"/>
<path d="M0 0 C-0.33 0.66 -0.66 1.32 -1 2 C-3.31 2 -5.62 2 -8 2 C-8 3.32 -8 4.64 -8 6 C0.00019797 6.60460336 7.89803594 7.12949391 15.92578125 6.9375 C18 7 18 7 20 8 C20 8.99 20 9.98 20 11 C18.02 11.66 16.04 12.32 14 13 C14 12.34 14 11.68 14 11 C12.68 11 11.36 11 10 11 C10 11.99 10 12.98 10 14 C10.928125 14.1546875 10.928125 14.1546875 11.875 14.3125 C14 15 14 15 16 18 C18.56282742 18.72965366 18.56282742 18.72965366 21 19 C21 19.33 21 19.66 21 20 C4.30640134 20.24670343 4.30640134 20.24670343 -0.3125 17.75 C-2.32190011 15.66617766 -3.1130332 13.73481429 -4 11 C-2.68 11 -1.36 11 0 11 C0 10.01 0 9.02 0 8 C-0.71414062 8.144375 -1.42828125 8.28875 -2.1640625 8.4375 C-9.08142306 9.80953846 -16.00908426 11.0678779 -23 12 C-23 11.01 -23 10.02 -23 9 C-21.36935236 7.94228261 -19.69719127 6.94726954 -18 6 C-17.53851562 5.50886719 -17.07703125 5.01773437 -16.6015625 4.51171875 C-12.36314721 0.51106822 -5.60138055 -0.43087543 0 0 Z " fill="#BDBDBD" transform="translate(47,0)"/>
<path d="M0 0 C0.68964844 -0.00386719 1.37929687 -0.00773437 2.08984375 -0.01171875 C7.24666707 -0.00166646 7.24666707 -0.00166646 9.5 1.125 C9.5 2.115 9.5 3.105 9.5 4.125 C8.51 4.125 7.52 4.125 6.5 4.125 C6.17 5.445 5.84 6.765 5.5 8.125 C4.84 8.125 4.18 8.125 3.5 8.125 C2.84 9.445 2.18 10.765 1.5 12.125 C-4.125 12.375 -4.125 12.375 -7.5 10.125 C-7.5 9.465 -7.5 8.805 -7.5 8.125 C-8.06170898 8.28798584 -8.62341797 8.45097168 -9.20214844 8.61889648 C-11.63553181 9.15485098 -13.77622228 9.23861396 -16.265625 9.22265625 C-17.15507813 9.21943359 -18.04453125 9.21621094 -18.9609375 9.21289062 C-19.88132812 9.20451172 -20.80171875 9.19613281 -21.75 9.1875 C-23.15378906 9.18073242 -23.15378906 9.18073242 -24.5859375 9.17382812 C-26.89069041 9.16206918 -29.19531227 9.14563426 -31.5 9.125 C-30.75634766 5.33886719 -30.75634766 5.33886719 -28.44921875 3.4140625 C-24.74091329 1.79321376 -21.295339 1.60092262 -17.3125 1.5 C-11.32690053 1.28679966 -5.98668622 -0.0335702 0 0 Z " fill="#818589" transform="translate(77.5,40.875)"/>
<path d="M0 0 C1.5 1.375 1.5 1.375 3 3 C3 3.66 3 4.32 3 5 C4.65 5.33 6.3 5.66 8 6 C8 5.01 8 4.02 8 3 C7.01 2.67 6.02 2.34 5 2 C5 1.67 5 1.34 5 1 C6.74965358 0.94570041 8.49979787 0.90707177 10.25 0.875 C11.22453125 0.85179688 12.1990625 0.82859375 13.203125 0.8046875 C16.0196498 1.00137219 17.60949036 1.55431084 20 3 C20 3.99 20 4.98 20 6 C19.34 6 18.68 6 18 6 C17.67 6.66 17.34 7.32 17 8 C16.01 7.67 15.02 7.34 14 7 C14 7.66 14 8.32 14 9 C13.01 9.495 13.01 9.495 12 10 C13.2375 10.391875 14.475 10.78375 15.75 11.1875 C19.70538366 12.64622305 21.67149343 14.41021904 24 18 C21.01266946 19.65962808 18.40843984 20.63301459 15 21 C7.55773039 18.12315629 0.14138934 12.01651944 -5 6 C-5 4.68 -5 3.36 -5 2 C-3.35 1.34 -1.7 0.68 0 0 Z " fill="#626262" transform="translate(17,84)"/>
<path d="M0 0 C0.99 0.33 1.98 0.66 3 1 C-0.75 4 -0.75 4 -3 4 C-3 4.99 -3 5.98 -3 7 C-2.01 6.71125 -1.02 6.4225 0 6.125 C13.01414779 2.42972635 13.01414779 2.42972635 20 3 C20 3.99 20 4.98 20 6 C18.98679687 6.19916016 18.98679687 6.19916016 17.953125 6.40234375 C17.06109375 6.57894531 16.1690625 6.75554688 15.25 6.9375 C14.36828125 7.11152344 13.4865625 7.28554687 12.578125 7.46484375 C10.97675908 7.79724849 9.38086616 8.15917448 7.796875 8.56640625 C6 9 6 9 4 9 C1.99787771 9.32033957 -0.00239695 9.65259077 -2 10 C-2.04125 10.598125 -2.0825 11.19625 -2.125 11.8125 C-3.45461294 15.13653235 -5.80726577 15.58782909 -9 17 C-9.845625 17.5775 -10.69125 18.155 -11.5625 18.75 C-14.52823015 20.27088726 -15.88084871 19.98030469 -19 19 C-19 18.34 -19 17.68 -19 17 C-20.32 16.34 -21.64 15.68 -23 15 C-23 14.67 -23 14.34 -23 14 C-19.97265625 13.75585938 -19.97265625 13.75585938 -16.9453125 13.51171875 C-14.60480784 13.12606964 -14.60480784 13.12606964 -13 10 C-12.34 10 -11.68 10 -11 10 C-10.67 9.01 -10.34 8.02 -10 7 C-7.8203125 5.140625 -7.8203125 5.140625 -5.125 3.25 C-4.24070312 2.61578125 -3.35640625 1.9815625 -2.4453125 1.328125 C-1.23488281 0.67070313 -1.23488281 0.67070313 0 0 Z " fill="#969696" transform="translate(27,5)"/>
<path d="M0 0 C0 2.64 0 5.28 0 8 C-9.02253886 8.83930594 -17.9401941 9.12224626 -27 9 C-27.33 7.02 -27.66 5.04 -28 3 C-18.76816191 -0.95650204 -9.68833763 -3.17376578 0 0 Z " fill="#A3A5A5" transform="translate(110,76)"/>
<path d="M0 0 C5.37732887 2.24652851 10.260128 4.59701497 15 8 C13.6875 10 13.6875 10 12 12 C11.01 12 10.02 12 9 12 C8.67 12.66 8.34 13.32 8 14 C7.34 13.67 6.68 13.34 6 13 C6.33 14.98 6.66 16.96 7 19 C5.02 18.01 3.04 17.02 1 16 C1 16.66 1 17.32 1 18 C-3.25472632 18.12156361 -7.14497757 17.92751122 -11 16 C-11.33 15.01 -11.66 14.02 -12 13 C-12.99 12.67 -13.98 12.34 -15 12 C-15 11.01 -15 10.02 -15 9 C-14.278125 9.185625 -13.55625 9.37125 -12.8125 9.5625 C-9.87173027 10.01995307 -7.85896942 9.73516357 -5 9 C-4.67 8.01 -4.34 7.02 -4 6 C-3.67 7.32 -3.34 8.64 -3 10 C-0.36 10.33 2.28 10.66 5 11 C5.33 10.34 5.66 9.68 6 9 C5.34 9 4.68 9 4 9 C3.67 8.01 3.34 7.02 3 6 C2.01 5.67 1.02 5.34 0 5 C-0.33 4.01 -0.66 3.02 -1 2 C-0.67 1.34 -0.34 0.68 0 0 Z " fill="#D4D4D4" transform="translate(72,2)"/>
<path d="M0 0 C4.29 0 8.58 0 13 0 C13 3.63 13 7.26 13 11 C9.37 11.66 5.74 12.32 2 13 C2 12.01 2 11.02 2 10 C-0.64 9.67 -3.28 9.34 -6 9 C-5.34 8.67 -4.68 8.34 -4 8 C-4 7.34 -4 6.68 -4 6 C-4.66 5.67 -5.32 5.34 -6 5 C-6 4.34 -6 3.68 -6 3 C-4.02 2.67 -2.04 2.34 0 2 C0 1.34 0 0.68 0 0 Z " fill="#72757B" transform="translate(97,84)"/>
<path d="M0 0 C1.65 0 3.3 0 5 0 C5 0.99 5 1.98 5 3 C5.66 3.33 6.32 3.66 7 4 C7 4.66 7 5.32 7 6 C9.31 6.66 11.62 7.32 14 8 C14.12375 8.969375 14.2475 9.93875 14.375 10.9375 C14.58125 11.948125 14.7875 12.95875 15 14 C15.66 14.33 16.32 14.66 17 15 C15.61122646 18.35620271 14.08322035 20.07298728 11 22 C10.34 22 9.68 22 9 22 C8.67 22.66 8.34 23.32 8 24 C7.0234375 22.2421875 6.046875 20.484375 5.0703125 18.7265625 C3.99102726 16.8387386 3.99102726 16.8387386 2 15 C2.66 15 3.32 15 4 15 C4.33 14.01 4.66 13.02 5 12 C5.66 12 6.32 12 7 12 C6.01 12 5.02 12 4 12 C3 9 3 9 3 7 C1.68 6.34 0.36 5.68 -1 5 C-0.67 3.35 -0.34 1.7 0 0 Z " fill="#6B6B6B" transform="translate(24,52)"/>
<path d="M0 0 C2.86299506 2.86299506 2.99421225 4.65852284 3.0625 8.6875 C3.041875 9.780625 3.02125 10.87375 3 12 C0.87436897 11.88623383 -1.2505261 11.75864369 -3.375 11.625 C-4.55835937 11.55539063 -5.74171875 11.48578125 -6.9609375 11.4140625 C-10 11 -10 11 -12 9 C-12.66 9 -13.32 9 -14 9 C-14 9.99 -14 10.98 -14 12 C-15.9375 11.6875 -15.9375 11.6875 -18 11 C-18.33 10.01 -18.66 9.02 -19 8 C-19.66 7.67 -20.32 7.34 -21 7 C-21 6.34 -21 5.68 -21 5 C-20.360625 4.896875 -19.72125 4.79375 -19.0625 4.6875 C-18.381875 4.460625 -17.70125 4.23375 -17 4 C-16.67 3.01 -16.34 2.02 -16 1 C-10.73946963 0.68436818 -7.55426184 1.33409063 -3 4 C-3 4.66 -3 5.32 -3 6 C-2.34 5.67 -1.68 5.34 -1 5 C-0.34444881 2.47266765 -0.34444881 2.47266765 0 0 Z " fill="#8A8E91" transform="translate(107,64)"/>
<path d="M0 0 C1.65 0 3.3 0 5 0 C5 0.66 5 1.32 5 2 C5.99 1.67 6.98 1.34 8 1 C10 1 12 1 14 1 C14 1.66 14 2.32 14 3 C14.928125 3.1546875 14.928125 3.1546875 15.875 3.3125 C18 4 18 4 20 7 C22.56282742 7.72965366 22.56282742 7.72965366 25 8 C25 8.33 25 8.66 25 9 C8.30640134 9.24670343 8.30640134 9.24670343 3.6875 6.75 C1.67809989 4.66617766 0.8869668 2.73481429 0 0 Z " fill="#CACACB" transform="translate(43,11)"/>
<path d="M0 0 C0.66 0 1.32 0 2 0 C1.773125 0.556875 1.54625 1.11375 1.3125 1.6875 C0.87323346 4.93807237 2.19066932 6.35559363 4 9 C5.58706088 12.17412177 5.28477127 15.53638667 5 19 C4 22 4 22 3 24 C2.67 24 2.34 24 2 24 C2 22.02 2 20.04 2 18 C1.01 18.33 0.02 18.66 -1 19 C-1.99 18.34 -2.98 17.68 -4 17 C-3.69078116 15.54096742 -3.37751201 14.08279278 -3.0625 12.625 C-2.88847656 11.81289063 -2.71445313 11.00078125 -2.53515625 10.1640625 C-2 8 -2 8 -1 6 C-0.64080679 4.00448218 -0.30503431 2.00451121 0 0 Z " fill="#D4D4D4" transform="translate(104,41)"/>
<path d="M0 0 C-3.75 2 -3.75 2 -6 2 C-6 2.66 -6 3.32 -6 4 C-5.01 4.33 -4.02 4.66 -3 5 C-3.33 5.66 -3.66 6.32 -4 7 C-2.68 7.66 -1.36 8.32 0 9 C-7.43378943 9.33452052 -13.19877155 9.13902852 -20 6 C-19 3 -19 3 -17.24609375 1.8515625 C-14.78826727 0.91972568 -12.67915582 0.59271867 -10.0625 0.375 C-9.22847656 0.30023438 -8.39445312 0.22546875 -7.53515625 0.1484375 C-5.01681484 0.00098454 -2.52201639 -0.02706994 0 0 Z " fill="#8C8E92" transform="translate(97,85)"/>
<path d="M0 0 C2.9375 0.75 2.9375 0.75 6 2 C6.875 4.125 6.875 4.125 7 6 C6.34 6 5.68 6 5 6 C4.87625 7.27875 4.7525 8.5575 4.625 9.875 C4.25 13.75 4.25 13.75 2 16 C-0.98679769 14.00880154 -2.8780499 12.46784577 -4 9 C-3.71066493 5.14219907 -2.48728231 2.91985315 0 0 Z " fill="#939393" transform="translate(94,44)"/>
<path d="M0 0 C0.33 0.99 0.66 1.98 1 3 C1.66 3 2.32 3 3 3 C3.66 4.32 4.32 5.64 5 7 C-0.14089313 8.85072153 -2.95531271 9.21474076 -8 7 C-8.33 7.66 -8.66 8.32 -9 9 C-10.65 7.68 -12.3 6.36 -14 5 C-13.67 4.01 -13.34 3.02 -13 2 C-8.56204759 0.5946484 -4.67869431 -0.29241839 0 0 Z " fill="#7B7F83" transform="translate(71,22)"/>
<path d="M0 0 C0.89203125 0.00902344 1.7840625 0.01804688 2.703125 0.02734375 C3.37859375 0.03894531 4.0540625 0.05054688 4.75 0.0625 C3.76 0.3925 2.77 0.7225 1.75 1.0625 C1.95625 2.34125 2.1625 3.62 2.375 4.9375 C2.7265625 7.1171875 2.7265625 7.1171875 2.75 9.0625 C0.75 11.0625 0.75 11.0625 -2.375 11.1875 C-3.32375 11.14625 -4.2725 11.105 -5.25 11.0625 C-6.25 7.1875 -6.25 7.1875 -6.25 6.0625 C-6.91 6.0625 -7.57 6.0625 -8.25 6.0625 C-8.58 4.4125 -8.91 2.7625 -9.25 1.0625 C-6.09493858 0.12630187 -3.28413498 -0.0432123 0 0 Z " fill="#7D7F82" transform="translate(78.25,41.9375)"/>
<path d="M0 0 C0 0.66 0 1.32 0 2 C-0.66 2 -1.32 2 -2 2 C-0.41645469 5.16709063 2.67121804 5.58226307 5.87109375 6.8046875 C8.4074945 8.22879508 8.80649113 9.42370331 10 12 C13.99497711 13.08953921 17.87726216 13.09816042 22 13 C22.33 13.66 22.66 14.32 23 15 C21.41693353 15.16918268 19.83353281 15.33523936 18.25 15.5 C17.36828125 15.5928125 16.4865625 15.685625 15.578125 15.78125 C9.4516129 16.30107527 9.4516129 16.30107527 6 14 C5.8125 11.375 5.8125 11.375 6 9 C5.30132812 8.72285156 4.60265625 8.44570313 3.8828125 8.16015625 C2.97273438 7.79792969 2.06265625 7.43570313 1.125 7.0625 C0.22007813 6.70285156 -0.68484375 6.34320313 -1.6171875 5.97265625 C-4 5 -4 5 -6 4 C-6.66 4.66 -7.32 5.32 -8 6 C-8 4.35 -8 2.7 -8 1 C-5.23735711 0.40267181 -2.83967231 0 0 0 Z " fill="#AEAEAE" transform="translate(39,49)"/>
<path d="M0 0 C0.71247732 1.6476038 1.37400383 3.31763529 2 5 C2.37125 5.70125 2.7425 6.4025 3.125 7.125 C4 9 4 9 4 12 C3.195625 12.12375 2.39125 12.2475 1.5625 12.375 C0.716875 12.58125 -0.12875 12.7875 -1 13 C-1.33 13.66 -1.66 14.32 -2 15 C-4.31 14.01 -6.62 13.02 -9 12 C-6 10 -6 10 -3.375 9.5 C-2.59125 9.335 -1.8075 9.17 -1 9 C-0.67 8.34 -0.34 7.68 0 7 C-0.86625 6.566875 -0.86625 6.566875 -1.75 6.125 C-3.83333333 5.08333333 -5.91666667 4.04166667 -8 3 C-7.67 2.01 -7.34 1.02 -7 0 C-2.25 -1.125 -2.25 -1.125 0 0 Z " fill="#828282" transform="translate(43,93)"/>
<path d="M0 0 C1.98 0 3.96 0 6 0 C6.33 0.99 6.66 1.98 7 3 C7.66 3 8.32 3 9 3 C9 3.66 9 4.32 9 5 C11.475 5.99 11.475 5.99 14 7 C13.67 7.66 13.34 8.32 13 9 C9.08158173 7.69386058 6.67359191 6.16870152 4 3 C4 2.34 4 1.68 4 1 C3.01 1 2.02 1 1 1 C1.28482368 2.41805831 1.57818144 3.83440379 1.875 5.25 C2.03742188 6.03890625 2.19984375 6.8278125 2.3671875 7.640625 C2.91551281 10.01126027 2.91551281 10.01126027 4.0546875 12.0703125 C5.52136797 15.06428007 5.24216841 17.73072648 5 21 C4.34 21.66 3.68 22.32 3 23 C2.67 22.34 2.34 21.68 2 21 C1.34 21.66 0.68 22.32 0 23 C0 15.41 0 7.82 0 0 Z " fill="#6C6C6C" transform="translate(0,43)"/>
<path d="M0 0 C1.65 0 3.3 0 5 0 C5.2475 0.969375 5.495 1.93875 5.75 2.9375 C6.36875 4.4534375 6.36875 4.4534375 7 6 C9.03243548 6.96877057 9.03243548 6.96877057 11 7 C10.67 7.99 10.34 8.98 10 10 C10.66 10 11.32 10 12 10 C11.67 10.99 11.34 11.98 11 13 C8.36 12.34 5.72 11.68 3 11 C2.67 11.66 2.34 12.32 2 13 C1.731875 11.906875 1.46375 10.81375 1.1875 9.6875 C0.12336261 6.38307337 -0.34654664 5.05039578 -3 3 C-2.34 3 -1.68 3 -1 3 C-0.67 2.01 -0.34 1.02 0 0 Z " fill="#E1E1E1" transform="translate(66,1)"/>
<path d="M0 0 C3.71888239 0.50712033 6.73454239 1.11608215 10 3 C10 3.66 10 4.32 10 5 C8.35 5 6.7 5 5 5 C5.33 5.99 5.66 6.98 6 8 C5.195625 8.12375 4.39125 8.2475 3.5625 8.375 C2.716875 8.58125 1.87125 8.7875 1 9 C0.67 9.66 0.34 10.32 0 11 C0.86625 11.1546875 0.86625 11.1546875 1.75 11.3125 C4.32049158 12.09792798 5.93657284 13.30504197 8 15 C7.67 15.99 7.34 16.98 7 18 C5.0625 17.1875 5.0625 17.1875 3 16 C2.67 15.01 2.34 14.02 2 13 C-0.09719872 11.97718482 -0.09719872 11.97718482 -2.5625 11.3125 C-3.38878906 11.06113281 -4.21507812 10.80976562 -5.06640625 10.55078125 C-5.70449219 10.36902344 -6.34257812 10.18726562 -7 10 C-6.67 9.34 -6.34 8.68 -6 8 C-5.34 8 -4.68 8 -4 8 C-4 7.34 -4 6.68 -4 6 C-2.02 5.67 -0.04 5.34 2 5 C1.34 3.35 0.68 1.7 0 0 Z " fill="#7B7B7B" transform="translate(35,85)"/>
<path d="M0 0 C0.639375 0.495 1.27875 0.99 1.9375 1.5 C2.9584375 2.2425 2.9584375 2.2425 4 3 C5.93125966 2.6425235 5.93125966 2.6425235 8 2 C10.00946222 2.27050453 12.01354224 2.59367909 14 3 C13.67 3.99 13.34 4.98 13 6 C7.92679142 8.03581546 2.39500547 8.2295747 -3 8 C-4.125 3.25 -4.125 3.25 -3 1 C-2.01 0.67 -1.02 0.34 0 0 Z " fill="#8B8E91" transform="translate(41,17)"/>
<path d="M0 0 C1.56901337 1.9969261 2.90903763 3.79381863 3.9375 6.125 C5.25850004 8.45617654 6.55370439 9.02148176 9 10 C8.67 11.65 8.34 13.3 8 15 C5.36 15 2.72 15 0 15 C0 14.01 0 13.02 0 12 C-0.99 11.67 -1.98 11.34 -3 11 C-1.35 11 0.3 11 2 11 C1.67 9.68 1.34 8.36 1 7 C-0.32 6.67 -1.64 6.34 -3 6 C-2.01 4.02 -1.02 2.04 0 0 Z " fill="#C7C7C7" transform="translate(89,50)"/>
<path d="M0 0 C1.41623216 -0.05447047 2.83308191 -0.09300508 4.25 -0.125 C5.03890625 -0.14820312 5.8278125 -0.17140625 6.640625 -0.1953125 C9.20731941 0.0171622 10.7916067 0.71345895 13 2 C13 2.99 13 3.98 13 5 C12.34 5 11.68 5 11 5 C10.67 5.66 10.34 6.32 10 7 C9.01 6.67 8.02 6.34 7 6 C7 6.66 7 7.32 7 8 C6.01 8.495 6.01 8.495 5 9 C4.67 9.99 4.34 10.98 4 12 C3.01 11.67 2.02 11.34 1 11 C0.67 10.01 0.34 9.02 0 8 C0.99 8 1.98 8 3 8 C2.74438677 5.6568787 2.40729228 3.32156597 2 1 C1.34 0.67 0.68 0.34 0 0 Z " fill="#636363" transform="translate(24,85)"/>
<path d="M0 0 C4.875 1.75 4.875 1.75 6 4 C7.81052458 4.94306486 7.81052458 4.94306486 9.9375 5.6875 C10.64777344 5.95949219 11.35804687 6.23148438 12.08984375 6.51171875 C14.06716261 7.2392502 14.06716261 7.2392502 16 6 C16 6.66 16 7.32 16 8 C17.32 8.66 18.64 9.32 20 10 C19.01 10.495 19.01 10.495 18 11 C19.65 11.66 21.3 12.32 23 13 C21.66666667 14.33333333 20.33333333 15.66666667 19 17 C18.01 17 17.02 17 16 17 C15.67 15.35 15.34 13.7 15 12 C13.35 11.67 11.7 11.34 10 11 C9.938125 10.38125 9.87625 9.7625 9.8125 9.125 C9.17948312 6.74397155 9.17948312 6.74397155 6.5625 5.8125 C5.2940625 5.4103125 5.2940625 5.4103125 4 5 C3.34 4.67 2.68 4.34 2 4 C2 3.34 2 2.68 2 2 C1.34 2 0.68 2 0 2 C0 1.34 0 0.68 0 0 Z " fill="#4A4A4A" transform="translate(9,50)"/>
<path d="M0 0 C0 0.99 0 1.98 0 3 C-1.98 3.66 -3.96 4.32 -6 5 C-6 4.34 -6 3.68 -6 3 C-7.299375 3.12375 -8.59875 3.2475 -9.9375 3.375 C-10.66839844 3.44460937 -11.39929688 3.51421875 -12.15234375 3.5859375 C-12.76207031 3.72257813 -13.37179688 3.85921875 -14 4 C-14.33 4.66 -14.66 5.32 -15 6 C-16.32 5.67 -17.64 5.34 -19 5 C-19.33 3.35 -19.66 1.7 -20 0 C-18.02 0.66 -16.04 1.32 -14 2 C-14 1.34 -14 0.68 -14 0 C-3.86206897 -1.93103448 -3.86206897 -1.93103448 0 0 Z " fill="#B5B5B5" transform="translate(67,8)"/>
<path d="M0 0 C0.66 0.33 1.32 0.66 2 1 C2 1.66 2 2.32 2 3 C2.66 3 3.32 3 4 3 C4 2.34 4 1.68 4 1 C6.3125 0.3125 6.3125 0.3125 9 0 C9.474375 0.495 9.94875 0.99 10.4375 1.5 C10.953125 1.995 11.46875 2.49 12 3 C15.14921909 2.76716851 15.14921909 2.76716851 18 2 C17.125 5.875 17.125 5.875 16 7 C12.5 7.125 12.5 7.125 9 7 C8.67 6.67 8.34 6.34 8 6 C7.05125 6.04125 6.1025 6.0825 5.125 6.125 C2 6 2 6 0.125 4.5 C-0.24625 4.005 -0.6175 3.51 -1 3 C-0.67 2.01 -0.34 1.02 0 0 Z " fill="#686868" transform="translate(14,71)"/>
<path d="M0 0 C2.3125 -0.3125 2.3125 -0.3125 5 0 C6.875 2.1875 6.875 2.1875 8 5 C7.6875 7.8125 7.6875 7.8125 7 10 C4.1875 10.3125 4.1875 10.3125 1 10 C-1 7.8125 -1 7.8125 -2 5 C-1.1875 2.1875 -1.1875 2.1875 0 0 Z " fill="#A8A9A9" transform="translate(92,27)"/>
<path d="M0 0 C0 0.66 0 1.32 0 2 C-1.134375 2.12375 -2.26875 2.2475 -3.4375 2.375 C-5.2009375 2.684375 -5.2009375 2.684375 -7 3 C-7.33 3.66 -7.66 4.32 -8 5 C-14.11090483 5.09945415 -19.97403427 5.0712828 -26 4 C-24 1 -24 1 -22.00048828 0.56762695 C-20.79755127 0.52835083 -20.79755127 0.52835083 -19.5703125 0.48828125 C-18.25353516 0.43510742 -18.25353516 0.43510742 -16.91015625 0.38085938 C-15.99105469 0.35830078 -15.07195313 0.33574219 -14.125 0.3125 C-12.75794922 0.26125977 -12.75794922 0.26125977 -11.36328125 0.20898438 C-7.57203085 0.07298784 -3.79416083 0 0 0 Z " fill="#A6A7A9" transform="translate(70,49)"/>
<path d="M0 0 C1.33599921 0.32248257 2.66893378 0.65772583 4 1 C5.32 1 6.64 1 8 1 C9 2 9 2 9.09765625 4.28515625 C9.08605469 5.20167969 9.07445313 6.11820313 9.0625 7.0625 C9.05347656 7.98160156 9.04445313 8.90070312 9.03515625 9.84765625 C9.02355469 10.55792969 9.01195313 11.26820312 9 12 C8.34 12 7.68 12 7 12 C6.67 12.99 6.34 13.98 6 15 C5.01 15.33 4.02 15.66 3 16 C2.01 15.01 1.02 14.02 0 13 C1.98 13 3.96 13 6 13 C5.67039784 7.98464948 5.67039784 7.98464948 3 4 C0.93125966 3.3574765 0.93125966 3.3574765 -1 3 C-1.33 3.66 -1.66 4.32 -2 5 C-1.125 1.125 -1.125 1.125 0 0 Z " fill="#D8D8D8" transform="translate(93,24)"/>
<path d="M0 0 C0.33 0.66 0.66 1.32 1 2 C0.67 2.99 0.34 3.98 0 5 C1.65 4.67 3.3 4.34 5 4 C4.67 4.99 4.34 5.98 4 7 C2.35 7 0.7 7 -1 7 C-1.33 7.99 -1.66 8.98 -2 10 C-4.60242414 11.64820195 -5.86248779 12 -9 12 C-9 8 -9 8 -7.125 5.75 C-5 4 -5 4 -3 4 C-2.67 3.01 -2.34 2.02 -2 1 C-1.34 0.67 -0.68 0.34 0 0 Z " fill="#656565" transform="translate(19,11)"/>
<path d="M0 0 C1.65 0.33 3.3 0.66 5 1 C4.67 2.65 4.34 4.3 4 6 C4.99 6.33 5.98 6.66 7 7 C7.6875 9.0625 7.6875 9.0625 8 11 C4.6875 11.3125 4.6875 11.3125 1 11 C-1.0625 8.875 -1.0625 8.875 -2 6 C-1.1875 2.6875 -1.1875 2.6875 0 0 Z " fill="#DDDDDD" transform="translate(83,50)"/>
<path d="M0 0 C-0.33 0.66 -0.66 1.32 -1 2 C-2.32 2 -3.64 2 -5 2 C-5.04125 2.598125 -5.0825 3.19625 -5.125 3.8125 C-6.45461294 7.13653235 -8.80726577 7.58782909 -12 9 C-12.845625 9.5775 -13.69125 10.155 -14.5625 10.75 C-17.52823015 12.27088726 -18.88084871 11.98030469 -22 11 C-22 10.34 -22 9.68 -22 9 C-23.32 8.34 -24.64 7.68 -26 7 C-26 6.67 -26 6.34 -26 6 C-24.02 6 -22.04 6 -20 6 C-20 7.32 -20 8.64 -20 10 C-15.18877153 8.47444034 -15.18877153 8.47444034 -12 5 C-9.5 4.5 -9.5 4.5 -7 4 C-6.67 3.34 -6.34 2.68 -6 2 C-6.66 1.67 -7.32 1.34 -8 1 C-5.07175348 0.02391783 -3.04386724 -0.08226668 0 0 Z " fill="#7F7F7F" transform="translate(30,13)"/>
<path d="M0 0 C0.66 0.33 1.32 0.66 2 1 C2.99 1 3.98 1 5 1 C5.99 1 6.98 1 8 1 C8 1.66 8 2.32 8 3 C8.94359375 2.65775391 8.94359375 2.65775391 9.90625 2.30859375 C15.77171826 0.3387151 19.9381542 -0.43279992 26 1 C26.33 1.66 26.66 2.32 27 3 C26.34 3 25.68 3 25 3 C25 3.66 25 4.32 25 5 C24.34 5 23.68 5 23 5 C23 4.34 23 3.68 23 3 C22.43829102 3.16298584 21.87658203 3.32597168 21.29785156 3.49389648 C18.86446819 4.02985098 16.72377772 4.11361396 14.234375 4.09765625 C13.34492187 4.09443359 12.45546875 4.09121094 11.5390625 4.08789062 C10.61867188 4.07951172 9.69828125 4.07113281 8.75 4.0625 C7.81414063 4.05798828 6.87828125 4.05347656 5.9140625 4.04882812 C3.60930959 4.03706918 1.30468773 4.02063426 -1 4 C-0.67 2.68 -0.34 1.36 0 0 Z " fill="#8F9193" transform="translate(47,46)"/>
<path d="M0 0 C3.75563429 2.20919664 7.38776679 4.56384272 11 7 C9.54347826 12.58333333 9.54347826 12.58333333 7.125 14.4375 C4.68444196 15.08353007 3.35343441 14.84051229 1 14 C1.639375 13.7525 2.27875 13.505 2.9375 13.25 C5.18741541 12.18437567 5.18741541 12.18437567 5.75 9.875 C5.8325 9.25625 5.915 8.6375 6 8 C5.34 8 4.68 8 4 8 C4 7.01 4 6.02 4 5 C1.36 4.34 -1.28 3.68 -4 3 C-2.68 2.01 -1.36 1.02 0 0 Z " fill="#B4B5B6" transform="translate(84,36)"/>
<path d="M0 0 C-0.33 0.66 -0.66 1.32 -1 2 C-3.31 2 -5.62 2 -8 2 C-8 3.32 -8 4.64 -8 6 C-3.05 6.33 1.9 6.66 7 7 C6.67 7.99 6.34 8.98 6 10 C5.27554688 9.9278125 4.55109375 9.855625 3.8046875 9.78125 C-1.14665855 9.30592078 -6.01906074 8.86538002 -11 9 C-11.625 6.6875 -11.625 6.6875 -12 4 C-10 1 -10 1 -8.25 0.3125 C-5.48083033 -0.0721069 -2.79197653 -0.06345401 0 0 Z " fill="#C8C8C8" transform="translate(47,0)"/>
<path d="M0 0 C4.82034262 0.41317222 6.90992611 2.38019915 10 6 C10 6.66 10 7.32 10 8 C9.34 8 8.68 8 8 8 C7.67 8.66 7.34 9.32 7 10 C7 9.34 7 8.68 7 8 C6.34 8 5.68 8 5 8 C4.67 8.66 4.34 9.32 4 10 C3.71125 9.38125 3.4225 8.7625 3.125 8.125 C2.06279958 5.86674235 2.06279958 5.86674235 0 4 C0 2.68 0 1.36 0 0 Z " fill="#373737" transform="translate(21,66)"/>
<path d="M0 0 C1.5 1.375 1.5 1.375 3 3 C3 3.66 3 4.32 3 5 C4.65 5.33 6.3 5.66 8 6 C8 5.01 8 4.02 8 3 C7.01 2.67 6.02 2.34 5 2 C5.66 1.67 6.32 1.34 7 1 C8.5 2.1875 8.5 2.1875 10 4 C10.1875 6.6875 10.1875 6.6875 10 9 C9.01 9 8.02 9 7 9 C6.67 9.66 6.34 10.32 6 11 C5.236875 10.071875 4.47375 9.14375 3.6875 8.1875 C1.88151448 6.01723899 0.0523371 3.94431935 -2 2 C-1.34 1.34 -0.68 0.68 0 0 Z " fill="#717171" transform="translate(17,84)"/>
<path d="M0 0 C0.66 0 1.32 0 2 0 C2 0.99 2 1.98 2 3 C5.3 2.34 8.6 1.68 12 1 C10.12244138 4.75511724 9.37972575 5.88767141 6 8 C5.34 8 4.68 8 4 8 C3.67 8.66 3.34 9.32 3 10 C2.49596232 8.70990357 1.99690074 7.41786211 1.5 6.125 C1.2215625 5.40570313 0.943125 4.68640625 0.65625 3.9453125 C0 2 0 2 0 0 Z " fill="#7F7F7F" transform="translate(29,66)"/>
<path d="M0 0 C2.31 0.66 4.62 1.32 7 2 C7 5.3 7 8.6 7 12 C6.01 12 5.02 12 4 12 C3 11 3 11 2.9375 7.9375 C2.958125 6.968125 2.97875 5.99875 3 5 C2.34 5 1.68 5 1 5 C0.67 3.35 0.34 1.7 0 0 Z " fill="#828282" transform="translate(39,56)"/>
<path d="M0 0 C2.97302763 0.81082572 5.9755253 1.4119077 9 2 C9 2.33 9 2.66 9 3 C-8.44040248 3.25773994 -8.44040248 3.25773994 -11.9375 0.4375 C-12.288125 -0.036875 -12.63875 -0.51125 -13 -1 C-7.91841821 -2.01631636 -4.80268887 -1.92107555 0 0 Z " fill="#B5B7B8" transform="translate(59,17)"/>
<path d="M0 0 C1.65 0.33 3.3 0.66 5 1 C4 4 4 4 1.375 5.6875 C-2.32948098 7.12813149 -5.06093765 7.23634374 -9 7 C-8.67 5.68 -8.34 4.36 -8 3 C-8 3.66 -8 4.32 -8 5 C-7.401875 4.690625 -6.80375 4.38125 -6.1875 4.0625 C-4 3 -4 3 -1 2 C-0.67 1.34 -0.34 0.68 0 0 Z " fill="#BBBDBE" transform="translate(80,60)"/>
<path d="M0 0 C3.12290635 0.48578543 5.99580359 0.9986012 9 2 C10.99961564 2.03920815 13.00049364 2.04443347 15 2 C15.33 2.66 15.66 3.32 16 4 C14.41693353 4.16918268 12.83353281 4.33523936 11.25 4.5 C10.36828125 4.5928125 9.4865625 4.685625 8.578125 4.78125 C2.4516129 5.30107527 2.4516129 5.30107527 -1 3 C-0.67 2.01 -0.34 1.02 0 0 Z " fill="#BBBBBB" transform="translate(46,60)"/>
<path d="M0 0 C1.65 0 3.3 0 5 0 C5 0.99 5 1.98 5 3 C5.66 3.33 6.32 3.66 7 4 C7 4.66 7 5.32 7 6 C7.66 6.33 8.32 6.66 9 7 C8.01 8.485 8.01 8.485 7 10 C4.36 8.35 1.72 6.7 -1 5 C-0.67 3.35 -0.34 1.7 0 0 Z " fill="#6D6D6D" transform="translate(24,52)"/>
<path d="M0 0 C0.66 0 1.32 0 2 0 C1.6596875 0.8353125 1.6596875 0.8353125 1.3125 1.6875 C0.87345609 4.93642494 2.22078669 6.33118003 4 9 C4.33 9.99 4.66 10.98 5 12 C2.69 12.33 0.38 12.66 -2 13 C-2.125 8.25 -2.125 8.25 -1 6 C-0.64080679 4.00448218 -0.30503431 2.00451121 0 0 Z " fill="#CDCDCD" transform="translate(104,41)"/>
<path d="M0 0 C1.95825873 -0.02694851 3.91662226 -0.04637218 5.875 -0.0625 C6.96554688 -0.07410156 8.05609375 -0.08570313 9.1796875 -0.09765625 C12 0 12 0 14 1 C14 1.99 14 2.98 14 4 C14.66 4 15.32 4 16 4 C15.67 5.65 15.34 7.3 15 9 C13.68 9.33 12.36 9.66 11 10 C10.67 8.35 10.34 6.7 10 5 C10.99 5 11.98 5 13 5 C13 4.01 13 3.02 13 2 C8.71 1.67 4.42 1.34 0 1 C0 0.67 0 0.34 0 0 Z " fill="#9C9D9E" transform="translate(74,40)"/>
<path d="M0 0 C2.45840605 -0.02691685 4.91651882 -0.04679802 7.375 -0.0625 C8.07367188 -0.07087891 8.77234375 -0.07925781 9.4921875 -0.08789062 C14.7734375 -0.11328125 14.7734375 -0.11328125 17 1 C17 1.99 17 2.98 17 4 C16.01 4 15.02 4 14 4 C13.67 5.32 13.34 6.64 13 8 C12.01 8 11.02 8 10 8 C10 6.02 10 4.04 10 2 C6.7 1.67 3.4 1.34 0 1 C0 0.67 0 0.34 0 0 Z " fill="#87898B" transform="translate(70,41)"/>
<path d="M0 0 C0.99 0.33 1.98 0.66 3 1 C3 1.99 3 2.98 3 4 C3.66 4.33 4.32 4.66 5 5 C4.67 5.66 4.34 6.32 4 7 C-0.29 6.67 -4.58 6.34 -9 6 C-9 5.34 -9 4.68 -9 4 C-2.25 3.875 -2.25 3.875 0 5 C-0.2784375 4.0409375 -0.2784375 4.0409375 -0.5625 3.0625 C-0.706875 2.381875 -0.85125 1.70125 -1 1 C-0.67 0.67 -0.34 0.34 0 0 Z " fill="#A9A9A9" transform="translate(51,102)"/>
<path d="M0 0 C1.32 0 2.64 0 4 0 C4 0.66 4 1.32 4 2 C5.65 2 7.3 2 9 2 C8.67 3.98 8.34 5.96 8 8 C8.763125 7.95875 9.52625 7.9175 10.3125 7.875 C13 8 13 8 16 10 C15.67 10.99 15.34 11.98 15 13 C12.36 11.68 9.72 10.36 7 9 C7 7.68 7 6.36 7 5 C4.525 4.01 4.525 4.01 2 3 C2 2.34 2 1.68 2 1 C1.34 0.67 0.68 0.34 0 0 Z " fill="#8F8F8F" transform="translate(7,45)"/>
<path d="M0 0 C2 2 2 2 2 6 C3.32 6 4.64 6 6 6 C6 6.66 6 7.32 6 8 C6.66 8.33 7.32 8.66 8 9 C3.25 10.125 3.25 10.125 1 9 C1 9.66 1 10.32 1 11 C-0.98 11 -2.96 11 -5 11 C-4 9 -4 9 -1 8 C-0.67 5.36 -0.34 2.72 0 0 Z " fill="#B1B2B4" transform="translate(77,25)"/>
<path d="M0 0 C0.66 0 1.32 0 2 0 C2 0.99 2 1.98 2 3 C2.99 3 3.98 3 5 3 C5.125 6.375 5.125 6.375 5 10 C4.34 10.66 3.68 11.32 3 12 C2.67 11.34 2.34 10.68 2 10 C1.34 10.66 0.68 11.32 0 12 C0 8.04 0 4.08 0 0 Z " fill="#727272" transform="translate(0,54)"/>
<path d="M0 0 C5.37732887 2.24652851 10.260128 4.59701497 15 8 C14.01 9.32 13.02 10.64 12 12 C11.96003906 11.39671875 11.92007813 10.7934375 11.87890625 10.171875 C11.14897458 7.70782867 11.14897458 7.70782867 8.27734375 6.515625 C7.17519531 6.09796875 6.07304688 5.6803125 4.9375 5.25 C3.83277344 4.82203125 2.72804688 4.3940625 1.58984375 3.953125 C0.73519531 3.63859375 -0.11945313 3.3240625 -1 3 C-0.67 2.01 -0.34 1.02 0 0 Z " fill="#BDBDBD" transform="translate(72,2)"/>
<path d="M0 0 C0 0.66 0 1.32 0 2 C-2.90600261 3.25664978 -4.79604584 4 -8 4 C-8 3.34 -8 2.68 -8 2 C-9.1446875 2.5259375 -9.1446875 2.5259375 -10.3125 3.0625 C-13 4 -13 4 -16 3 C-10.65861803 -1.63856855 -6.78761138 -1.23411116 0 0 Z " fill="#7A7D81" transform="translate(63,45)"/>
<path d="M0 0 C3.3 1.65 6.6 3.3 10 5 C10 4.34 10 3.68 10 3 C11.32 3 12.64 3 14 3 C14 3.66 14 4.32 14 5 C14.66 5.33 15.32 5.66 16 6 C13.625 7.375 13.625 7.375 10 8 C6.36892133 6.43301665 3.09155213 4.46835388 0 2 C0 1.34 0 0.68 0 0 Z " fill="#6F6F6F" transform="translate(22,97)"/>
<path d="M0 0 C2.97 0.495 2.97 0.495 6 1 C6 2.98 6 4.96 6 7 C6.66 7 7.32 7 8 7 C8 8.32 8 9.64 8 11 C7.34 11 6.68 11 6 11 C5.67 11.66 5.34 12.32 5 13 C4.67 12.01 4.34 11.02 4 10 C3.34 9.67 2.68 9.34 2 9 C2.66 9 3.32 9 4 9 C3.814375 8.38125 3.62875 7.7625 3.4375 7.125 C3 5 3 5 4 3 C2.68 2.34 1.36 1.68 0 1 C0 0.67 0 0.34 0 0 Z " fill="#959595" transform="translate(34,54)"/>
<path d="M0 0 C1.32 1.32 2.64 2.64 4 4 C3.01 4.495 3.01 4.495 2 5 C1.34 4.67 0.68 4.34 0 4 C-0.33 4.99 -0.66 5.98 -1 7 C-1.99 7.33 -2.98 7.66 -4 8 C-4.66 8.66 -5.32 9.32 -6 10 C-6.66 9.67 -7.32 9.34 -8 9 C-7.67 7.35 -7.34 5.7 -7 4 C-5.824375 3.8453125 -5.824375 3.8453125 -4.625 3.6875 C-1.66954819 3.22404978 -1.66954819 3.22404978 0 0 Z " fill="#C8C8C8" transform="translate(80,56)"/>
<path d="M0 0 C0.66 0 1.32 0 2 0 C2 0.66 2 1.32 2 2 C2.99 2 3.98 2 5 2 C5.33 2.99 5.66 3.98 6 5 C6.66 5 7.32 5 8 5 C8 7.31 8 9.62 8 12 C5.03 11.505 5.03 11.505 2 11 C2.66 10.67 3.32 10.34 4 10 C2.68 6.7 1.36 3.4 0 0 Z " fill="#999999" transform="translate(43,95)"/>
<path d="M0 0 C4.95 0.33 9.9 0.66 15 1 C15 1.33 15 1.66 15 2 C11.7 2 8.4 2 5 2 C5.33 2.99 5.66 3.98 6 5 C6.33 5.99 6.66 6.98 7 8 C6.01 8.33 5.02 8.66 4 9 C4 7.68 4 6.36 4 5 C3.01 5 2.02 5 1 5 C1.33 3.68 1.66 2.36 2 1 C1.34 0.67 0.68 0.34 0 0 Z " fill="#ABABAB" transform="translate(44,92)"/>
<path d="M0 0 C-0.33 1.65 -0.66 3.3 -1 5 C-1.99 4.67 -2.98 4.34 -4 4 C-4 4.66 -4 5.32 -4 6 C-5.65 6 -7.3 6 -9 6 C-9.33 5.34 -9.66 4.68 -10 4 C-7.525 4.495 -7.525 4.495 -5 5 C-5 3.68 -5 2.36 -5 1 C-5.66 0.67 -6.32 0.34 -7 0 C-4.3333581 -1.33332095 -2.83319697 -0.67102033 0 0 Z " fill="#C5C6C6" transform="translate(77,14)"/>
<path d="M0 0 C0.99 0 1.98 0 3 0 C3 1.32 3 2.64 3 4 C5.31 4 7.62 4 10 4 C10 4.33 10 4.66 10 5 C3.07 4.67 -3.86 4.34 -11 4 C-11 3.67 -11 3.34 -11 3 C-10.28972656 2.86722656 -9.57945313 2.73445313 -8.84765625 2.59765625 C-7.92855469 2.42105469 -7.00945312 2.24445313 -6.0625 2.0625 C-4.68771484 1.80146484 -4.68771484 1.80146484 -3.28515625 1.53515625 C-1.04710156 1.22285012 -1.04710156 1.22285012 0 0 Z " fill="#B1B1B2" transform="translate(73,89)"/>
<path d="M0 0 C1.65 0 3.3 0 5 0 C5.28875 0.598125 5.5775 1.19625 5.875 1.8125 C7.04742026 4.19327792 7.04742026 4.19327792 9 7 C8.34 7 7.68 7 7 7 C6.67 7.99 6.34 8.98 6 10 C4.99723227 8.52270825 3.99785546 7.04311423 3 5.5625 C2.443125 4.73878906 1.88625 3.91507812 1.3125 3.06640625 C0 1 0 1 0 0 Z " fill="#6F6F6F" transform="translate(5,79)"/>
<path d="M0 0 C1.32 0 2.64 0 4 0 C4.93423645 3.01031744 5.04449911 3.86650268 4 7 C2.35 6.67 0.7 6.34 -1 6 C-1.042721 4.33388095 -1.04063832 2.66617115 -1 1 C-0.67 0.67 -0.34 0.34 0 0 Z " fill="#888889" transform="translate(95,30)"/>
<path d="M0 0 C0.99 0.66 1.98 1.32 3 2 C2.195625 2.12375 1.39125 2.2475 0.5625 2.375 C-0.7059375 2.684375 -0.7059375 2.684375 -2 3 C-2.33 3.66 -2.66 4.32 -3 5 C-5.31 4.01 -7.62 3.02 -10 2 C-6.31282562 -0.45811625 -4.35654296 -0.31118164 0 0 Z " fill="#8E8E8E" transform="translate(44,103)"/>
<path d="M0 0 C4.29 0.33 8.58 0.66 13 1 C13 1.33 13 1.66 13 2 C10.36 2.66 7.72 3.32 5 4 C5 5.65 5 7.3 5 9 C4.34 9 3.68 9 3 9 C1.24005726 5.83210307 0.75127114 3.75635569 0 0 Z " fill="#BCBCBC" transform="translate(48,93)"/>
<path d="M0 0 C-0.625 1.9375 -0.625 1.9375 -2 4 C-7.18918919 5.40540541 -7.18918919 5.40540541 -10 4 C-10 3.01 -10 2.02 -10 1 C-6.59437148 0.22157062 -3.49234244 -0.09978121 0 0 Z " fill="#B1B2B2" transform="translate(61,34)"/>
<path d="M0 0 C0.33 1.32 0.66 2.64 1 4 C1.66 4 2.32 4 3 4 C2.67 4.99 2.34 5.98 2 7 C0.02 7 -1.96 7 -4 7 C-3.67 5.02 -3.34 3.04 -3 1 C-2.01 0.67 -1.02 0.34 0 0 Z " fill="#7E8183" transform="translate(41,17)"/>
<path d="M0 0 C1.65 0.33 3.3 0.66 5 1 C4.34 1.66 3.68 2.32 3 3 C2.40165446 4.52056618 1.86493344 6.06612088 1.375 7.625 C0.98441406 8.85089844 0.98441406 8.85089844 0.5859375 10.1015625 C0.39257812 10.72804688 0.19921875 11.35453125 0 12 C-0.66 12 -1.32 12 -2 12 C-1 3.42857143 -1 3.42857143 0 0 Z " fill="#AEAEAE" transform="translate(100,46)"/>
<path d="M0 0 C0.99 0 1.98 0 3 0 C3 1.32 3 2.64 3 4 C4.32 3.67 5.64 3.34 7 3 C7 2.01 7 1.02 7 0 C7.66 0 8.32 0 9 0 C9.33 1.32 9.66 2.64 10 4 C7.36 4.33 4.72 4.66 2 5 C2 4.01 2 3.02 2 2 C1.34 2 0.68 2 0 2 C0.33 3.65 0.66 5.3 1 7 C-0.32 5.68 -1.64 4.36 -3 3 C-2.34 3 -1.68 3 -1 3 C-0.67 2.01 -0.34 1.02 0 0 Z " fill="#6D6D6D" transform="translate(29,64)"/>
<path d="M0 0 C5.75 -0.125 5.75 -0.125 8 1 C8 2.65 8 4.3 8 6 C7.01 6 6.02 6 5 6 C5 5.01 5 4.02 5 3 C2.03 2.505 2.03 2.505 -1 2 C-0.67 1.34 -0.34 0.68 0 0 Z " fill="#B4B4B5" transform="translate(102,77)"/>
<path d="M0 0 C3.00617269 3.00617269 2.59585316 5.82381598 3 10 C1.35 10 -0.3 10 -2 10 C-1.34 6.7 -0.68 3.4 0 0 Z " fill="#64676B" transform="translate(107,64)"/>
<path d="M0 0 C0.33 0.66 0.66 1.32 1 2 C3.31 1.34 5.62 0.68 8 0 C8 0.99 8 1.98 8 3 C4.17679443 4.42258812 1.08718695 5.24042276 -3 5 C-3 4.01 -3 3.02 -3 2 C-2.01 1.34 -1.02 0.68 0 0 Z " fill="#B0B0B0" transform="translate(27,7)"/>
<path d="M0 0 C-0.33 1.65 -0.66 3.3 -1 5 C-3.64 4.67 -6.28 4.34 -9 4 C-5.86025155 0.71753571 -4.76763047 0 0 0 Z " fill="#E2E2E2" transform="translate(50,1)"/>
<path d="M0 0 C4.58826282 1.93726652 6.80528594 3.48864333 9 8 C7.35 7.67 5.7 7.34 4 7 C4 6.34 4 5.68 4 5 C2.68 5 1.36 5 0 5 C0 3.35 0 1.7 0 0 Z " fill="#5C5C5C" transform="translate(32,95)"/>
<path d="M0 0 C3 0 3 0 6.625 0.5625 C7.73875 0.706875 8.8525 0.85125 10 1 C10.33 0.67 10.66 0.34 11 0 C12.66617115 -0.04063832 14.33388095 -0.042721 16 0 C15.67 0.66 15.34 1.32 15 2 C10.05122578 3.05390562 4.88947792 3.46684337 0 2 C0 1.34 0 0.68 0 0 Z " fill="#8C8E90" transform="translate(60,29)"/>
<path d="M0 0 C0.66 0.33 1.32 0.66 2 1 C2 4.3 2 7.6 2 11 C1.34 11 0.68 11 0 11 C-0.33 11.99 -0.66 12.98 -1 14 C-1.99 14.33 -2.98 14.66 -4 15 C-4.99 14.01 -5.98 13.02 -7 12 C-5.02 12 -3.04 12 -1 12 C-0.83211627 10.37512529 -0.66573213 8.75009558 -0.5 7.125 C-0.4071875 6.22007813 -0.314375 5.31515625 -0.21875 4.3828125 C0.03047295 2.06686789 0.03047295 2.06686789 0 0 Z " fill="#C6C6C6" transform="translate(100,25)"/>
<path d="M0 0 C4.875 1.75 4.875 1.75 6 4 C5.34 4 4.68 4 4 4 C3.67 4.66 3.34 5.32 3 6 C2.34 5.67 1.68 5.34 1 5 C1.33 6.98 1.66 8.96 2 11 C1.01 10.67 0.02 10.34 -1 10 C-0.67 6.7 -0.34 3.4 0 0 Z " fill="#CFD0D0" transform="translate(77,10)"/>
<path d="M0 0 C-0.33 1.65 -0.66 3.3 -1 5 C-3.38564077 4.42415568 -5.66682784 3.77772405 -8 3 C-7.67 2.01 -7.34 1.02 -7 0 C-2.25 -1.125 -2.25 -1.125 0 0 Z " fill="#8B8B8B" transform="translate(43,93)"/>
<path d="M0 0 C5.28 0.33 10.56 0.66 16 1 C15.67 1.99 15.34 2.98 15 4 C14.26394531 3.9278125 13.52789062 3.855625 12.76953125 3.78125 C11.30580078 3.64203125 11.30580078 3.64203125 9.8125 3.5 C8.84957031 3.4071875 7.88664062 3.314375 6.89453125 3.21875 C4.24812333 3.01875156 1.65239135 2.96120817 -1 3 C-0.67 2.01 -0.34 1.02 0 0 Z " fill="#BFBFBF" transform="translate(38,6)"/>
<path d="M0 0 C0.66 0.33 1.32 0.66 2 1 C2 1.66 2 2.32 2 3 C2.66 3 3.32 3 4 3 C4 2.34 4 1.68 4 1 C5.32 1.33 6.64 1.66 8 2 C7.67 2.99 7.34 3.98 7 5 C4.6875 5.6875 4.6875 5.6875 2 6 C0.1875 4.5625 0.1875 4.5625 -1 3 C-0.67 2.01 -0.34 1.02 0 0 Z " fill="#525252" transform="translate(14,71)"/>
<path d="M0 0 C0.99 0 1.98 0 3 0 C3 0.66 3 1.32 3 2 C3.99 2.33 4.98 2.66 6 3 C5.01 3.495 5.01 3.495 4 4 C3.01 3.67 2.02 3.34 1 3 C1.515625 4.093125 2.03125 5.18625 2.5625 6.3125 C4 10 4 10 3 13 C0.33409063 8.44573816 -0.31563182 5.26053037 0 0 Z " fill="#484848" transform="translate(1,44)"/>
<path d="M0 0 C0.33 0 0.66 0 1 0 C1.66 2.97 2.32 5.94 3 9 C3.66 9 4.32 9 5 9 C5.33 10.98 5.66 12.96 6 15 C5.01 14.34 4.02 13.68 3 13 C3 12.01 3 11.02 3 10 C2.34 10 1.68 10 1 10 C-0.60725635 6.78548731 -0.05748185 3.56387464 0 0 Z " fill="#444444" transform="translate(5,57)"/>
<path d="M0 0 C2.31 0 4.62 0 7 0 C6.01 0.33 5.02 0.66 4 1 C4 1.66 4 2.32 4 3 C3.030625 3.28875 2.06125 3.5775 1.0625 3.875 C-2.10664203 4.64214682 -2.10664203 4.64214682 -3 7 C-3.66 6.67 -4.32 6.34 -5 6 C-5 5.34 -5 4.68 -5 4 C-4.0409375 3.8453125 -4.0409375 3.8453125 -3.0625 3.6875 C-2.381875 3.460625 -1.70125 3.23375 -1 3 C-0.67 2.01 -0.34 1.02 0 0 Z " fill="#8E9193" transform="translate(91,65)"/>
<path d="M0 0 C1.32 0.33 2.64 0.66 4 1 C3.67 2.65 3.34 4.3 3 6 C1.35 6 -0.3 6 -2 6 C-1.34 4.02 -0.68 2.04 0 0 Z " fill="#C2C2C2" transform="translate(94,59)"/>
<path d="M0 0 C0.33 0.66 0.66 1.32 1 2 C1.99 2.33 2.98 2.66 4 3 C3.67 3.66 3.34 4.32 3 5 C4.32 5.66 5.64 6.32 7 7 C4.36 7 1.72 7 -1 7 C-1.625 5.1875 -1.625 5.1875 -2 3 C-1.34 2.01 -0.68 1.02 0 0 Z " fill="#84868A" transform="translate(90,87)"/>
<path d="M0 0 C-0.33 1.32 -0.66 2.64 -1 4 C-3.64 4.33 -6.28 4.66 -9 5 C-9 4.34 -9 3.68 -9 3 C-3.375 0 -3.375 0 0 0 Z " fill="#7C8186" transform="translate(98,67)"/>
<path d="M0 0 C0.99 0.33 1.98 0.66 3 1 C4.1875 3.5625 4.1875 3.5625 5 6 C4.34 6 3.68 6 3 6 C2.67 6.66 2.34 7.32 2 8 C2 7.34 2 6.68 2 6 C1.34 6 0.68 6 0 6 C-0.33 6.66 -0.66 7.32 -1 8 C-1 7.01 -1 6.02 -1 5 C-0.34 5 0.32 5 1 5 C0.67 3.35 0.34 1.7 0 0 Z " fill="#3E3E3E" transform="translate(26,68)"/>
<path d="M0 0 C1.32 0.66 2.64 1.32 4 2 C4 2.66 4 3.32 4 4 C3.01 4.495 3.01 4.495 2 5 C1.67 5.99 1.34 6.98 1 8 C0.01 7.67 -0.98 7.34 -2 7 C-2.33 6.01 -2.66 5.02 -3 4 C-2.01 4 -1.02 4 0 4 C0 2.68 0 1.36 0 0 Z " fill="#565656" transform="translate(27,89)"/>
<path d="M0 0 C4.875 1.75 4.875 1.75 6 4 C7.64363134 4.72159424 9.31050386 5.39351421 11 6 C10.01 7.485 10.01 7.485 9 9 C9 8.34 9 7.68 9 7 C7.824375 6.5359375 7.824375 6.5359375 6.625 6.0625 C4 5 4 5 2 4 C2 3.34 2 2.68 2 2 C1.34 2 0.68 2 0 2 C0 1.34 0 0.68 0 0 Z " fill="#494949" transform="translate(9,50)"/>
<path d="M0 0 C1.32 0.99 2.64 1.98 4 3 C2 6 2 6 -1.125 6.6875 C-2.07375 6.790625 -3.0225 6.89375 -4 7 C-4 4 -4 4 -2 1.8125 C-1.34 1.214375 -0.68 0.61625 0 0 Z " fill="#AFAFAF" transform="translate(32,11)"/>
<path d="M0 0 C2.64 0 5.28 0 8 0 C8 1.32 8 2.64 8 4 C5.03 3.505 5.03 3.505 2 3 C2 2.34 2 1.68 2 1 C1.34 0.67 0.68 0.34 0 0 Z " fill="#545454" transform="translate(24,85)"/>
<path d="M0 0 C-1 3 -1 3 -3 4 C-4.99960012 4.039992 -7.00047242 4.04346799 -9 4 C-9 3.34 -9 2.68 -9 2 C-5.62902617 0.50178941 -3.79557881 0 0 0 Z " fill="#B3B4B4" transform="translate(91,77)"/>
<path d="M0 0 C0.33 0.66 0.66 1.32 1 2 C1.99 2.33 2.98 2.66 4 3 C0.99580359 4.0013988 -1.87709365 4.51421457 -5 5 C-5 3.68 -5 2.36 -5 1 C-3.35 0.67 -1.7 0.34 0 0 Z " fill="#565656" transform="translate(24,56)"/>
<path d="M0 0 C-3.31371 2.20914 -4.3446021 2.22481553 -8.1875 2.125 C-9.08855469 2.10695313 -9.98960938 2.08890625 -10.91796875 2.0703125 C-11.60503906 2.04710938 -12.29210938 2.02390625 -13 2 C-8.53448096 -0.31790713 -4.94391187 -1.64797062 0 0 Z " fill="#CDCDCD" transform="translate(70,106)"/>
<path d="M0 0 C2.875 0.3125 2.875 0.3125 6 1 C6.66 1.99 7.32 2.98 8 4 C6.68 4 5.36 4 4 4 C3.67 4.66 3.34 5.32 3 6 C2.01 4.02 1.02 2.04 0 0 Z " fill="#707171" transform="translate(35,85)"/>
<path d="M0 0 C0.33 0.99 0.66 1.98 1 3 C-1 5 -1 5 -3.625 5.125 C-4.40875 5.08375 -5.1925 5.0425 -6 5 C-5.67 3.68 -5.34 2.36 -5 1 C-3.35 0.67 -1.7 0.34 0 0 Z " fill="#565656" transform="translate(31,73)"/>
<path d="M0 0 C0 0.99 0 1.98 0 3 C-2.375 3.1875 -2.375 3.1875 -5 3 C-5.66 2.01 -6.32 1.02 -7 0 C-4.3333581 -1.33332095 -2.83319697 -0.67102033 0 0 Z " fill="#D3D3D3" transform="translate(102,43)"/>
<path d="M0 0 C1.65 0.99 3.3 1.98 5 3 C4.67 4.32 4.34 5.64 4 7 C2.68 6.34 1.36 5.68 0 5 C0 3.35 0 1.7 0 0 Z " fill="#CBCCCC" transform="translate(85,33)"/>
<path d="M0 0 C-0.33 1.32 -0.66 2.64 -1 4 C-2.65 4 -4.3 4 -6 4 C-6 3.01 -6 2.02 -6 1 C-4 0 -4 0 0 0 Z " fill="#8C8F92" transform="translate(86,64)"/>
<path d="M0 0 C-0.33 0.66 -0.66 1.32 -1 2 C-4.47325181 3.1577506 -7.36067448 3.06866652 -11 3 C-10.67 2.34 -10.34 1.68 -10 1 C-6.6322481 0.06451336 -3.4815554 -0.09947301 0 0 Z " fill="#8F8F8F" transform="translate(22,29)"/>
<path d="M0 0 C2.31 1.98 4.62 3.96 7 6 C5.68 6.33 4.36 6.66 3 7 C2.67 6.34 2.34 5.68 2 5 C1.34 5 0.68 5 0 5 C0 3.35 0 1.7 0 0 Z " fill="#CBCBCB" transform="translate(89,12)"/>
<path d="M0 0 C1.8871875 0.061875 1.8871875 0.061875 3.8125 0.125 C4.4725 1.445 5.1325 2.765 5.8125 4.125 C4.8225 4.62 4.8225 4.62 3.8125 5.125 C3.4825 3.805 3.1525 2.485 2.8125 1.125 C-0.4875 1.455 -3.7875 1.785 -7.1875 2.125 C-4.09861478 0.06574319 -3.47814073 -0.1140374 0 0 Z " fill="#8B8B8B" transform="translate(29.1875,81.875)"/>
<path d="M0 0 C0.66 0 1.32 0 2 0 C2.33 1.98 2.66 3.96 3 6 C1.68 6.33 0.36 6.66 -1 7 C-0.67 4.69 -0.34 2.38 0 0 Z " fill="#565656" transform="translate(33,61)"/>
<path d="M0 0 C5.625 -0.25 5.625 -0.25 9 2 C8.67 2.99 8.34 3.98 8 5 C5.36 3.68 2.72 2.36 0 1 C0 0.67 0 0.34 0 0 Z " fill="#818181" transform="translate(14,53)"/>
<path d="M0 0 C0.66 0 1.32 0 2 0 C2 1.65 2 3.3 2 5 C-0.35438733 6.42944945 -1.48032433 7.08661261 -4.25 6.625 C-4.8275 6.41875 -5.405 6.2125 -6 6 C-5.38125 5.7525 -4.7625 5.505 -4.125 5.25 C-1.64931313 3.79371361 -1.04874998 2.62187494 0 0 Z " fill="#BCBCBC" transform="translate(91,44)"/>
<path d="M0 0 C-1.375 1.5 -1.375 1.5 -3 3 C-3.66 3 -4.32 3 -5 3 C-5.33 4.32 -5.66 5.64 -6 7 C-6.33 5.02 -6.66 3.04 -7 1 C-3.375 -1.125 -3.375 -1.125 0 0 Z " fill="#C8C8C8" transform="translate(59,96)"/>
<path d="M0 0 C2 3 2 3 1.625 5.1875 C1.41875 5.785625 1.2125 6.38375 1 7 C-0.32 6.67 -1.64 6.34 -3 6 C-2.01 4.02 -1.02 2.04 0 0 Z " fill="#D2D2D2" transform="translate(89,50)"/>
<path d="M0 0 C0.66 0.33 1.32 0.66 2 1 C2.99 1 3.98 1 5 1 C5.99 1.33 6.98 1.66 8 2 C6 4 6 4 2.375 4.125 C1.26125 4.08375 0.1475 4.0425 -1 4 C-0.67 2.68 -0.34 1.36 0 0 Z " fill="#85878B" transform="translate(47,46)"/>
<path d="M0 0 C0.33 0.66 0.66 1.32 1 2 C-0.4375 4.625 -0.4375 4.625 -2 7 C-3.32 6.67 -4.64 6.34 -6 6 C-4 4 -2 2 0 0 Z " fill="#4A4A4A" transform="translate(17,15)"/>
<path d="M0 0 C0 2.31 0 4.62 0 7 C-0.66 7 -1.32 7 -2 7 C-2.99 5.02 -3.98 3.04 -5 1 C-3 0 -3 0 0 0 Z " fill="#C8C8C8" transform="translate(67,11)"/>
<path d="M0 0 C2.31 0 4.62 0 7 0 C7 0.99 7 1.98 7 3 C4.69 2.67 2.38 2.34 0 2 C0 1.34 0 0.68 0 0 Z " fill="#ABABAB" transform="translate(60,8)"/>
<path d="M0 0 C1.98 0.495 1.98 0.495 4 1 C3.67 2.32 3.34 3.64 3 5 C1.68 4.34 0.36 3.68 -1 3 C-0.67 2.01 -0.34 1.02 0 0 Z " fill="#686868" transform="translate(19,93)"/>
<path d="M0 0 C1.32 0.66 2.64 1.32 4 2 C4 2.99 4 3.98 4 5 C2.68 5 1.36 5 0 5 C-0.5625 3.0625 -0.5625 3.0625 -1 1 C-0.67 0.67 -0.34 0.34 0 0 Z " fill="#E8E8E8" transform="translate(72,54)"/>
<path d="M0 0 C1.65 0 3.3 0 5 0 C5 1.32 5 2.64 5 4 C4.01 4.33 3.02 4.66 2 5 C2 4.34 2 3.68 2 3 C1.01 2.67 0.02 2.34 -1 2 C-0.67 1.34 -0.34 0.68 0 0 Z " fill="#787878" transform="translate(24,52)"/>
<path d="M0 0 C2.475 0.495 2.475 0.495 5 1 C4.67 1.99 4.34 2.98 4 4 C1.9375 4.6875 1.9375 4.6875 0 5 C0 3.35 0 1.7 0 0 Z " fill="#AEB0B2" transform="translate(80,60)"/>
<path d="M0 0 C2.0625 0.4375 2.0625 0.4375 4 1 C4.33 2.32 4.66 3.64 5 5 C3.35 4.67 1.7 4.34 0 4 C-0.33 3.01 -0.66 2.02 -1 1 C-0.67 0.67 -0.34 0.34 0 0 Z " fill="#E7E7E7" transform="translate(86,56)"/>
<path d="M0 0 C0.66 0.99 1.32 1.98 2 3 C-0.31 3.33 -2.62 3.66 -5 4 C-5 3.01 -5 2.02 -5 1 C-3.35 0.67 -1.7 0.34 0 0 Z " fill="#C5C5C5" transform="translate(107,50)"/>
<path d="M0 0 C-0.99 1.485 -0.99 1.485 -2 3 C-5.125 3.1875 -5.125 3.1875 -8 3 C-8.33 2.34 -8.66 1.68 -9 1 C-5.92677456 0.08941469 -3.19902639 -0.08886184 0 0 Z " fill="#929393" transform="translate(81,50)"/>
<path d="M0 0 C-0.8125 1.9375 -0.8125 1.9375 -2 4 C-2.99 4.33 -3.98 4.66 -5 5 C-5.33 3.68 -5.66 2.36 -6 1 C-3.92446352 0.4465236 -2.15634036 0 0 0 Z " fill="#73777C" transform="translate(75,42)"/>
<path d="M0 0 C2.69082872 0.17635452 5.32851446 0.61835921 8 1 C7.67 1.66 7.34 2.32 7 3 C4.125 3.125 4.125 3.125 1 3 C0.34 2.34 -0.32 1.68 -1 1 C-0.67 0.67 -0.34 0.34 0 0 Z " fill="#ADAEAF" transform="translate(56,40)"/>
<path d="M0 0 C0.99 0 1.98 0 3 0 C3 0.66 3 1.32 3 2 C3.66 2 4.32 2 5 2 C4.67 2.66 4.34 3.32 4 4 C2.35 3.67 0.7 3.34 -1 3 C-1.33 3.66 -1.66 4.32 -2 5 C-1.125 1.125 -1.125 1.125 0 0 Z " fill="#D2D2D2" transform="translate(93,24)"/>
</svg>
